<?xml version="1.0" standalone="yes"?>
<svg xmlns="http://www.w3.org/2000/svg" width="834" height="447">
<path style="fill:#020609; stroke:none;" d="M0 0L0 447L106 447L106 446L85 444C85.9743 438.341 88.0544 429.872 94 428C97.0981 438.464 115.215 437.631 124 436.907C128.176 436.562 135.079 434.439 134.534 429.015C133.954 423.241 125.431 422.421 121 422.089C107.787 421.099 80.5949 418.611 89.2284 398C95.5465 382.917 115.928 383.607 129 387.158C131.425 387.817 139.58 388.368 140.788 390.443C142.666 393.67 138.593 400.551 138 404C132.747 402.441 129.736 397.87 124 396.503C117.616 394.982 110.234 394.043 104.044 396.854C99.9997 398.691 97.4319 403.84 101.319 407.297C110.812 415.742 128.998 408.767 139.957 416.133C155.42 426.528 140.811 444.794 127 446L127 447L190 447L190 446C169.811 442.974 158.154 420.124 167.916 402C173.955 390.788 186.635 385.007 199 385.008C211.317 385.009 224.02 390.986 230.095 402C240.098 420.134 228.351 442.95 208 446L208 447L256 447L260 442L260 403C260 398.152 261.468 391.815 256 390L256 386L300 386C303.726 385.998 308.651 383.752 311.941 384.148C318.405 384.927 314.592 397.55 310 399L310 396L271 396L271 411L297 411L297 408C301.274 409.298 305.687 420.53 299.772 422.427C297.734 423.081 294.22 421.113 291.985 421.019C285.015 420.728 277.977 421 271 421L274 447L349 447L352 442L352 396L326 399L326 383C344.552 387.812 364.609 386 384 386L384 383C391.06 385.143 391.06 396.857 384 399L384 396L363 396L363.147 438.91L366 447L419 447C423.198 426.262 403.585 405.087 398 386L416 386L413 390C414.754 401.707 421.453 418.141 428 428L442 390L439 386L458 386L455 390L469 429L470 429L483 391L480 386L497 386L497 390C491.569 391.758 490.458 399.039 488.692 404C483.602 418.303 476.87 432.137 478 447L506 447C509.787 433.664 519.507 419.139 525.15 406C527.966 399.445 532.514 393.581 528 387L553 387L553 389L550 390L577 447L595 447C599.736 428.739 598 409.089 598 390L595 390L595 386C609.388 386 634.201 381.252 646.985 388.417C660.77 396.144 655.599 417.356 641 420C643.391 427.553 649.819 439.331 657 443L656 447L682 447L682 442L685 442C685 423.279 686.817 403.873 682 386L738 386L738 383L743 383C743 388.876 744.847 396.921 738 399L738 396L696 396L696 410C701.694 410 724.738 412.888 726 407C731.799 410.198 730 418.188 730 424L726 424L726 421L696 421L696 437C712.314 437 728.444 438.192 744 434L744 447L834 447L834 363L808 363L812 357L742 276L741 276L741 341C741 345.166 740.013 350.865 741.599 354.791C742.392 356.755 746.158 359.139 744.248 361.44C740.718 365.692 724.218 363 719 363C719.659 358.926 723.208 356.915 723.852 352.957C727.338 331.509 724 306.755 724 285C724 277.903 727.314 261.524 719 259L719 254C728.661 254 738.341 253.823 748 254.005C751.187 254.065 757.812 255.603 753 259C755.425 267.66 764.99 275.348 770.845 282C784.6 297.626 798.102 318.846 815 331L814.772 264.043L810 254L834 254L834 0L0 0z"/>
<path style="fill:#fafcfd; stroke:none;" d="M321 49L323 52L318 52L320 57L318 55L309 63L310 66L305 67L306 70L299 77C299.53 79.6489 299.428 80.6069 297 80L288.924 101.91L284 120C285.089 123.267 286.41 128.852 283 128L284 133L287 132L287 141L283 141L283 142L285 141L285 142L283 146L284 152L288 151L284 154L284 155C287.084 155 289.951 172.388 289 176L295 186L293 185L294 188L295 186L296 186L299 197C302.031 197 302.072 199.277 302 202L308 203L305 202L307 209L313 212L312 215L315 215L324 227L327 226L327 229L330 231L331 231L331.09 197L330.972 183.603L322 183L329 194C319.78 183.958 314.264 180.604 300 184C302.701 172.654 302.701 155.346 300 144L304 145L304 141L305 141C306.205 147.939 329.816 149.138 331.682 142.852C333.814 135.67 332 125.482 332 118L332 65L379 65L379 125C379 129.381 376.849 141.999 380.603 144.972C393.341 155.061 412.729 130.271 420 123C433 110.001 446.972 97.9639 460 84.9992C466.161 78.8681 473.61 68.6557 482 65.6026C492.847 61.6555 510.455 65 522 65C518.982 51.84 506.834 37.7466 497 29.0509C463.863 -0.250854 412.336 -7.87204 372 10.3117C360.35 15.5637 349.38 22.3674 340 31.0895C333.921 36.7427 328.832 46.0716 321 49z"/>
<path style="fill:#668fab; stroke:none;" d="M328 43L329 44L328 43z"/>
<path style="fill:#84a068; stroke:none;" d="M510 43L511 44L510 43M327 44L328 45L327 44M511 44L522 65L523 65C521.684 57.7086 516.05 49.3364 511 44M326 45L324 49L326 45z"/>
<path style="fill:#7b9e6a; stroke:none;" d="M513 46C516.255 54.5884 521.266 63.9655 531 64L531 63L513 46z"/>
<path style="fill:#668fab; stroke:none;" d="M516 48L517 49L516 48M517 49L518 50L517 49z"/>
<path style="fill:#84a068; stroke:none;" d="M320 52L323 52L321 50L320 52z"/>
<path style="fill:#668fab; stroke:none;" d="M518 50L519 51L518 50M519 51L520 52L519 51M520 52L521 53L520 52z"/>
<path style="fill:#84a068; stroke:none;" d="M312 60L320 57L320 53L312 60z"/>
<path style="fill:#668fab; stroke:none;" d="M521 53L522 54L521 53M522 54L523 55L522 54z"/>
<path style="fill:#fafcfd; stroke:none;" d="M315 55L316 56L315 55z"/>
<path style="fill:#84a068; stroke:none;" d="M318 57L312 62L308 67L306 72L312 67C303.638 91.7184 298.127 114.752 303 141L304 141C303.616 122.401 301.746 106.486 306.375 88C308.618 79.0427 318.813 65.5796 318 57z"/>
<path style="fill:#668fab; stroke:none;" d="M525 57L526 58L525 57M312 58L313 59L312 58M526 58L527 59L526 58z"/>
<path style="fill:#84a068; stroke:none;" d="M311 60L309 63L311 60z"/>
<path style="fill:#668fab; stroke:none;" d="M529 62L530 63L529 62z"/>
<path style="fill:#84a068; stroke:none;" d="M308 63L306 68L307 68L310 66L308 63z"/>
<path style="fill:#668fab; stroke:none;" d="M307 64L308 65L307 64M477 69L531 65C526.777 63.232 522.433 64.7665 518 64.9606C507.456 65.4224 484.199 60.3566 477 69M332 65L332 146C325.364 146 307.864 142.861 302.603 147.028C298.258 150.469 300.989 167.768 301 173C301.005 175.42 300.436 179.255 302.603 180.972C307.864 185.139 325.364 182 332 182L331 232L332 232C336.429 217.015 333 196.639 333 181L303 181L303 147L333 147L333 66L378 66L378 147C392.209 147 400.128 146.595 409 134C397.18 142.326 393.876 146 379 146L379 65L332 65z"/>
<path style="fill:#fafcfd; stroke:none;" d="M312 66L313 67L312 66z"/>
<path style="fill:#84a068; stroke:none;" d="M305.333 68.6667L305.667 69.3333L305.333 68.6667z"/>
<path style="fill:#668fab; stroke:none;" d="M476 69L477 70L476 69z"/>
<path style="fill:#84a068; stroke:none;" d="M303 70L301 75L303 70z"/>
<path style="fill:#668fab; stroke:none;" d="M475 70L476 71L475 70M509 230C505.05 221.527 496.436 214.69 490.039 208C479.896 197.392 470.394 186.034 460.715 175C456.255 169.915 446.39 162.603 444.636 156.004C443.004 149.863 459.881 138.741 464 134.91C480.568 119.504 497.637 104.58 514 88.9606C519.84 83.3858 528.499 72.3387 537 72C530.07 67.0693 517.962 83.2654 513 87.5756C495.582 102.707 479.418 119.293 462 134.424C457.054 138.721 444.074 147.349 442.832 154C441.677 160.184 453.986 169.748 457.715 174C473.41 191.894 489.614 216.23 509 230z"/>
<path style="fill:#84a068; stroke:none;" d="M473 71L464 81L473 71z"/>
<path style="fill:#668fab; stroke:none;" d="M474 71L475 72L474 71z"/>
<path style="fill:#7b9e6a; stroke:none;" d="M492 210L509 230C517.686 226.055 524.748 217.337 530.656 210.08C551.201 184.844 558.215 152.841 555.039 121C553.962 110.2 550.239 87.7745 541 81L542 79C539.265 76.2206 533.593 66.9694 530.212 75.0594C528.695 78.6902 531.712 84.4478 532.706 88C535.111 96.5894 536.767 106.071 536.985 115C537.866 151.053 520.783 188.07 492 210z"/>
<path style="fill:#668fab; stroke:none;" d="M473 72L474 73L473 72z"/>
<path style="fill:#84a068; stroke:none;" d="M305 73L304 76L305 73z"/>
<path style="fill:#668fab; stroke:none;" d="M472 73L473 74L472 73M471 74L472 75L471 74z"/>
<path style="fill:#84a068; stroke:none;" d="M300 75L301 78L300 75z"/>
<path style="fill:#668fab; stroke:none;" d="M470 75L471 76L470 75M469 76L470 77L469 76z"/>
<path style="fill:#84a068; stroke:none;" d="M527 76C547.677 120.048 530.925 181.207 491 209L491 210C500.191 206.875 507.739 196.567 513.37 189C530.011 166.637 540.245 136.07 536.424 108C535.251 99.3841 535.138 80.9608 527 76z"/>
<path style="fill:#668fab; stroke:none;" d="M539 76L540 77L539 76z"/>
<path style="fill:#84a068; stroke:none;" d="M302 77L300 83L298 83L298 87L299 87L304 77L302 77z"/>
<path style="fill:#668fab; stroke:none;" d="M468 77L469 78L468 77z"/>
<path style="fill:#fafcfd; stroke:none;" d="M490 209C501.191 205.866 510.983 191.368 516.946 182C536.15 151.832 542.832 110.46 528 77C519.651 80.8936 512.709 89.6633 506 95.9105C491.8 109.133 477.391 122.154 463 135.17C458.888 138.889 442.84 149.843 444.345 156C445.642 161.305 453.198 166.99 456.715 171C467.666 183.485 480.452 195.432 490 209z"/>
<path style="fill:#84a068; stroke:none;" d="M298 78L298 81L299 81L300 78L298 78z"/>
<path style="fill:#668fab; stroke:none;" d="M467 78L468 79L467 78z"/>
<path style="fill:#84a068; stroke:none;" d="M540 78L541 79L540 78z"/>
<path style="fill:#668fab; stroke:none;" d="M466 79L467 80L466 79M465 80L466 81L465 80z"/>
<path style="fill:#84a068; stroke:none;" d="M541 80L542 81L541 80z"/>
<path style="fill:#668fab; stroke:none;" d="M296 81L297 82L296 81z"/>
<path style="fill:#84a068; stroke:none;" d="M297 81L298 82L297 81z"/>
<path style="fill:#668fab; stroke:none;" d="M455 90L465 81L455 90z"/>
<path style="fill:#84a068; stroke:none;" d="M521 81L522 82L521 81M296 82L295 86L296 86L296 82M520 82L521 83L520 82z"/>
<path style="fill:#668fab; stroke:none;" d="M295 83L296 84L295 83z"/>
<path style="fill:#84a068; stroke:none;" d="M519 83L520 84L519 83z"/>
<path style="fill:#668fab; stroke:none;" d="M543 83L544 84L543 83z"/>
<path style="fill:#84a068; stroke:none;" d="M518 84L519 85L518 84M517 85L518 86L517 85z"/>
<path style="fill:#668fab; stroke:none;" d="M544 85L545 86L544 85z"/>
<path style="fill:#84a068; stroke:none;" d="M294 86L292 92L293 92L294 86M516 86L517 87L516 86z"/>
<path style="fill:#668fab; stroke:none;" d="M545 87L546 88L545 87z"/>
<path style="fill:#84a068; stroke:none;" d="M297 88L298 89L297 88z"/>
<path style="fill:#668fab; stroke:none;" d="M454 90L455 91L454 90z"/>
<path style="fill:#84a068; stroke:none;" d="M546 90L547 91L546 90z"/>
<path style="fill:#668fab; stroke:none;" d="M453 91L454 92L453 91z"/>
<path style="fill:#84a068; stroke:none;" d="M291 92L290 98L291 98L291 92M294 92L294 94L296 94L296 92L294 92M451 92L440 104L451 92z"/>
<path style="fill:#668fab; stroke:none;" d="M452 92L453 93L452 92M451 93L452 94L451 93z"/>
<path style="fill:#84a068; stroke:none;" d="M508 93L509 94L508 93z"/>
<path style="fill:#668fab; stroke:none;" d="M450 94L451 95L450 94z"/>
<path style="fill:#84a068; stroke:none;" d="M507 94L508 95L507 94z"/>
<path style="fill:#668fab; stroke:none;" d="M449 95L450 96L449 95z"/>
<path style="fill:#84a068; stroke:none;" d="M506 95L507 96L506 95z"/>
<path style="fill:#668fab; stroke:none;" d="M448 96L449 97L448 96z"/>
<path style="fill:#84a068; stroke:none;" d="M505 96L506 97L505 96M292 97L294 99L294 97L292 97z"/>
<path style="fill:#668fab; stroke:none;" d="M447 97L448 98L447 97z"/>
<path style="fill:#84a068; stroke:none;" d="M504 97L505 98L504 97M289 98L290 99L289 98z"/>
<path style="fill:#668fab; stroke:none;" d="M446 98L447 99L446 98z"/>
<path style="fill:#84a068; stroke:none;" d="M503 98L504 99L503 98z"/>
<path style="fill:#668fab; stroke:none;" d="M445 99L446 100L445 99z"/>
<path style="fill:#84a068; stroke:none;" d="M289 100L288 103L289 100M292 100L293 101L292 100z"/>
<path style="fill:#668fab; stroke:none;" d="M444 100L445 101L444 100M550.333 100.667L550.667 101.333L550.333 100.667M443 101L444 102L443 101M442 102L443 103L442 102z"/>
<path style="fill:#84a068; stroke:none;" d="M290 103L290 105L292 105L292 103L290 103z"/>
<path style="fill:#668fab; stroke:none;" d="M441 103L442 104L441 103M551.333 103.667L551.667 104.333L551.333 103.667z"/>
<path style="fill:#84a068; stroke:none;" d="M287 104L287 107L288 107L289 104L287 104z"/>
<path style="fill:#668fab; stroke:none;" d="M433 111L441 104L433 111z"/>
<path style="fill:#84a068; stroke:none;" d="M496 104L497 105L496 104M495 105L496 106L495 105M494 106L495 107L494 106z"/>
<path style="fill:#668fab; stroke:none;" d="M286 107L287 108L286 107z"/>
<path style="fill:#84a068; stroke:none;" d="M493 107L494 108L493 107z"/>
<path style="fill:#668fab; stroke:none;" d="M552 107L553 108L552 107z"/>
<path style="fill:#84a068; stroke:none;" d="M286 108L284 120L288 108L286 108M492 108L493 109L492 108M552 108L553 109L552 108M491 109L492 110L491 109M490 110L491 111L490 110z"/>
<path style="fill:#668fab; stroke:none;" d="M432 111L431 113L433 113L432 111z"/>
<path style="fill:#84a068; stroke:none;" d="M429 113L418 125L429 113z"/>
<path style="fill:#668fab; stroke:none;" d="M430 113L431 114L430 113M429 114L430 115L429 114z"/>
<path style="fill:#84a068; stroke:none;" d="M288.333 115.667L288.667 116.333L288.333 115.667z"/>
<path style="fill:#668fab; stroke:none;" d="M428 115L429 116L428 115M427 116L428 117L427 116z"/>
<path style="fill:#84a068; stroke:none;" d="M483 116L484 117L483 116z"/>
<path style="fill:#668fab; stroke:none;" d="M284 117L285 118L284 117M426 117L427 118L426 117z"/>
<path style="fill:#84a068; stroke:none;" d="M482 117L483 118L482 117z"/>
<path style="fill:#668fab; stroke:none;" d="M425 118L426 119L425 118z"/>
<path style="fill:#84a068; stroke:none;" d="M481 118L482 119L481 118z"/>
<path style="fill:#668fab; stroke:none;" d="M424 119L425 120L424 119z"/>
<path style="fill:#84a068; stroke:none;" d="M480 119L481 120L480 119M287.333 120.667L287.667 121.333L287.333 120.667z"/>
<path style="fill:#668fab; stroke:none;" d="M423 120L424 121L423 120z"/>
<path style="fill:#84a068; stroke:none;" d="M479 120L480 121L479 120M284 121L284 129L285 129L284 121z"/>
<path style="fill:#668fab; stroke:none;" d="M422 121L423 122L422 121z"/>
<path style="fill:#84a068; stroke:none;" d="M478 121L479 122L478 121z"/>
<path style="fill:#668fab; stroke:none;" d="M421 122L422 123L421 122M420 123L421 124L420 123M419 124L420 125L419 124M555 124L556 125L555 124M409 134L419 125L409 134z"/>
<path style="fill:#84a068; stroke:none;" d="M555.333 126.667L555.667 127.333L555.333 126.667M471 127L472 128L471 127M470 128L471 129L470 128M283 129L283 141L287 141L287 132L284 133L283 129M469 129L470 130L469 129M468 130L469 131L468 130M467 131L468 132L467 131M466 132L467 133L466 132M407 134L408 135L407 134M406 135L407 136L406 135M405 136L406 137L405 136M404 137L405 138L404 137M403 138L404 139L403 138M459 138L460 139L459 138M402 139L403 140L402 139M458 139L459 140L458 139M401 140L402 141L401 140M457 140L458 141L457 140M284 141L285 146L284 141M304 141L304 145L300 144L301 147L307 146L307 145L304 141M400 141L401 142L400 141M456 141L457 142L456 141M399 142L400 143L399 142M455 142L456 143L455 142M398 143L399 144L398 143M454 143L455 144L454 143M397 144L398 145L397 144M331 145L332 146L331 145M379 145L380 146L379 145M284 147L284 151L285 151L284 147z"/>
<path style="fill:#668fab; stroke:none;" d="M555 148L556 149L555 148z"/>
<path style="fill:#84a068; stroke:none;" d="M446 150L447 151L446 150M287 151L284 154L287 151M445 151L446 152L445 151M444 152L445 153L444 152M443 153L444 154L443 153M285 154L287 161L285 154z"/>
<path style="fill:#668fab; stroke:none;" d="M284 155L285 156L284 155z"/>
<path style="fill:#84a068; stroke:none;" d="M288.333 156.667L288.667 157.333L288.333 156.667M445 158L446 159L445 158M446 159L447 160L446 159M447 160L448 161L447 160M289.333 161.667L289.667 162.333L289.333 161.667M448 161L449 162L448 161z"/>
<path style="fill:#668fab; stroke:none;" d="M553 161L554 162L553 161z"/>
<path style="fill:#84a068; stroke:none;" d="M286 162L289 175L290 175L286 162M449 162L450 163L449 162M552.333 163.667L552.667 164.333L552.333 163.667z"/>
<path style="fill:#668fab; stroke:none;" d="M286 165L287 166L286 165z"/>
<path style="fill:#84a068; stroke:none;" d="M290.333 165.667L290.667 166.333L290.333 165.667z"/>
<path style="fill:#668fab; stroke:none;" d="M287 168L288 169L287 168z"/>
<path style="fill:#84a068; stroke:none;" d="M454 168L455 169L454 168M455 169L456 170L455 169z"/>
<path style="fill:#668fab; stroke:none;" d="M551 169L552 170L551 169z"/>
<path style="fill:#84a068; stroke:none;" d="M456 170L457 171L456 170M457 171L458 172L457 171M292 172L291 174L293 174L292 172M290 175L294 186L295 186L290 175M294.333 177.667L294.667 178.333L294.333 177.667M462 177L463 178L462 177M548 177L549 178L548 177M463 178L464 179L463 178M464 179L465 180L464 179M465 180L466 181L465 180M300 184L319.624 184.028L329 194L323 182C317.459 182 303.324 179.435 300 184z"/>
<path style="fill:#668fab; stroke:none;" d="M378 181L378 233C378 238.06 375.986 248.492 380 252C374.913 230.632 379 203.969 379 182L408.985 183.028L427.271 203L467 251C468.041 243.19 452.214 229.776 447.271 224L421.729 194C418.454 190.173 414.629 183.562 409.83 181.603C401.494 178.2 386.99 181 378 181z"/>
<path style="fill:#84a068; stroke:none;" d="M296 182L300 192L301 192L296 182M331 182L332 183L331 182z"/>
<path style="fill:#fafcfd; stroke:none;" d="M379 182L379 216C379 220.571 377.773 226.26 382 229L380 252L388 254L389 254L394 253C397.991 251.309 401.355 250.242 405 253L409 254L410 254L411 252L412 252L414 254C414 251.747 421.244 249.894 424 249.167C433.48 246.665 448.294 244.316 455 237C447.126 231.757 438.857 235.927 430 236L430 235L450 232C446.341 218.569 429.03 204.465 420 194C416.88 190.384 413.399 184.466 408.83 182.603C400.973 179.4 387.464 182 379 182z"/>
<path style="fill:#84a068; stroke:none;" d="M546 182L547 183L546 182M411 184L412 185L411 184M412 185L413 186L412 185M295 186L300 196L295 186M413 186L414 187L413 186M470 186L471 187L470 186M471 187L472 188L471 187z"/>
<path style="fill:#668fab; stroke:none;" d="M544 187L545 188L544 187z"/>
<path style="fill:#84a068; stroke:none;" d="M472 188L473 189L472 188M473 189L474 190L473 189M417 191L418 192L417 191M418 192L419 193L418 192M301 193L306 200L301 193M331 193L331 229L332 229C332 218.613 335.011 202.56 331 193M419 193L420 194L419 193z"/>
<path style="fill:#668fab; stroke:none;" d="M541 193L542 194L541 193z"/>
<path style="fill:#84a068; stroke:none;" d="M329.333 194.667L329.667 195.333L329.333 194.667M478 195L479 196L478 195M300 196L303 201L300 196M479 196L480 197L479 196z"/>
<path style="fill:#668fab; stroke:none;" d="M539 196L540 197L539 196z"/>
<path style="fill:#84a068; stroke:none;" d="M480 197L481 198L480 197M423 198L424 199L423 198M481 198L482 199L481 198M424 199L425 200L424 199M303 202L305 206L306 206L305 202L308 203L307 200L303 202M425 200L426 201L425 200M308 204L309 208L317 214L308 204M486 204L487 205L486 204M429 205L430 206L429 205M487 205L488 206L487 205M306 206L308 208L308 206L306 206M430 206L431 207L430 206M488 206L489 207L488 206z"/>
<path style="fill:#668fab; stroke:none;" d="M306 207L307 208L306 207z"/>
<path style="fill:#84a068; stroke:none;" d="M431 207L432 208L431 207M489 207L490 208L489 207M308.333 208.667L308.667 209.333L308.333 208.667z"/>
<path style="fill:#668fab; stroke:none;" d="M531 208L532 209L531 208z"/>
<path style="fill:#84a068; stroke:none;" d="M309 210L311 212L311 210L309 210M311 212L311 214L313 214L313 212L311 212M435 212L436 213L435 212M436 213L437 214L436 213z"/>
<path style="fill:#668fab; stroke:none;" d="M527 213L528 214L527 213z"/>
<path style="fill:#84a068; stroke:none;" d="M437 214L438 215L437 214z"/>
<path style="fill:#668fab; stroke:none;" d="M526 214L527 215L526 214z"/>
<path style="fill:#84a068; stroke:none;" d="M314 215L316 218L314 215M316 218L320 222L316 218M321 218L321 220L323 220L323 218L321 218M440 218L441 219L440 218M441 219L442 220L441 219M442 220L443 221L442 220M324 221L329 225L329 224L324 221M519 221L520 222L519 221M320 222L322 224L322 222L320 222M323.667 225.333L324.333 225.667L323.667 225.333M446 225L447 226L446 225z"/>
<path style="fill:#668fab; stroke:none;" d="M515 225L516 226L515 225z"/>
<path style="fill:#84a068; stroke:none;" d="M325 226L328 228L325 226M447 226L448 227L447 226M448 227L449 228L448 227M328 228L328 230L330 230L330 228L328 228M379 228L379 251L380 251C381.279 245.627 383.542 231.679 379 228M511 228L512 229L511 228z"/>
<path style="fill:#668fab; stroke:none;" d="M329 230L330 231L329 230z"/>
<path style="fill:#84a068; stroke:none;" d="M382 230L382 231L410 236L382 230M450 230C445.11 234.257 436.317 234.729 430 235L430 236C439.238 235.975 446.435 232.833 455 237C443.401 243.77 426.482 251.116 413 252L413 253C424.05 252.909 435.958 249.2 446 244.688C448.594 243.523 454.703 241.743 455.655 238.725C456.704 235.4 452.137 231.857 450 230M415 236L415 237L425 237L415 236z"/>
<path style="fill:#7b9e6a; stroke:none;" d="M420 252L420 253L467 251L457.961 240.291L445 244.688L420 252z"/>
<path style="fill:#84a068; stroke:none;" d="M380 252L380 253L388 254C385.767 250.902 383.467 250.761 380 252M389 254L409 252L405 253C402.092 249.672 397.472 251.147 394 253L389 254z"/>
<path style="fill:#fafcfd; stroke:none;" d="M382 252L383 253L382 252M397 252L397 253L404 253L397 252z"/>
<path style="fill:#84a068; stroke:none;" d="M410 252L410 254L412 254L412 252L410 252M457 252L458 253L457 252z"/>
<path style="fill:#fafcfd; stroke:none;" d="M386 253L387 254L386 253M392 253L393 254L392 253M396 253L397 254L396 253z"/>
<path style="fill:#668fab; stroke:none;" d="M424.667 253.333L425.333 253.667L424.667 253.333z"/>
<path style="fill:#84a068; stroke:none;" d="M450 253L451 254L450 253z"/>
<path style="fill:#668fab; stroke:none;" d="M451 253L452 254L451 253z"/>
<path style="fill:#fafcfd; stroke:none;" d="M1 254C1.34523 258.531 4.55802 261.548 4.94136 266.004C7.26321 292.993 7.26321 324.007 4.94136 350.996C4.55802 355.452 1.34523 358.469 1 363C6.69394 363 23.9181 365.918 28.1489 361.988C30.5214 359.784 25.5424 355.44 25.1474 352.957C23.7612 344.242 23.7759 331.72 25.1481 323.004C26.4625 314.655 40.8072 307.915 47 303C54.709 318.476 68.9553 332.189 79.3742 346C81.4271 348.721 84.4727 351.633 85.5764 354.91C86.335 357.163 84.4725 360.274 86.6219 361.987C90.7753 365.297 103.839 363.093 108.999 362.995C111.045 362.957 115.364 363.113 115.364 360.061C115.365 356.108 104.104 346.44 101.424 343C88.6409 326.593 71.2707 309.611 62 291L109 259L109 254L77 254L79 260L25 300L25.0586 265.005L28.1489 255.009L1 254M719 254L719 259C727.189 263.13 724 278.092 724 286C724 307.171 727.155 331.096 723.852 351.985C723.16 356.359 719.366 358.387 719 363C723.976 363 741.844 365.714 744.914 361.44C746.77 358.855 742.44 356.076 741.599 353.896C740.25 350.398 741 345.685 741 342L741 276L742 276L764.576 303L812 357L808 363L834 363L834 254L810 254L814.891 266.004L815 331L772.576 283L753 259C756.319 258.289 756.743 254.933 752.972 254.111C742.67 251.866 729.565 254 719 254z"/>
<path style="fill:#020609; stroke:none;" d="M832 260L832 325L833 357L834 357L834 260L832 260z"/>
<path style="fill:#fafcfd; stroke:none;" d="M617 274L617 279C623.123 282.376 621 291.884 621 298L621 341C621 348.137 622.459 354.56 616 359C618.628 365.537 630.052 363 636 363L686 363C691.807 363 699.802 361.2 703 367C710.8 365.698 710.8 345.302 703 344C700.433 350.981 692.223 349 686 349L637 349L637 324L676.982 324.148L687 329L687 306L682 306C679.251 310.986 674.105 310 669 310L637 310L637 288L700 288C700.979 290.945 704.383 293.226 705.682 288.851C706.749 285.258 707.411 273.651 704.988 270.623C704.433 269.93 688.488 274 685 274L617 274M333 317L334.549 337.824L341.129 334.599L358 334C357.989 347.967 344.011 349.942 332 349.999C311.723 350.096 290.305 337.071 294.465 314C299.038 288.631 327.705 281.243 349 290.337C353.283 292.167 361.786 302.364 364.919 302.364C369.744 302.364 373.613 286.782 374 283C348.675 279.159 326.574 264.759 301 279.338C269.861 297.09 270.424 346.01 305 359.536C321.634 366.043 344.955 364.76 361 357.218C365.596 355.058 374.633 351.359 376.034 345.869C376.744 343.089 374.268 339.841 374.055 336.985C373.802 333.602 377.268 322.951 375.2 321.028C372.903 318.893 366.874 320 364 320C353.089 320 343.359 317.778 333 317M399 337L394 335C392.252 338.738 384.204 353.715 387.071 357.2C388.248 358.63 399.035 357.684 402 358.667C419.921 364.603 455.264 368.977 469.471 352.815C472.555 349.305 474.526 344.644 474.907 340C477.428 309.269 444.392 312.946 423 309.869C416.757 308.971 404.466 306.759 405.503 298C407.526 280.91 439.809 286.184 450 290.479C454.092 292.204 459.861 302.553 463.292 296.847C465.208 293.661 470.935 281.94 468.227 278.622C466.81 276.886 456.877 277.31 454 276.435C436.693 271.17 407.05 268.222 394.789 285.015C392.378 288.317 391.085 291.991 390.44 296C385.6 326.061 421.226 323.745 441 326.579C447.326 327.486 460.304 328.962 459.663 338.001C459.236 344.012 452.968 346.78 448 348.279C436.369 351.787 423.489 350.089 412 346.845C406.802 345.377 399.714 343.048 399 337M125 274L125 279C132.623 281.408 130 293.549 130 300C130 316.675 131.76 334.433 129.891 350.996C129.356 355.739 125.38 358.177 125 363L148.149 361.991L145 343L145 279C148.471 278.394 150.743 275.001 145.887 274.148C139.288 272.99 131.7 274 125 274M167 274L167 279C174.053 281.141 172 289.985 172 296L172 341C172 347.395 173.569 354.687 167 358L167 363C173.562 363 189.619 366.274 191 358C184.229 355.51 186 348.072 186 342L186 295L187 295C199.459 319.022 226.445 334.55 240 358L235 358C236.447 366.668 256.962 363 264 363L264 358C257.431 354.687 259 347.395 259 341L259 296C259 289.985 256.947 281.141 264 279L264 274L240 274L240 279C246.626 281.011 245 288.273 245 294L245 339L244 339L226.87 318L193 279L198 279L198 274L167 274M491 274L491 279C498.053 281.141 496 289.985 496 296L496 342C496 348.072 497.771 355.51 491 358L491 363L515 363L515 358C508.229 355.51 510 348.072 510 342L510 298L511 298C515.679 313.907 527.44 329.354 535.22 344C536.765 346.908 540.673 357.743 544.892 357.079C548.84 356.457 552.527 346.187 554.22 343C562.018 328.319 572.314 313.623 578 298L579 298L578.852 351.985L574 363L598 363L598 358C592.2 354.802 594 346.807 594 341L594 295C594 289.356 592.379 282.099 598 279L598 274L569 274L569 279L573 279L545 332L544 332L516 279L520 274L491 274M256 386L256 390C261.216 392.876 260 398.705 260 404L260 442L256 447L274 447L271 421C277.932 421 285.078 420.491 291.985 421.058C294.373 421.254 297.528 423.629 299.772 423.098C305.281 421.793 302.202 408.868 297 408L297 411L271 411L271 396L310 396L310 399C315.201 398.097 318.267 385.725 312.656 383.747C309.993 382.808 302.48 385.998 299 386L256 386M326 383L326 399L352 396L352 442C342.587 445.129 361.22 449.928 365.11 445.987C366.49 444.589 363.018 436.514 363.001 434C362.913 421.335 363 408.666 363 396L384 396L384 399C391.321 397.778 391.321 384.222 384 383L384 386L326 383M738 383L738 386L682 386L685 442L682 442L682 447L744 447L744 434L696 437L696 421L726 421L726 424L730 424C730 418.611 732.177 409.05 726 407C721.929 413.279 703.021 410 696 410L696 396L738 396L738 399C745.21 397.797 743 388.711 743 383L738 383M94 428C87.6029 429.107 85.572 438.293 85 444C101.807 442.345 127.091 455.235 141.66 440.66C144.274 438.044 145.596 434.637 145.906 431C148.272 403.246 115.583 418 102.152 407.297C98.0896 404.06 100.023 399.497 104.044 397.303C109.825 394.149 116.889 395.047 123 396.503C128.887 397.906 132.415 403.084 138 404C138.928 400.599 143.409 392.897 140.936 389.654C139.637 387.949 132.267 387.771 129.996 387.157C117.51 383.781 96.6905 382.171 89.6883 396.004C78.7778 417.557 105.739 421.02 120 422.089C124.333 422.413 133.375 423.365 134.079 429.015C134.737 434.305 126.916 436.584 123 436.907C113.656 437.677 98.7193 437.594 94 428M192 385.439C167.885 389.237 154.21 418.754 172.326 437.815C180.814 446.746 195.393 448.373 207 446.7C230.28 443.344 242.437 415.962 227.471 397.015C219.418 386.82 204.362 383.492 192 385.439M398 386C401.404 406.781 421.523 424.659 419 447L437 447L434 442L448 403L464 442L462 447L477.115 445.972L477.831 436L489.424 403L497 390L497 386L480 386L483 391L470 429L469 429L455 390L458 386L439 386L442 390L428 428L413 390L416 386L398 386M528 387C531.433 394.106 527.646 399.218 524.719 406C520.548 415.666 516.54 425.438 512.135 434.999C510.182 439.239 506.738 442.334 506 447C509.023 447 529.416 447.411 520 442L525 430C532.737 430 548.049 427.053 554.787 431.028C558.37 433.142 559.987 438.551 562 442L558 447L577 447L568.258 430L550 390L553 389L553 387C545.933 384.911 535.068 384.911 528 387M595 386L595 390L598 390L595 447L613 446C608.918 437.334 609 430.655 609 421C614.1 421 621.156 419.741 625.96 421.603C633.726 424.613 640.378 439.32 640 447C645.389 447 654.95 449.177 657 443C650.04 437.628 644.697 427.908 641 420C655.541 418.501 661.19 396.054 647.957 388.417C635.209 381.061 609.446 386 595 386z"/>
<path style="fill:#020609; stroke:none;" d="M195 395.44C178.798 398.022 168.784 417.702 181.468 430.671C187.538 436.878 196.745 438.121 205 436.671C233.614 431.645 222.44 391.066 195 395.44M609 395L609 410C616.174 410 636.067 413.452 641.435 408.397C645.193 404.857 643.53 398.054 638.942 396.344C630.132 393.061 618.258 395 609 395M540 397L530 419L551 419L540 397M448 403L434 442L437 447L462 447L464 442C459.939 429.996 455.626 413.087 448 403M609 421L612 447L640 447C640.875 439.406 634.667 424.716 626.907 421.603C621.927 419.606 614.313 421 609 421M525 430L520 442L523 447L558 447L562 442C555.148 425.542 540.604 430 525 430z"/>
</svg>
