<svg id="svg" version="1.1" xmlns="http://www.w3.org/2000/svg" xmlns:xlink="http://www.w3.org/1999/xlink" width="400" height="214.3515470704411" viewBox="0, 0, 400,214.3515470704411"><g id="svgg"><path id="path0" d="M251.768 30.451 C 250.707 30.537,245.369 30.619,239.906 30.631 L 229.972 30.654 227.910 32.637 C 226.776 33.727,225.695 34.764,225.507 34.941 C 223.318 37.009,215.950 44.047,213.612 46.304 C 211.961 47.898,207.572 52.089,203.859 55.618 C 200.145 59.147,195.900 63.206,194.427 64.637 C 192.953 66.068,191.207 67.737,190.547 68.346 L 189.348 69.453 185.242 69.453 L 181.136 69.453 181.136 50.054 L 181.136 30.654 169.990 30.654 L 158.845 30.654 158.790 50.000 L 158.735 69.346 151.501 69.403 L 144.266 69.459 144.266 77.924 L 144.266 86.388 151.554 86.388 L 158.842 86.388 158.842 98.058 C 158.842 105.607,158.767 109.775,158.628 109.861 C 158.047 110.220,158.741 112.325,159.440 112.326 C 159.524 112.326,159.882 112.579,160.236 112.887 C 160.589 113.195,161.144 113.542,161.468 113.658 C 161.793 113.774,162.058 113.953,162.058 114.056 C 162.058 114.159,162.540 114.451,163.130 114.704 C 163.719 114.958,164.202 115.240,164.202 115.332 C 164.202 115.423,164.684 115.672,165.273 115.884 C 165.863 116.096,166.345 116.339,166.345 116.424 C 166.345 116.509,166.852 116.745,167.471 116.949 C 168.089 117.153,168.648 117.399,168.713 117.497 C 168.842 117.695,171.378 118.542,171.839 118.542 C 172.001 118.542,172.133 118.624,172.133 118.725 C 172.133 118.825,172.880 119.081,173.794 119.294 C 174.708 119.507,175.504 119.748,175.563 119.829 C 175.691 120.004,179.704 120.686,180.610 120.686 L 181.243 120.686 181.184 103.537 L 181.124 86.388 188.517 86.388 L 195.910 86.388 196.650 87.192 C 197.057 87.634,199.979 91.040,203.143 94.762 C 206.307 98.483,209.761 102.535,210.817 103.765 C 213.133 106.461,214.717 108.331,217.185 111.283 C 218.207 112.505,219.981 114.614,221.128 115.970 C 222.274 117.326,223.317 118.602,223.444 118.805 C 223.670 119.164,225.207 119.143,225.509 118.776 C 225.568 118.705,226.340 118.468,227.224 118.250 C 228.108 118.033,229.028 117.731,229.267 117.581 C 229.507 117.431,230.254 117.134,230.929 116.921 C 231.603 116.709,232.154 116.464,232.154 116.377 C 232.154 116.290,232.661 116.052,233.280 115.848 C 233.899 115.645,234.453 115.408,234.512 115.322 C 234.571 115.236,235.126 114.949,235.745 114.684 C 236.364 114.419,236.870 114.131,236.870 114.043 C 236.870 113.956,237.304 113.719,237.835 113.516 C 238.365 113.314,238.800 113.070,238.800 112.976 C 238.800 112.881,239.146 112.639,239.569 112.438 C 239.992 112.237,240.499 111.934,240.694 111.763 C 241.432 111.120,243.098 109.968,243.290 109.968 C 243.714 109.968,243.744 109.510,243.343 109.158 C 243.112 108.955,241.253 106.908,239.212 104.609 C 237.171 102.310,235.050 99.946,234.498 99.357 C 232.860 97.606,230.770 95.268,222.612 86.066 C 220.522 83.708,218.507 81.442,218.134 81.029 C 217.202 79.997,212.004 74.141,211.648 73.723 C 211.394 73.424,212.226 72.586,218.488 66.832 C 222.408 63.228,225.841 60.067,226.116 59.805 C 226.390 59.544,227.220 58.786,227.960 58.122 C 228.701 57.457,231.659 54.745,234.535 52.094 C 237.411 49.444,241.549 45.638,243.730 43.637 C 247.219 40.435,248.931 38.858,250.144 37.728 C 252.849 35.207,255.576 32.988,255.842 33.090 C 256.019 33.157,256.163 33.130,256.163 33.029 C 256.163 32.928,256.597 32.405,257.128 31.867 C 258.821 30.149,258.028 29.939,251.768 30.451 " stroke="none" fill="#0c4c74" fill-rule="evenodd"></path><path id="path1" d="M244.465 21.115 C 244.683 21.468,245.166 22.144,245.539 22.615 C 247.019 24.490,250.161 29.639,250.161 30.190 C 250.161 30.370,247.505 30.454,240.247 30.504 C 230.577 30.571,230.615 30.573,241.801 30.558 C 248.108 30.550,253.391 30.465,253.539 30.370 C 254.198 29.948,248.693 24.129,244.489 20.804 C 244.073 20.476,244.073 20.479,244.465 21.115 M164.362 30.600 C 167.457 30.634,172.521 30.634,175.616 30.600 C 178.711 30.567,176.179 30.539,169.989 30.539 C 163.800 30.539,161.267 30.567,164.362 30.600 M227.109 33.280 L 226.045 34.405 227.170 33.341 C 227.789 32.756,228.296 32.250,228.296 32.216 C 228.296 32.056,228.097 32.234,227.109 33.280 M254.070 34.252 L 252.727 35.477 253.398 37.406 C 256.992 47.736,257.564 60.420,254.857 69.775 C 254.000 72.739,253.085 75.578,252.717 76.420 C 251.115 80.084,250.597 81.174,249.582 83.011 C 246.857 87.946,243.111 92.779,239.121 96.508 C 237.013 98.478,236.784 98.685,235.951 99.371 L 235.153 100.029 239.142 104.516 C 241.336 106.984,243.218 109.096,243.325 109.209 C 243.545 109.442,244.352 109.021,245.460 108.095 C 246.682 107.073,252.085 101.724,252.088 101.533 C 252.089 101.433,252.355 101.090,252.680 100.771 C 253.004 100.452,253.510 99.875,253.805 99.490 C 254.100 99.104,254.519 98.579,254.736 98.322 C 254.954 98.066,255.281 97.567,255.463 97.213 C 255.645 96.860,255.888 96.510,256.002 96.436 C 256.218 96.296,256.875 95.258,257.681 93.783 C 257.939 93.312,258.219 92.878,258.304 92.819 C 258.388 92.760,258.636 92.326,258.853 91.854 C 259.071 91.383,259.305 90.949,259.374 90.890 C 259.592 90.703,260.822 88.040,261.230 86.870 C 261.446 86.251,261.689 85.745,261.769 85.745 C 261.850 85.745,262.090 85.070,262.302 84.244 C 262.515 83.419,262.756 82.744,262.837 82.744 C 262.919 82.744,263.159 81.996,263.371 81.083 C 263.582 80.169,263.823 79.373,263.905 79.313 C 263.988 79.254,264.269 77.855,264.530 76.205 C 264.790 74.555,265.087 73.040,265.189 72.838 C 265.826 71.575,265.794 57.068,265.154 56.842 C 265.043 56.802,264.952 56.458,264.952 56.075 C 264.952 55.171,264.142 50.677,263.894 50.204 C 263.788 50.004,263.534 49.164,263.328 48.339 C 263.122 47.513,262.892 46.790,262.817 46.731 C 262.742 46.672,262.501 46.021,262.282 45.284 C 262.062 44.547,261.817 43.944,261.736 43.944 C 261.656 43.944,261.479 43.573,261.343 43.119 C 261.061 42.180,259.691 39.264,258.708 37.513 C 258.344 36.865,257.910 36.079,257.743 35.767 C 257.577 35.456,257.298 35.082,257.123 34.937 C 256.949 34.793,256.806 34.580,256.806 34.466 C 256.806 34.116,255.936 33.011,255.666 33.019 C 255.527 33.023,254.808 33.578,254.070 34.252 M221.639 38.532 L 220.900 39.335 221.704 38.597 C 222.452 37.909,222.607 37.728,222.443 37.728 C 222.407 37.728,222.045 38.089,221.639 38.532 M217.137 42.819 L 216.399 43.623 217.203 42.884 C 217.951 42.196,218.105 42.015,217.941 42.015 C 217.905 42.015,217.544 42.377,217.137 42.819 M241.680 45.498 L 241.050 46.195 241.747 45.565 C 242.396 44.979,242.542 44.802,242.377 44.802 C 242.340 44.802,242.026 45.115,241.680 45.498 M211.576 48.124 C 211.055 48.655,210.677 49.089,210.736 49.089 C 210.795 49.089,211.269 48.655,211.790 48.124 C 212.311 47.594,212.688 47.160,212.629 47.160 C 212.571 47.160,212.096 47.594,211.576 48.124 M207.168 52.358 L 206.538 53.055 207.235 52.425 C 207.618 52.079,207.931 51.765,207.931 51.728 C 207.931 51.563,207.755 51.709,207.168 52.358 M202.346 56.967 L 201.608 57.771 202.412 57.032 C 203.160 56.344,203.314 56.163,203.150 56.163 C 203.114 56.163,202.753 56.525,202.346 56.967 M197.845 61.254 L 197.106 62.058 197.910 61.319 C 198.658 60.632,198.812 60.450,198.649 60.450 C 198.613 60.450,198.251 60.812,197.845 61.254 M222.816 62.862 L 222.186 63.558 222.883 62.929 C 223.533 62.342,223.678 62.165,223.513 62.165 C 223.476 62.165,223.162 62.479,222.816 62.862 M192.598 66.292 L 191.318 67.631 192.658 66.352 C 193.395 65.648,193.998 65.045,193.998 65.012 C 193.998 64.854,193.786 65.047,192.598 66.292 M185.316 69.239 L 181.029 69.360 185.250 69.407 C 187.884 69.436,189.521 69.373,189.603 69.239 C 189.676 69.121,189.706 69.046,189.670 69.071 C 189.633 69.097,187.674 69.173,185.316 69.239 M147.735 69.399 C 149.703 69.435,152.982 69.435,155.024 69.400 C 157.065 69.364,155.456 69.335,151.447 69.335 C 147.438 69.335,145.768 69.364,147.735 69.399 M212.312 72.508 L 211.683 73.205 212.379 72.575 C 212.763 72.229,213.076 71.915,213.076 71.878 C 213.076 71.713,212.899 71.859,212.312 72.508 M158.628 100.257 C 158.569 105.586,158.594 109.873,158.684 109.784 C 158.774 109.694,158.822 105.334,158.791 100.094 L 158.735 90.568 158.628 100.257 M217.796 114.058 C 213.501 116.407,206.523 118.916,202.303 119.628 C 200.277 119.971,200.338 120.189,202.518 120.399 C 207.402 120.867,220.091 120.444,220.490 119.799 C 220.553 119.697,220.787 119.614,221.010 119.614 C 221.668 119.614,223.580 119.162,223.579 119.007 C 223.578 118.928,222.825 117.985,221.905 116.912 C 220.985 115.838,219.946 114.613,219.597 114.190 L 218.963 113.420 217.796 114.058 " stroke="none" fill="#7c9c6c" fill-rule="evenodd"></path><path id="path2" d="M196.021 0.219 C 193.134 0.391,189.660 0.837,189.496 1.057 C 189.437 1.136,188.424 1.376,187.245 1.591 C 186.066 1.806,184.716 2.151,184.244 2.357 C 183.773 2.564,182.880 2.851,182.262 2.995 C 181.643 3.140,181.136 3.322,181.136 3.400 C 181.136 3.478,180.509 3.722,179.743 3.941 C 178.976 4.161,178.349 4.416,178.349 4.508 C 178.349 4.601,177.810 4.846,177.150 5.053 C 176.490 5.261,175.839 5.537,175.703 5.667 C 175.567 5.796,175.046 6.084,174.544 6.306 C 174.043 6.529,173.633 6.786,173.633 6.878 C 173.633 6.970,173.416 7.112,173.151 7.193 C 172.599 7.362,170.204 8.759,169.882 9.099 C 169.764 9.223,169.306 9.516,168.864 9.749 C 168.422 9.982,168.060 10.226,168.060 10.292 C 168.060 10.358,167.747 10.594,167.363 10.816 C 166.980 11.039,166.458 11.421,166.203 11.666 C 165.948 11.911,165.417 12.370,165.024 12.687 C 163.541 13.879,163.174 14.218,160.718 16.656 C 159.333 18.032,158.199 19.261,158.199 19.388 C 158.199 19.514,158.006 19.739,157.771 19.886 C 157.535 20.033,157.342 20.286,157.342 20.448 C 157.342 20.610,156.767 21.516,156.064 22.462 C 146.530 35.296,142.843 51.644,146.013 67.042 L 146.465 69.239 152.546 69.239 L 158.626 69.239 158.681 49.786 L 158.735 30.332 169.868 30.277 C 178.633 30.233,181.038 30.279,181.173 30.491 C 181.267 30.640,181.345 39.419,181.347 50.000 L 181.350 69.239 185.325 69.239 L 189.299 69.239 191.809 66.837 C 193.190 65.515,195.626 63.176,197.223 61.638 C 199.683 59.269,206.839 52.455,207.589 51.767 C 207.718 51.648,209.079 50.346,210.613 48.873 C 220.061 39.801,223.680 36.339,225.295 34.828 C 226.297 33.890,227.213 33.015,227.331 32.883 C 227.449 32.750,228.148 32.098,228.883 31.434 L 230.221 30.225 240.084 30.225 C 245.508 30.225,249.946 30.172,249.946 30.108 C 249.946 29.640,247.264 25.358,245.304 22.698 C 244.556 21.682,243.944 20.694,243.944 20.502 C 243.944 20.311,243.751 20.033,243.516 19.886 C 243.280 19.739,243.087 19.506,243.087 19.369 C 243.087 19.042,239.132 15.072,237.085 13.344 C 236.200 12.597,235.284 11.814,235.048 11.604 C 234.812 11.394,234.306 11.040,233.923 10.817 C 233.540 10.594,233.226 10.358,233.226 10.292 C 233.226 10.226,232.864 9.983,232.422 9.751 C 231.980 9.519,231.548 9.220,231.463 9.087 C 231.377 8.954,231.015 8.724,230.659 8.577 C 230.302 8.429,230.011 8.235,230.011 8.146 C 230.011 8.057,229.506 7.767,228.889 7.502 C 228.272 7.236,227.669 6.902,227.549 6.758 C 227.429 6.614,226.994 6.366,226.581 6.205 C 226.168 6.044,225.719 5.805,225.583 5.672 C 225.447 5.539,224.796 5.261,224.136 5.053 C 223.477 4.846,222.937 4.604,222.937 4.516 C 222.937 4.427,222.527 4.233,222.026 4.085 C 221.525 3.936,220.729 3.644,220.257 3.435 C 219.786 3.226,218.893 2.928,218.274 2.773 C 217.655 2.618,217.149 2.424,217.149 2.342 C 217.149 2.260,215.967 1.968,214.523 1.694 C 213.079 1.420,211.849 1.133,211.790 1.056 C 211.271 0.383,201.756 -0.123,196.021 0.219 M252.269 35.981 C 252.230 36.082,250.895 37.350,249.303 38.798 C 247.712 40.247,245.831 41.977,245.123 42.644 C 243.685 44.000,238.323 48.946,236.857 50.269 C 234.880 52.054,219.987 65.725,218.757 66.885 C 218.049 67.551,216.188 69.282,214.621 70.730 C 213.054 72.178,211.800 73.440,211.834 73.533 C 211.884 73.667,215.582 77.871,218.320 80.906 C 218.560 81.172,219.816 82.587,221.112 84.050 C 222.407 85.513,223.519 86.758,223.583 86.817 C 223.647 86.876,224.506 87.840,225.493 88.960 C 226.479 90.080,227.682 91.438,228.166 91.978 C 228.650 92.517,230.107 94.154,231.404 95.614 C 232.701 97.075,234.065 98.607,234.435 99.020 L 235.108 99.769 236.150 98.923 C 251.794 86.226,259.298 64.842,255.180 44.695 C 254.222 40.010,252.596 35.141,252.269 35.981 M154.342 86.863 C 154.343 87.160,157.488 91.460,158.040 91.918 C 158.428 92.240,158.722 90.088,158.591 87.889 L 158.521 86.710 156.431 86.648 C 154.838 86.601,154.341 86.652,154.342 86.863 M181.402 97.476 L 181.458 108.350 183.173 108.934 C 192.605 112.145,206.705 112.601,214.724 109.955 C 215.661 109.645,215.831 109.932,212.219 105.749 C 210.509 103.769,207.434 100.171,205.385 97.752 C 203.336 95.334,200.348 91.835,198.745 89.979 L 195.831 86.602 188.589 86.602 L 181.347 86.602 181.402 97.476 M0.000 122.202 C 0.000 122.900,0.413 123.473,0.916 123.473 C 1.970 123.473,1.930 122.529,1.924 147.177 C 1.919 172.438,2.001 170.921,0.643 171.098 C 0.179 171.159,0.098 171.291,0.041 172.079 L -0.025 172.990 6.538 172.990 L 13.101 172.990 13.035 172.085 C 12.971 171.213,12.937 171.173,12.099 171.009 C 10.734 170.740,10.718 170.628,10.718 161.010 C 10.718 152.818,10.795 151.768,11.392 151.768 C 11.578 151.768,12.788 150.907,14.046 149.878 C 14.167 149.779,14.552 149.512,14.900 149.286 C 15.582 148.843,15.873 148.619,16.745 147.861 C 17.385 147.305,17.969 146.901,18.435 146.690 C 18.612 146.610,18.883 146.370,19.037 146.156 C 19.191 145.942,19.451 145.766,19.614 145.766 C 19.778 145.766,20.039 145.598,20.195 145.391 C 20.472 145.024,21.021 144.622,21.637 144.333 C 21.822 144.247,22.036 144.344,22.173 144.576 C 22.298 144.788,22.713 145.360,23.095 145.847 C 24.466 147.594,24.764 147.971,25.129 148.419 C 25.333 148.670,25.960 149.500,26.522 150.265 C 27.085 151.030,27.690 151.826,27.867 152.034 C 28.044 152.242,28.335 152.582,28.513 152.790 C 28.692 152.998,29.075 153.504,29.365 153.915 C 29.655 154.326,30.063 154.849,30.273 155.078 C 30.482 155.306,30.654 155.558,30.654 155.636 C 30.654 155.715,30.901 156.058,31.203 156.400 C 32.266 157.600,32.493 157.883,32.872 158.482 C 33.083 158.814,33.396 159.248,33.568 159.446 C 34.783 160.843,35.155 161.317,35.155 161.463 C 35.155 161.554,35.324 161.801,35.531 162.012 C 35.737 162.222,36.340 162.967,36.870 163.666 C 37.401 164.365,38.004 165.109,38.210 165.319 C 38.416 165.530,38.585 165.777,38.585 165.869 C 38.585 165.960,38.850 166.342,39.175 166.717 C 41.654 169.586,42.325 170.957,41.318 171.100 C 40.917 171.157,40.825 171.322,40.770 172.079 L 40.704 172.990 47.576 172.990 L 54.448 172.990 54.448 172.143 C 54.448 171.368,54.388 171.279,53.744 171.101 C 53.118 170.929,51.661 169.736,51.661 169.397 C 51.661 169.325,51.275 168.809,50.804 168.250 C 50.332 167.690,49.946 167.133,49.946 167.011 C 49.946 166.889,49.753 166.686,49.518 166.559 C 49.282 166.433,49.089 166.191,49.089 166.021 C 49.089 165.851,48.848 165.554,48.553 165.361 C 48.258 165.168,48.017 164.917,48.017 164.803 C 48.017 164.689,47.438 163.888,46.731 163.023 C 46.024 162.157,45.445 161.356,45.445 161.242 C 45.445 161.128,45.204 160.877,44.909 160.684 C 44.614 160.491,44.373 160.191,44.373 160.018 C 44.373 159.845,44.180 159.583,43.944 159.436 C 43.708 159.289,43.516 159.088,43.516 158.990 C 43.516 158.892,43.130 158.355,42.658 157.795 C 42.186 157.236,41.801 156.717,41.801 156.641 C 41.801 156.512,41.280 155.893,40.298 154.854 C 40.063 154.606,39.871 154.298,39.871 154.170 C 39.871 154.041,39.694 153.810,39.477 153.656 C 39.260 153.502,38.974 153.173,38.843 152.925 C 38.711 152.677,38.259 152.050,37.837 151.532 C 37.415 151.014,36.904 150.368,36.702 150.097 C 36.500 149.827,36.093 149.332,35.798 148.998 C 35.504 148.664,34.880 147.848,34.412 147.186 C 33.944 146.523,33.506 145.981,33.440 145.981 C 33.373 145.981,33.135 145.667,32.911 145.284 C 32.686 144.901,32.395 144.491,32.263 144.373 C 32.132 144.255,31.595 143.583,31.071 142.880 C 30.547 142.177,29.996 141.453,29.846 141.272 C 29.697 141.091,29.264 140.567,28.885 140.107 C 28.227 139.311,28.214 139.260,28.607 139.035 C 28.833 138.906,29.229 138.583,29.486 138.317 C 29.742 138.052,30.057 137.835,30.184 137.835 C 30.311 137.835,30.543 137.666,30.699 137.460 C 31.003 137.056,31.562 136.666,32.286 136.350 C 32.535 136.242,32.797 136.001,32.869 135.815 C 32.940 135.629,33.141 135.477,33.314 135.477 C 33.488 135.477,33.757 135.306,33.911 135.098 C 34.065 134.890,34.480 134.534,34.834 134.309 C 35.188 134.083,35.607 133.769,35.765 133.611 C 35.924 133.453,36.334 133.178,36.676 133.001 C 37.019 132.824,37.299 132.592,37.299 132.485 C 37.299 132.378,37.470 132.236,37.679 132.170 C 37.888 132.104,38.367 131.784,38.743 131.459 C 39.120 131.134,39.648 130.703,39.918 130.501 C 40.187 130.298,40.911 129.744,41.526 129.268 C 42.142 128.792,42.741 128.403,42.859 128.403 C 42.976 128.403,43.175 128.210,43.301 127.974 C 43.427 127.738,43.634 127.546,43.760 127.546 C 43.887 127.546,44.486 127.158,45.093 126.684 C 45.699 126.210,46.418 125.656,46.691 125.452 C 46.964 125.247,47.370 124.916,47.593 124.714 C 48.184 124.182,49.645 123.473,50.152 123.473 C 50.393 123.473,50.589 123.376,50.589 123.258 C 50.589 123.140,50.782 123.044,51.018 123.044 C 51.365 123.044,51.447 122.901,51.447 122.294 L 51.447 121.543 43.931 121.543 L 36.416 121.543 36.482 122.347 C 36.531 122.938,36.677 123.207,37.031 123.363 C 37.843 123.719,37.581 124.221,35.959 125.420 C 35.105 126.052,34.277 126.692,34.120 126.844 C 33.964 126.996,33.626 127.229,33.370 127.362 C 32.905 127.605,32.757 127.719,31.701 128.656 C 31.071 129.214,30.489 129.621,30.011 129.837 C 29.834 129.917,29.563 130.158,29.409 130.372 C 29.255 130.586,28.991 130.761,28.821 130.761 C 28.652 130.761,28.393 130.954,28.246 131.190 C 28.099 131.426,27.895 131.618,27.793 131.618 C 27.628 131.618,25.941 132.841,25.077 133.588 C 24.898 133.743,24.482 134.044,24.151 134.259 C 23.821 134.473,23.365 134.811,23.137 135.009 C 22.909 135.207,22.550 135.518,22.339 135.699 C 22.129 135.880,21.574 136.262,21.107 136.547 C 20.640 136.832,20.131 137.238,19.977 137.450 C 19.823 137.662,19.561 137.835,19.395 137.835 C 19.229 137.835,18.990 138.028,18.864 138.264 C 18.738 138.499,18.533 138.692,18.410 138.692 C 18.287 138.692,17.774 139.030,17.270 139.443 C 16.767 139.855,16.247 140.193,16.116 140.193 C 15.985 140.193,15.775 140.386,15.648 140.622 C 15.522 140.857,15.295 141.050,15.144 141.050 C 14.992 141.050,14.665 141.267,14.416 141.533 C 14.167 141.798,13.462 142.353,12.849 142.765 C 12.236 143.178,11.554 143.684,11.333 143.891 C 11.113 144.097,10.884 144.266,10.825 144.266 C 10.599 144.266,10.718 125.038,10.949 124.376 C 11.114 123.902,11.358 123.675,11.806 123.576 C 12.151 123.501,12.433 123.350,12.433 123.241 C 12.433 123.133,12.578 123.044,12.755 123.044 C 12.979 123.044,13.076 122.818,13.076 122.294 L 13.076 121.543 6.538 121.543 L 0.000 121.543 0.000 122.202 M344.482 122.240 C 344.483 122.924,345.117 123.473,345.904 123.473 C 346.855 123.473,346.838 123.055,346.838 147.111 C 346.838 172.512,346.940 170.887,345.334 171.144 C 344.471 171.282,344.456 171.299,344.521 172.084 L 344.587 172.883 350.656 172.940 L 356.724 172.997 356.658 172.084 C 356.601 171.305,356.512 171.154,356.056 171.062 C 355.128 170.875,354.747 170.519,354.546 169.651 C 354.130 167.855,354.293 130.498,354.716 130.932 C 355.082 131.308,355.598 131.893,357.853 134.488 C 358.456 135.182,359.263 136.057,359.646 136.432 C 360.029 136.808,360.343 137.191,360.343 137.284 C 360.343 137.377,360.777 137.881,361.308 138.404 C 361.838 138.927,362.272 139.427,362.272 139.516 C 362.272 139.604,362.755 140.131,363.344 140.687 C 363.934 141.244,364.416 141.760,364.416 141.835 C 364.416 141.909,364.826 142.420,365.327 142.969 C 365.828 143.518,366.672 144.476,367.203 145.099 C 367.733 145.721,368.457 146.551,368.810 146.944 C 369.164 147.337,369.984 148.266,370.632 149.008 C 371.281 149.750,372.270 150.836,372.830 151.421 C 373.390 152.006,373.848 152.553,373.848 152.637 C 373.848 152.790,374.776 153.832,376.535 155.653 C 377.061 156.198,377.492 156.724,377.492 156.821 C 377.492 156.919,377.974 157.451,378.564 158.005 C 379.153 158.558,379.636 159.084,379.636 159.172 C 379.636 159.261,380.046 159.783,380.547 160.333 C 381.048 160.882,381.918 161.857,382.482 162.499 C 383.485 163.642,384.519 164.816,386.113 166.621 C 386.552 167.118,387.275 167.924,387.721 168.412 C 389.286 170.125,389.585 171.058,388.573 171.064 C 387.403 171.071,387.112 171.289,387.181 172.107 L 387.245 172.883 393.635 172.940 L 400.025 172.997 399.959 172.083 C 399.900 171.265,399.831 171.161,399.306 171.101 C 398.002 170.951,398.071 172.286,398.071 147.145 C 398.071 122.248,398.016 123.473,399.121 123.473 C 399.590 123.473,400.000 122.880,400.000 122.202 L 400.000 121.543 393.998 121.543 L 387.996 121.543 387.996 122.294 C 387.996 122.818,388.093 123.044,388.317 123.044 C 388.494 123.044,388.639 123.140,388.639 123.258 C 388.639 123.376,388.878 123.473,389.170 123.473 C 390.397 123.473,390.361 122.896,390.301 141.678 L 390.247 158.884 389.711 158.357 C 389.416 158.067,388.644 157.220,387.996 156.476 C 387.347 155.731,386.470 154.729,386.047 154.249 C 385.623 153.769,385.045 153.096,384.761 152.753 C 384.477 152.411,383.979 151.888,383.655 151.592 C 383.331 151.297,383.065 150.973,383.065 150.874 C 383.065 150.775,382.631 150.266,382.101 149.743 C 381.570 149.220,381.136 148.729,381.136 148.651 C 381.136 148.573,380.809 148.157,380.408 147.727 C 378.679 145.870,377.473 144.530,376.810 143.726 C 376.419 143.252,375.917 142.661,375.695 142.414 C 375.473 142.167,374.991 141.631,374.623 141.222 C 374.256 140.814,373.473 139.922,372.883 139.241 C 372.294 138.560,371.353 137.517,370.793 136.925 C 370.233 136.332,369.775 135.777,369.775 135.690 C 369.775 135.603,369.389 135.158,368.918 134.701 C 368.446 134.243,368.060 133.801,368.060 133.718 C 368.060 133.636,367.626 133.140,367.095 132.617 C 366.565 132.094,366.131 131.595,366.131 131.508 C 366.131 131.422,365.648 130.883,365.059 130.312 C 364.469 129.741,363.987 129.190,363.987 129.088 C 363.987 128.986,363.722 128.662,363.398 128.368 C 363.073 128.074,362.455 127.407,362.022 126.885 C 361.590 126.364,360.939 125.607,360.575 125.203 C 359.837 124.382,359.688 123.477,360.289 123.466 C 360.938 123.454,361.415 122.925,361.415 122.216 L 361.415 121.543 352.947 121.543 L 344.480 121.543 344.482 122.240 M335.687 129.207 C 335.684 129.531,335.497 130.038,335.270 130.332 L 334.858 130.868 315.125 130.925 L 295.391 130.982 295.391 131.808 C 295.391 132.587,295.435 132.641,296.144 132.756 C 297.762 133.019,297.642 131.487,297.642 151.891 C 297.642 172.331,297.758 170.851,296.127 171.157 C 295.436 171.286,295.391 171.347,295.391 172.143 L 295.391 172.990 315.616 172.990 C 337.890 172.990,336.763 172.923,336.763 174.248 C 336.763 174.639,336.888 174.705,337.621 174.705 L 338.478 174.705 338.478 169.668 L 338.478 164.630 337.621 164.630 C 336.803 164.630,336.763 164.661,336.763 165.302 C 336.763 165.747,336.578 166.146,336.216 166.481 L 335.669 166.988 319.925 166.988 L 304.180 166.988 304.180 160.557 L 304.180 154.126 314.898 154.126 C 321.901 154.126,325.616 154.201,325.616 154.341 C 325.616 154.459,325.806 154.555,326.037 154.555 C 326.528 154.555,326.902 155.152,326.902 155.934 C 326.902 156.420,326.990 156.484,327.653 156.484 L 328.403 156.484 328.403 151.340 L 328.403 146.195 327.680 146.195 C 327.002 146.195,326.949 146.248,326.819 147.059 C 326.612 148.352,326.736 148.339,314.884 148.339 L 304.180 148.339 304.180 142.551 L 304.180 136.763 319.429 136.763 L 334.678 136.763 335.184 137.310 C 335.463 137.611,335.691 138.093,335.691 138.382 C 335.691 138.851,335.782 138.907,336.549 138.907 L 337.406 138.907 337.406 133.762 L 337.406 128.617 336.549 128.617 C 335.757 128.617,335.691 128.663,335.687 129.207 M151.233 130.899 C 150.173 131.080,149.256 131.297,149.197 131.380 C 149.138 131.464,148.655 131.659,148.124 131.814 C 146.376 132.324,142.384 134.397,142.058 134.964 C 141.964 135.128,141.781 135.263,141.652 135.263 C 141.195 135.263,137.406 139.030,137.406 139.484 C 137.406 139.613,137.265 139.773,137.091 139.839 C 136.918 139.906,136.634 140.302,136.459 140.720 C 136.285 141.137,136.060 141.479,135.959 141.479 C 135.858 141.479,135.603 141.961,135.391 142.551 C 135.179 143.140,134.929 143.623,134.836 143.623 C 134.743 143.623,134.494 144.274,134.281 145.070 C 134.069 145.865,133.828 146.565,133.746 146.624 C 132.984 147.167,132.999 157.771,133.761 157.771 C 133.847 157.771,134.042 158.357,134.195 159.075 C 134.347 159.792,134.585 160.492,134.724 160.631 C 134.862 160.770,135.038 161.130,135.114 161.433 C 135.190 161.735,135.495 162.341,135.793 162.780 C 136.091 163.218,136.334 163.632,136.334 163.698 C 136.334 163.885,137.968 165.938,138.782 166.774 C 140.101 168.129,142.881 170.117,143.766 170.339 C 144.041 170.408,144.266 170.539,144.266 170.629 C 144.266 170.720,144.893 170.973,145.659 171.193 C 146.426 171.412,147.053 171.656,147.053 171.735 C 147.053 171.814,147.993 172.040,149.143 172.236 C 150.292 172.433,151.464 172.707,151.748 172.846 C 152.450 173.189,163.067 173.198,163.794 172.855 C 164.077 172.721,165.224 172.449,166.343 172.249 C 167.462 172.049,168.475 171.813,168.594 171.725 C 168.713 171.637,169.413 171.388,170.150 171.172 C 170.887 170.956,171.490 170.713,171.490 170.633 C 171.490 170.552,171.887 170.356,172.373 170.195 C 172.858 170.035,173.664 169.645,174.164 169.328 C 174.664 169.011,175.270 168.689,175.512 168.612 C 175.754 168.535,176.006 168.331,176.072 168.159 C 176.138 167.987,176.335 167.846,176.508 167.846 C 176.682 167.846,176.951 167.675,177.105 167.467 C 177.259 167.258,177.646 166.921,177.965 166.718 C 179.379 165.815,180.007 164.100,179.019 163.842 C 178.301 163.654,178.135 162.815,178.135 159.382 C 178.135 155.825,178.298 154.984,178.987 154.984 C 179.359 154.984,179.421 154.845,179.421 154.019 L 179.421 153.055 170.857 153.055 C 161.794 153.055,161.343 153.009,161.106 152.063 C 161.002 151.649,160.838 151.554,160.232 151.554 L 159.486 151.554 159.486 156.377 L 159.486 161.200 160.226 161.200 C 160.898 161.200,160.979 161.133,161.102 160.476 C 161.188 160.019,161.429 159.650,161.755 159.475 C 162.040 159.323,162.272 159.119,162.272 159.021 C 162.272 158.923,164.346 158.842,166.881 158.842 L 171.490 158.842 171.484 161.468 L 171.479 164.094 170.466 164.765 C 169.909 165.134,169.165 165.504,168.812 165.586 C 168.460 165.669,168.115 165.827,168.046 165.939 C 167.977 166.051,166.867 166.338,165.579 166.577 C 164.291 166.816,163.005 167.127,162.722 167.268 C 162.037 167.609,154.189 167.623,153.462 167.284 C 153.179 167.152,152.079 166.829,151.018 166.567 C 149.957 166.305,149.041 166.018,148.982 165.930 C 148.923 165.842,148.416 165.597,147.856 165.385 C 147.296 165.174,146.838 164.939,146.838 164.864 C 146.838 164.789,146.479 164.537,146.041 164.304 C 145.110 163.809,142.952 161.665,142.282 160.568 C 142.026 160.150,141.707 159.694,141.573 159.557 C 141.440 159.419,141.202 158.840,141.045 158.270 C 140.889 157.701,140.693 157.186,140.611 157.128 C 139.791 156.539,139.796 148.690,140.617 147.588 C 140.705 147.471,140.948 146.819,141.157 146.141 C 141.367 145.464,141.610 144.909,141.699 144.909 C 141.788 144.909,142.065 144.474,142.315 143.942 C 142.788 142.936,142.865 142.839,144.532 141.128 C 145.967 139.657,146.305 139.382,147.328 138.858 C 147.825 138.603,148.280 138.332,148.339 138.256 C 148.398 138.179,148.928 137.938,149.518 137.719 C 150.107 137.500,150.641 137.248,150.704 137.159 C 151.414 136.147,163.711 136.167,164.416 137.181 C 164.475 137.265,165.222 137.514,166.077 137.733 C 166.932 137.953,167.631 138.197,167.631 138.276 C 167.631 138.355,168.089 138.591,168.650 138.801 C 169.210 139.011,169.840 139.362,170.051 139.581 C 170.262 139.800,170.559 139.979,170.710 139.979 C 171.398 139.979,173.406 142.350,173.274 143.007 C 173.180 143.478,173.251 143.719,173.551 143.946 C 174.092 144.356,174.920 144.354,174.920 143.944 C 174.920 143.767,175.005 143.623,175.110 143.623 C 175.214 143.623,175.526 142.923,175.803 142.069 C 176.080 141.214,176.413 140.402,176.545 140.264 C 176.676 140.126,176.907 139.571,177.058 139.031 C 177.210 138.491,177.408 138.049,177.500 138.049 C 177.970 138.049,178.437 135.642,178.025 135.341 C 177.560 135.001,176.635 134.949,176.635 135.263 C 176.635 135.380,176.408 135.477,176.131 135.477 C 175.468 135.477,174.277 135.056,174.277 134.822 C 174.277 134.720,173.794 134.466,173.205 134.256 C 172.615 134.047,172.133 133.817,172.133 133.745 C 172.133 133.673,171.434 133.383,170.579 133.099 C 169.724 132.815,168.976 132.524,168.917 132.451 C 168.859 132.379,168.087 132.138,167.203 131.917 C 166.318 131.696,165.547 131.458,165.488 131.388 C 164.874 130.664,154.658 130.313,151.233 130.899 M200.643 130.647 C 200.466 130.689,199.477 130.838,198.446 130.979 C 197.414 131.119,196.570 131.298,196.570 131.375 C 196.570 131.453,195.943 131.696,195.177 131.916 C 194.411 132.135,193.783 132.376,193.783 132.452 C 193.783 132.527,193.374 132.766,192.872 132.982 C 192.371 133.199,191.817 133.508,191.640 133.669 C 191.463 133.831,190.860 134.370,190.300 134.868 C 189.740 135.365,189.282 135.899,189.282 136.053 C 189.282 136.208,189.193 136.334,189.084 136.334 C 188.715 136.334,187.537 138.791,187.233 140.193 C 186.072 145.554,187.946 150.771,191.429 151.877 C 191.663 151.951,191.854 152.099,191.854 152.206 C 191.854 152.312,192.409 152.560,193.087 152.756 C 193.765 152.951,194.371 153.191,194.434 153.289 C 194.497 153.386,195.510 153.624,196.685 153.816 C 197.860 154.009,198.981 154.250,199.178 154.351 C 199.374 154.453,201.207 154.638,203.251 154.763 C 208.530 155.085,212.522 155.446,212.647 155.613 C 212.706 155.691,213.695 155.930,214.845 156.143 C 215.994 156.356,216.935 156.603,216.935 156.692 C 216.935 156.782,217.374 157.023,217.911 157.228 C 218.889 157.601,219.936 158.509,219.936 158.983 C 219.936 159.122,220.056 159.276,220.204 159.325 C 220.663 159.479,220.567 162.892,220.096 163.155 C 219.890 163.271,219.721 163.476,219.721 163.610 C 219.721 163.942,218.043 165.488,217.682 165.488 C 217.524 165.488,217.266 165.612,217.111 165.765 C 216.722 166.145,215.779 166.486,214.255 166.797 C 213.548 166.941,212.834 167.164,212.668 167.292 C 212.294 167.581,202.661 167.614,202.036 167.328 C 201.801 167.220,200.452 166.911,199.039 166.642 C 197.626 166.373,196.437 166.051,196.395 165.927 C 196.354 165.803,196.195 165.702,196.041 165.702 C 195.661 165.702,193.488 165.005,193.355 164.840 C 193.296 164.767,192.787 164.488,192.224 164.219 C 190.372 163.333,189.628 162.313,190.185 161.422 C 190.516 160.891,190.375 160.763,189.310 160.620 C 188.498 160.511,188.437 160.541,188.294 161.120 C 188.211 161.459,188.024 161.929,187.880 162.165 C 187.736 162.401,187.442 163.173,187.227 163.880 C 187.013 164.587,186.724 165.282,186.585 165.424 C 186.446 165.565,186.265 166.047,186.184 166.495 C 186.102 166.943,185.908 167.508,185.752 167.749 C 184.263 170.065,185.197 171.970,186.945 170.182 C 187.656 169.455,188.097 169.445,190.093 170.111 C 190.598 170.280,191.153 170.418,191.326 170.418 C 191.499 170.418,191.640 170.506,191.640 170.614 C 191.640 170.722,192.387 170.983,193.301 171.195 C 194.215 171.406,195.011 171.646,195.070 171.728 C 195.129 171.810,196.238 172.052,197.535 172.267 C 198.832 172.482,199.962 172.757,200.046 172.878 C 200.269 173.199,212.635 173.175,213.312 172.852 C 213.595 172.717,214.839 172.441,216.077 172.238 C 217.315 172.035,218.376 171.802,218.435 171.720 C 218.494 171.638,219.097 171.398,219.775 171.189 C 220.453 170.979,221.008 170.743,221.008 170.665 C 221.008 170.587,221.295 170.395,221.647 170.239 C 222.987 169.646,224.996 167.600,225.527 166.286 C 225.681 165.906,225.871 165.547,225.950 165.488 C 227.090 164.640,227.004 155.585,225.851 154.940 C 225.663 154.834,225.509 154.645,225.509 154.519 C 225.509 154.230,223.918 152.626,223.631 152.626 C 223.514 152.626,223.300 152.483,223.155 152.309 C 222.848 151.939,221.708 151.340,221.311 151.340 C 221.161 151.340,220.911 151.213,220.755 151.058 C 220.599 150.903,219.748 150.603,218.864 150.391 C 217.980 150.180,217.106 149.931,216.921 149.839 C 216.435 149.596,213.189 149.204,209.861 148.988 C 204.843 148.662,197.856 147.791,197.856 147.492 C 197.856 147.413,197.371 147.224,196.779 147.072 C 196.186 146.920,195.583 146.683,195.439 146.546 C 195.295 146.409,194.912 146.127,194.587 145.919 C 194.263 145.712,193.998 145.404,193.998 145.236 C 193.998 145.068,193.835 144.839,193.635 144.727 C 193.043 144.396,193.114 141.871,193.753 140.514 C 194.457 139.021,196.355 137.406,197.406 137.406 C 197.536 137.406,197.642 137.319,197.642 137.212 C 197.642 136.170,211.604 136.132,212.433 137.171 C 212.492 137.245,213.215 137.481,214.041 137.695 C 214.866 137.909,215.573 138.173,215.613 138.281 C 215.652 138.389,215.790 138.478,215.920 138.478 C 217.467 138.478,219.816 140.870,219.035 141.651 C 218.681 142.005,219.039 142.323,219.954 142.469 C 220.780 142.601,221.200 141.940,222.009 139.228 C 222.220 138.521,222.504 137.826,222.639 137.685 C 222.774 137.543,222.950 137.084,223.028 136.664 C 223.107 136.244,223.408 135.429,223.697 134.854 C 224.417 133.421,224.389 132.927,223.580 132.765 C 223.226 132.695,222.937 132.552,222.937 132.449 C 222.937 132.047,222.514 132.292,222.152 132.905 C 221.891 133.347,221.605 133.548,221.235 133.548 C 220.589 133.548,217.735 132.681,217.564 132.434 C 217.498 132.337,216.678 132.095,215.742 131.895 C 214.806 131.696,213.992 131.469,213.934 131.391 C 213.565 130.903,202.229 130.269,200.643 130.647 M59.593 131.805 C 59.593 132.603,59.625 132.641,60.422 132.768 C 61.938 133.010,61.837 131.741,61.903 151.445 C 61.970 171.606,62.026 170.823,60.503 171.144 C 59.622 171.330,59.593 171.363,59.593 172.167 L 59.593 172.998 65.113 172.940 L 70.632 172.883 70.698 172.094 C 70.763 171.308,70.761 171.305,69.772 171.157 C 68.318 170.939,68.382 171.818,68.382 151.796 C 68.382 131.694,68.285 132.963,69.836 132.755 C 70.721 132.636,70.740 132.617,70.740 131.805 L 70.740 130.975 65.166 130.975 L 59.593 130.975 59.593 131.805 M79.743 131.833 C 79.743 132.613,79.793 132.690,80.299 132.690 C 82.447 132.690,82.348 131.687,82.271 152.657 C 82.200 172.327,82.333 170.866,80.590 171.145 C 79.767 171.277,79.743 171.305,79.743 172.135 L 79.743 172.990 85.102 172.990 L 90.461 172.990 90.461 172.177 C 90.461 171.396,90.424 171.354,89.506 171.109 C 88.027 170.713,88.095 171.525,88.155 154.847 L 88.210 139.683 88.789 140.313 C 89.107 140.660,89.855 141.468,90.450 142.109 C 91.046 142.751,91.533 143.334,91.533 143.406 C 91.533 143.529,91.965 144.014,94.239 146.448 C 94.755 146.999,95.177 147.511,95.177 147.585 C 95.177 147.660,95.611 148.148,96.141 148.671 C 96.672 149.194,97.106 149.703,97.106 149.803 C 97.106 149.902,97.371 150.223,97.696 150.517 C 98.020 150.812,98.637 151.479,99.067 152.000 C 99.497 152.521,100.076 153.198,100.353 153.504 C 100.631 153.811,101.340 154.626,101.929 155.317 C 102.519 156.007,103.315 156.873,103.698 157.240 C 104.081 157.608,104.394 157.984,104.394 158.077 C 104.394 158.170,104.829 158.675,105.359 159.198 C 105.890 159.721,106.324 160.234,106.324 160.337 C 106.324 160.441,106.541 160.703,106.806 160.918 C 107.071 161.134,107.754 161.885,108.324 162.587 C 108.893 163.289,109.544 163.993,109.771 164.152 C 109.997 164.310,110.182 164.533,110.182 164.647 C 110.182 164.761,110.640 165.337,111.200 165.927 C 111.760 166.517,112.531 167.359,112.913 167.798 C 113.295 168.237,113.944 168.982,114.355 169.453 C 115.474 170.737,115.155 171.275,113.277 171.275 C 112.560 171.275,112.540 171.299,112.540 172.136 L 112.540 172.997 119.132 172.940 L 125.723 172.883 125.788 172.105 C 125.853 171.330,125.848 171.325,124.824 171.140 C 123.910 170.975,123.771 170.876,123.589 170.257 C 123.476 169.874,123.307 169.561,123.214 169.561 C 123.120 169.561,123.044 161.651,123.044 151.983 C 123.044 140.407,123.117 134.405,123.258 134.405 C 123.376 134.405,123.473 134.176,123.473 133.895 C 123.473 133.243,123.934 132.866,124.931 132.706 C 125.664 132.588,125.728 132.518,125.790 131.777 L 125.857 130.975 120.377 130.975 L 114.898 130.975 114.898 131.808 C 114.898 132.631,114.910 132.643,115.862 132.786 C 117.321 133.005,117.256 132.281,117.256 148.355 L 117.256 162.975 116.559 162.205 C 116.176 161.782,115.429 160.934,114.898 160.322 C 113.844 159.106,112.616 157.706,112.111 157.144 C 111.935 156.947,111.309 156.212,110.722 155.510 C 110.134 154.808,109.483 154.108,109.275 153.954 C 109.066 153.799,108.896 153.570,108.896 153.443 C 108.896 153.316,108.438 152.741,107.878 152.165 C 107.318 151.589,106.522 150.724,106.109 150.242 C 105.697 149.761,104.949 148.932,104.448 148.400 C 103.947 147.868,103.537 147.367,103.537 147.286 C 103.537 147.206,103.151 146.763,102.680 146.302 C 102.208 145.842,101.822 145.398,101.822 145.316 C 101.822 145.234,101.364 144.675,100.804 144.075 C 100.244 143.475,99.476 142.621,99.098 142.178 C 98.720 141.734,97.980 140.890,97.454 140.300 C 96.929 139.711,95.839 138.457,95.034 137.513 C 94.228 136.570,93.400 135.672,93.194 135.518 C 92.988 135.364,92.819 135.101,92.819 134.934 C 92.819 134.766,92.588 134.478,92.305 134.293 C 91.140 133.529,91.641 132.690,93.262 132.690 C 93.853 132.690,93.891 132.638,93.891 131.833 L 93.891 130.975 86.817 130.975 L 79.743 130.975 79.743 131.833 M235.370 131.805 C 235.370 132.599,235.405 132.641,236.175 132.764 C 237.845 133.031,237.728 131.594,237.728 151.791 C 237.728 171.620,237.765 171.061,236.445 171.061 C 235.608 171.061,235.370 171.303,235.370 172.156 L 235.370 172.990 240.729 172.990 L 246.088 172.990 246.088 172.146 C 246.088 171.307,246.082 171.301,245.101 171.154 C 243.444 170.905,243.516 171.637,243.516 154.865 L 243.516 140.156 244.402 141.836 C 244.890 142.760,245.356 143.564,245.437 143.623 C 245.518 143.682,245.812 144.285,246.090 144.962 C 246.368 145.640,246.666 146.195,246.753 146.195 C 246.839 146.195,247.076 146.629,247.278 147.160 C 247.481 147.690,247.712 148.124,247.792 148.124 C 247.872 148.124,248.154 148.583,248.418 149.143 C 249.109 150.603,249.797 151.912,250.106 152.352 C 250.253 152.562,250.596 153.167,250.868 153.698 C 251.925 155.759,253.443 158.526,253.573 158.628 C 253.648 158.687,253.898 159.169,254.129 159.700 C 254.359 160.230,254.661 160.783,254.800 160.929 C 254.939 161.074,255.219 161.628,255.423 162.161 C 255.626 162.694,255.857 163.130,255.936 163.130 C 256.016 163.130,256.259 163.540,256.478 164.041 C 256.696 164.542,256.942 165.000,257.024 165.059 C 257.107 165.118,257.383 165.600,257.638 166.131 C 257.893 166.661,258.484 167.771,258.951 168.596 C 259.418 169.421,259.862 170.265,259.936 170.472 C 260.181 171.150,260.793 170.895,261.218 169.936 C 261.440 169.435,261.738 168.903,261.880 168.754 C 262.023 168.606,262.261 168.148,262.409 167.736 C 262.558 167.325,262.749 166.988,262.833 166.988 C 262.918 166.988,263.153 166.554,263.355 166.024 C 263.558 165.493,263.798 165.059,263.889 165.059 C 263.979 165.059,264.273 164.528,264.542 163.880 C 264.811 163.232,265.090 162.701,265.162 162.701 C 265.234 162.701,265.472 162.267,265.690 161.736 C 265.909 161.206,266.152 160.772,266.231 160.772 C 266.309 160.772,266.593 160.241,266.862 159.593 C 267.131 158.944,267.417 158.414,267.497 158.414 C 267.578 158.414,267.831 157.931,268.060 157.342 C 268.289 156.752,268.537 156.270,268.613 156.270 C 268.688 156.270,269.221 155.330,269.798 154.180 C 270.375 153.031,270.959 151.970,271.097 151.824 C 271.235 151.678,271.460 151.220,271.596 150.806 C 271.733 150.392,271.926 150.054,272.025 150.054 C 272.124 150.054,272.370 149.620,272.573 149.089 C 272.776 148.558,273.009 148.124,273.092 148.124 C 273.175 148.124,273.467 147.594,273.741 146.945 C 274.015 146.297,274.307 145.766,274.389 145.766 C 274.472 145.766,274.706 145.332,274.908 144.802 C 275.111 144.271,275.347 143.837,275.434 143.837 C 275.520 143.837,275.818 143.282,276.096 142.605 C 276.374 141.927,276.666 141.324,276.744 141.265 C 276.822 141.206,276.995 140.965,277.129 140.729 C 277.468 140.131,277.490 169.195,277.151 170.167 C 276.931 170.800,276.051 171.270,275.080 171.274 C 274.911 171.275,274.812 171.590,274.812 172.133 L 274.812 172.990 280.279 172.990 L 285.745 172.990 285.745 172.139 C 285.745 171.358,285.687 171.273,285.048 171.107 C 283.776 170.778,283.820 171.480,283.840 151.983 C 283.860 132.280,283.813 133.097,284.950 132.813 C 285.694 132.627,285.745 132.562,285.745 131.795 L 285.745 130.975 279.207 130.975 L 272.669 130.975 272.669 131.797 C 272.669 132.606,272.684 132.621,273.687 132.815 C 274.683 133.007,275.076 133.760,274.400 134.181 C 274.298 134.246,273.992 134.804,273.722 135.423 C 273.452 136.042,273.161 136.549,273.074 136.549 C 272.987 136.549,272.805 136.887,272.668 137.301 C 272.532 137.715,272.297 138.177,272.146 138.327 C 271.995 138.478,271.662 139.032,271.406 139.558 C 271.149 140.084,270.620 141.093,270.230 141.801 C 269.840 142.508,269.344 143.424,269.129 143.837 C 268.913 144.250,268.681 144.636,268.613 144.695 C 268.493 144.798,267.987 145.743,266.912 147.874 C 266.634 148.424,266.330 148.923,266.235 148.982 C 266.140 149.042,265.889 149.524,265.678 150.054 C 265.466 150.584,265.141 151.183,264.955 151.384 C 264.768 151.585,264.486 152.109,264.327 152.548 C 264.168 152.988,263.858 153.541,263.638 153.777 C 263.417 154.014,263.237 154.327,263.237 154.473 C 263.237 154.619,263.112 154.866,262.960 155.022 C 262.808 155.178,262.550 155.643,262.389 156.056 C 262.227 156.468,261.942 156.984,261.755 157.203 C 261.568 157.421,261.259 157.995,261.069 158.479 C 260.613 159.641,260.426 159.656,259.916 158.572 C 259.681 158.072,259.367 157.536,259.219 157.380 C 259.071 157.224,258.950 156.959,258.950 156.791 C 258.950 156.622,258.770 156.304,258.550 156.084 C 258.330 155.864,257.978 155.234,257.767 154.684 C 257.557 154.134,257.272 153.614,257.134 153.530 C 256.996 153.445,256.712 152.942,256.503 152.412 C 256.295 151.882,256.054 151.400,255.968 151.340 C 255.882 151.281,255.584 150.750,255.305 150.161 C 255.027 149.571,254.743 149.041,254.675 148.982 C 254.607 148.923,254.359 148.490,254.124 148.020 C 253.890 147.551,253.577 147.037,253.430 146.880 C 253.282 146.722,253.162 146.455,253.162 146.287 C 253.162 146.119,252.986 145.805,252.772 145.591 C 252.557 145.376,252.214 144.781,252.009 144.269 C 251.804 143.756,251.454 143.106,251.232 142.823 C 251.010 142.541,250.719 141.978,250.585 141.573 C 250.451 141.168,250.275 140.836,250.192 140.836 C 250.110 140.836,249.852 140.403,249.619 139.873 C 249.387 139.344,249.139 138.910,249.070 138.909 C 249.001 138.908,248.720 138.376,248.446 137.728 C 248.172 137.079,247.880 136.549,247.797 136.549 C 247.714 136.549,247.481 136.115,247.278 135.584 C 247.076 135.054,246.831 134.620,246.734 134.620 C 246.508 134.620,246.058 133.340,246.203 133.107 C 246.263 133.009,246.744 132.865,247.272 132.785 C 248.219 132.643,248.232 132.631,248.232 131.808 L 248.232 130.975 241.801 130.975 L 235.370 130.975 235.370 131.805 M148.422 183.441 C 148.357 183.647,148.217 184.033,148.111 184.298 L 147.919 184.780 135.267 184.780 L 122.615 184.780 122.615 185.410 C 122.615 185.963,122.699 186.047,123.312 186.106 L 124.009 186.174 124.064 198.807 C 124.123 212.258,124.158 211.779,123.098 211.787 C 122.705 211.789,122.615 211.910,122.615 212.433 L 122.615 213.076 126.581 213.076 L 130.547 213.076 130.547 212.433 C 130.547 211.875,130.468 211.789,129.957 211.787 C 128.718 211.780,128.730 211.834,128.657 206.117 L 128.590 200.857 134.874 200.860 C 141.785 200.864,142.069 200.893,142.255 201.633 C 142.353 202.024,142.529 202.144,143.003 202.144 L 143.623 202.144 143.623 198.714 L 143.623 195.284 143.006 195.284 C 142.499 195.284,142.368 195.393,142.267 195.899 C 142.094 196.763,141.964 196.778,134.887 196.782 L 128.617 196.785 128.617 192.703 L 128.617 188.622 138.272 188.684 C 148.695 188.751,148.327 188.708,148.335 189.871 C 148.338 190.264,148.459 190.354,148.982 190.354 L 149.625 190.354 149.625 186.710 L 149.625 183.065 149.082 183.065 C 148.753 183.065,148.493 183.213,148.422 183.441 M156.270 186.710 L 156.270 190.354 156.789 190.354 C 157.189 190.354,157.364 190.187,157.548 189.629 C 157.864 188.672,158.075 188.639,163.800 188.639 L 168.489 188.639 168.489 199.783 C 168.489 211.960,168.506 211.790,167.262 211.790 C 166.863 211.790,166.774 211.907,166.774 212.433 L 166.774 213.076 170.740 213.076 L 174.705 213.076 174.705 212.433 C 174.705 211.905,174.617 211.790,174.212 211.790 C 173.191 211.790,173.205 211.951,173.205 199.943 L 173.205 188.611 178.358 188.678 C 183.886 188.751,183.912 188.757,183.920 189.871 C 183.922 190.264,184.043 190.354,184.566 190.354 L 185.209 190.354 185.209 186.710 L 185.209 183.065 184.566 183.065 C 184.059 183.065,183.923 183.159,183.923 183.508 C 183.923 184.864,184.774 184.780,170.964 184.780 C 157.228 184.780,157.891 184.829,157.550 183.797 C 157.364 183.232,157.190 183.065,156.789 183.065 L 156.270 183.065 156.270 186.710 M353.850 183.198 C 353.766 183.282,353.698 183.521,353.698 183.729 C 353.698 184.803,353.997 184.780,339.856 184.780 L 326.688 184.780 326.688 185.409 C 326.688 185.936,326.784 186.049,327.278 186.106 L 327.867 186.174 327.867 198.928 L 327.867 211.683 327.278 211.751 C 326.784 211.807,326.688 211.921,326.688 212.447 L 326.688 213.076 340.153 213.076 C 354.632 213.076,354.555 213.070,354.555 214.156 C 354.555 214.270,354.845 214.362,355.198 214.362 L 355.841 214.362 355.841 211.040 L 355.841 207.717 355.245 207.717 C 354.787 207.717,354.596 207.858,354.419 208.327 C 354.087 209.207,353.946 209.218,342.738 209.218 L 332.690 209.218 332.690 204.930 L 332.690 200.643 339.871 200.643 C 347.606 200.643,347.910 200.688,347.910 201.836 C 347.910 202.085,348.089 202.154,348.607 202.104 L 349.303 202.036 349.362 198.553 L 349.421 195.070 348.704 195.070 C 348.101 195.070,347.939 195.180,347.681 195.766 L 347.374 196.463 340.032 196.519 L 332.690 196.576 332.690 192.607 L 332.690 188.639 342.605 188.642 C 353.741 188.645,353.420 188.616,353.609 189.627 C 353.732 190.284,353.815 190.354,354.477 190.354 L 355.209 190.354 355.150 186.763 L 355.091 183.173 354.547 183.109 C 354.248 183.074,353.935 183.114,353.850 183.198 M53.376 184.352 C 53.376 184.470,52.811 184.566,52.109 184.566 C 48.245 184.566,42.872 187.244,42.872 189.170 C 42.872 189.350,42.780 189.496,42.666 189.496 C 42.091 189.496,41.679 193.071,42.019 195.105 C 42.275 196.637,43.925 198.928,44.772 198.928 C 44.890 198.928,45.122 199.065,45.289 199.231 C 45.631 199.574,47.632 200.214,48.360 200.214 C 48.623 200.214,48.871 200.308,48.910 200.422 C 48.978 200.619,49.950 200.723,57.127 201.300 C 58.778 201.433,60.177 201.610,60.236 201.694 C 60.295 201.778,60.917 201.982,61.619 202.147 C 63.011 202.475,64.309 203.414,64.309 204.095 C 64.309 204.319,64.405 204.502,64.523 204.502 C 64.641 204.502,64.737 204.839,64.737 205.252 C 64.737 205.665,64.665 206.003,64.577 206.005 C 64.488 206.006,64.241 206.373,64.027 206.820 C 63.742 207.415,63.382 207.746,62.689 208.050 C 62.167 208.280,61.739 208.529,61.738 208.604 C 61.733 208.956,58.586 209.324,55.627 209.319 C 52.634 209.314,49.303 208.938,49.303 208.606 C 49.303 208.527,48.812 208.345,48.212 208.202 C 47.611 208.060,46.839 207.796,46.497 207.616 C 46.154 207.436,45.584 207.136,45.229 206.950 C 44.428 206.530,44.166 206.060,44.311 205.303 C 44.416 204.751,44.377 204.716,43.648 204.716 C 43.015 204.716,42.872 204.795,42.872 205.145 C 42.872 205.380,42.797 205.573,42.705 205.573 C 42.613 205.573,42.405 206.032,42.244 206.592 C 42.083 207.152,41.758 207.996,41.522 208.467 C 40.846 209.815,40.474 211.417,40.790 211.618 C 41.232 211.899,41.782 211.808,42.206 211.385 C 42.619 210.972,45.250 211.422,46.011 212.036 C 46.358 212.315,50.416 213.076,51.562 213.076 C 52.088 213.076,52.519 213.173,52.519 213.290 C 52.519 213.422,53.591 213.505,55.305 213.505 C 56.838 213.505,58.092 213.423,58.092 213.322 C 58.092 213.222,58.888 213.076,59.861 212.999 C 61.964 212.831,64.160 212.344,64.267 212.021 C 64.310 211.894,64.470 211.790,64.624 211.790 C 64.954 211.790,66.033 211.252,66.217 210.995 C 66.287 210.896,66.610 210.647,66.935 210.440 C 67.259 210.234,67.524 209.944,67.524 209.796 C 67.524 209.648,67.704 209.374,67.923 209.186 C 68.990 208.272,69.386 202.808,68.508 201.109 C 67.440 199.044,63.444 197.213,60.003 197.213 C 59.541 197.213,59.164 197.132,59.164 197.032 C 59.164 196.933,57.822 196.790,56.182 196.716 C 53.024 196.572,50.336 196.248,49.625 195.926 C 49.389 195.819,48.814 195.579,48.347 195.393 C 46.656 194.718,46.134 193.667,46.599 191.876 C 46.871 190.828,47.960 189.496,48.545 189.496 C 48.709 189.496,48.985 189.355,49.157 189.183 C 50.007 188.333,59.164 188.215,59.164 189.055 C 59.164 189.135,59.670 189.328,60.289 189.483 C 61.645 189.824,63.656 190.971,63.689 191.422 C 63.702 191.601,63.697 191.952,63.677 192.203 C 63.652 192.530,63.799 192.699,64.199 192.799 C 64.953 192.988,65.104 192.855,65.274 191.849 C 65.354 191.376,65.556 190.852,65.722 190.686 C 65.888 190.520,66.024 190.292,66.024 190.179 C 66.024 189.774,66.757 187.671,66.943 187.543 C 67.519 187.144,67.206 185.960,66.506 185.892 C 66.123 185.855,65.809 185.917,65.809 186.030 C 65.809 186.614,63.873 186.345,62.225 185.531 C 61.403 185.125,58.051 184.567,56.431 184.567 C 55.681 184.566,55.091 184.472,55.091 184.352 C 55.091 184.234,54.705 184.137,54.234 184.137 C 53.762 184.137,53.376 184.234,53.376 184.352 M93.891 184.352 C 93.891 184.470,93.323 184.566,92.618 184.566 C 91.198 184.566,88.764 185.046,87.781 185.520 C 87.428 185.691,86.777 185.975,86.334 186.152 C 85.892 186.329,85.531 186.564,85.531 186.675 C 85.531 186.786,85.314 186.935,85.048 187.006 C 84.522 187.147,83.524 187.900,82.329 189.058 C 81.616 189.750,81.277 190.206,80.887 190.997 C 80.800 191.174,80.563 191.497,80.361 191.715 C 80.159 191.933,79.929 192.366,79.851 192.677 C 79.773 192.989,79.623 193.296,79.518 193.361 C 78.454 194.019,78.480 204.502,79.546 204.502 C 79.654 204.502,79.743 204.656,79.743 204.844 C 79.743 205.244,80.331 206.343,80.868 206.947 C 81.074 207.179,81.243 207.455,81.243 207.560 C 81.243 207.809,83.723 210.289,83.972 210.289 C 84.078 210.289,84.351 210.463,84.579 210.675 C 84.808 210.886,85.428 211.233,85.959 211.444 C 86.489 211.656,86.974 211.912,87.037 212.014 C 87.215 212.302,89.554 212.867,91.158 213.010 C 91.953 213.080,92.605 213.221,92.605 213.322 C 92.605 213.422,93.617 213.505,94.855 213.505 C 96.213 213.505,97.106 213.420,97.106 213.290 C 97.106 213.173,97.468 213.074,97.910 213.071 C 98.971 213.064,102.258 212.335,102.434 212.068 C 102.510 211.952,103.031 211.685,103.591 211.473 C 104.151 211.262,104.609 211.005,104.609 210.903 C 104.609 210.801,104.717 210.718,104.849 210.718 C 105.095 210.718,107.607 208.767,107.609 208.574 C 107.610 208.516,107.864 208.178,108.173 207.824 C 108.482 207.471,108.869 206.868,109.033 206.484 C 109.197 206.101,109.410 205.788,109.508 205.788 C 109.606 205.788,109.863 205.185,110.079 204.448 C 110.295 203.711,110.575 202.973,110.702 202.807 C 111.005 202.411,111.017 195.328,110.715 195.115 C 110.595 195.031,110.373 194.480,110.221 193.891 C 110.069 193.301,109.709 192.476,109.421 192.057 C 109.132 191.638,108.896 191.181,108.896 191.041 C 108.896 190.901,108.703 190.666,108.467 190.518 C 108.232 190.371,108.039 190.157,108.039 190.042 C 108.039 189.759,106.290 187.996,106.009 187.996 C 105.885 187.996,105.663 187.803,105.516 187.567 C 105.369 187.331,105.111 187.138,104.944 187.138 C 104.776 187.138,104.507 187.006,104.346 186.845 C 103.948 186.447,102.774 185.852,102.386 185.852 C 102.214 185.852,102.040 185.760,102.001 185.648 C 101.884 185.313,99.484 184.759,97.582 184.627 C 96.606 184.560,95.756 184.422,95.694 184.321 C 95.534 184.063,93.891 184.091,93.891 184.352 M190.568 185.409 C 190.568 185.935,190.664 186.049,191.156 186.106 C 191.564 186.153,191.837 186.371,192.047 186.817 C 192.213 187.170,192.413 187.508,192.490 187.567 C 192.568 187.626,192.809 188.253,193.026 188.960 C 193.243 189.668,193.488 190.295,193.570 190.354 C 193.653 190.413,193.942 191.136,194.213 191.961 C 194.485 192.787,194.825 193.655,194.969 193.891 C 195.112 194.126,195.360 194.778,195.518 195.338 C 195.677 195.898,195.871 196.356,195.949 196.356 C 196.028 196.356,196.255 196.862,196.453 197.481 C 196.652 198.100,196.995 198.992,197.215 199.464 C 197.436 199.936,197.742 200.732,197.896 201.233 C 198.049 201.734,198.239 202.144,198.317 202.144 C 198.396 202.144,198.631 202.698,198.841 203.376 C 199.051 204.054,199.287 204.657,199.365 204.716 C 199.444 204.775,199.729 205.498,200.000 206.324 C 200.271 207.149,200.556 207.872,200.635 207.931 C 200.713 207.990,200.955 208.617,201.172 209.325 C 201.389 210.032,201.639 210.659,201.726 210.718 C 202.193 211.030,202.015 211.685,201.447 211.751 C 200.953 211.807,200.857 211.921,200.857 212.447 L 200.857 213.076 204.837 213.076 L 208.817 213.076 208.750 212.487 C 208.693 211.994,208.558 211.879,207.931 211.789 C 207.204 211.683,206.904 210.697,207.475 210.292 C 207.561 210.232,207.813 209.555,208.037 208.789 C 208.260 208.023,208.557 207.203,208.696 206.967 C 208.835 206.731,209.124 205.839,209.339 204.984 C 209.553 204.129,209.794 203.430,209.874 203.430 C 209.953 203.430,210.186 202.827,210.391 202.090 C 210.596 201.353,210.837 200.654,210.926 200.536 C 211.015 200.418,211.262 199.743,211.474 199.035 C 211.686 198.328,211.936 197.649,212.027 197.527 C 212.119 197.405,212.405 196.540,212.661 195.605 C 212.918 194.669,213.248 193.708,213.395 193.468 C 213.541 193.229,213.783 192.575,213.932 192.015 C 214.185 191.066,214.577 190.625,214.577 191.290 C 214.577 191.737,215.421 194.284,215.613 194.417 C 215.706 194.481,215.954 195.088,216.164 195.766 C 216.374 196.444,216.616 197.042,216.703 197.095 C 216.790 197.149,217.041 197.800,217.262 198.543 C 217.483 199.285,217.727 199.941,217.804 200.000 C 217.880 200.059,218.164 200.782,218.435 201.608 C 218.706 202.433,219.000 203.156,219.089 203.215 C 219.177 203.274,219.417 203.901,219.621 204.609 C 219.825 205.316,220.062 205.943,220.147 206.002 C 220.232 206.061,220.473 206.640,220.683 207.288 C 220.893 207.937,221.140 208.565,221.233 208.683 C 222.064 209.744,222.268 211.790,221.543 211.790 C 221.091 211.790,221.008 211.890,221.008 212.433 L 221.008 213.076 224.759 213.076 L 228.510 213.076 228.510 212.433 C 228.510 211.888,228.428 211.790,227.968 211.790 C 227.669 211.790,227.367 211.640,227.297 211.456 C 227.167 211.118,228.018 207.914,228.290 207.717 C 228.372 207.658,228.618 206.911,228.837 206.056 C 229.057 205.201,229.303 204.502,229.385 204.502 C 229.468 204.502,229.749 203.706,230.011 202.733 C 230.273 201.760,230.554 200.916,230.635 200.857 C 230.812 200.728,231.511 198.572,231.511 198.153 C 231.511 197.990,231.589 197.856,231.685 197.856 C 231.781 197.856,231.984 197.350,232.138 196.731 C 232.291 196.112,232.543 195.403,232.697 195.156 C 232.852 194.909,233.198 193.896,233.466 192.905 C 233.734 191.915,234.021 191.056,234.104 190.997 C 234.187 190.938,234.422 190.311,234.627 189.603 C 234.831 188.896,235.058 188.269,235.131 188.210 C 235.205 188.151,235.399 187.717,235.562 187.245 C 235.895 186.284,236.118 186.074,236.817 186.070 C 237.209 186.067,237.299 185.946,237.299 185.423 L 237.299 184.780 233.548 184.780 L 229.796 184.780 229.796 185.423 C 229.796 185.958,229.883 186.066,230.306 186.066 C 231.260 186.066,231.378 188.702,230.450 189.276 C 230.348 189.339,230.102 190.017,229.904 190.783 C 229.706 191.549,229.469 192.272,229.378 192.390 C 229.287 192.508,229.036 193.183,228.821 193.891 C 228.606 194.598,228.365 195.225,228.287 195.284 C 228.208 195.343,227.922 196.235,227.651 197.267 C 227.381 198.298,227.089 199.143,227.004 199.143 C 226.918 199.143,226.673 199.818,226.459 200.643 C 226.245 201.468,226.004 202.144,225.923 202.144 C 225.843 202.144,225.724 202.411,225.658 202.739 C 225.439 203.836,224.608 205.830,224.446 205.647 C 224.358 205.548,224.163 205.008,224.012 204.448 C 223.862 203.888,223.677 203.430,223.603 203.430 C 223.528 203.430,223.288 202.803,223.068 202.036 C 222.849 201.270,222.585 200.643,222.481 200.643 C 222.378 200.643,222.290 200.474,222.285 200.268 C 222.280 200.062,222.030 199.218,221.730 198.392 C 221.430 197.567,220.986 196.313,220.742 195.606 C 220.498 194.898,220.237 194.271,220.161 194.212 C 220.085 194.153,219.843 193.502,219.623 192.765 C 219.404 192.028,219.144 191.426,219.044 191.426 C 218.945 191.426,218.864 191.293,218.864 191.132 C 218.864 190.773,218.169 188.608,217.704 187.520 C 217.222 186.392,217.266 186.066,217.899 186.066 C 218.352 186.066,218.435 185.966,218.435 185.423 L 218.435 184.780 214.362 184.780 L 210.289 184.780 210.289 185.423 C 210.289 185.969,210.372 186.066,210.832 186.066 C 211.607 186.066,211.703 188.100,210.953 188.639 C 210.775 188.767,210.075 190.921,210.075 191.343 C 210.075 191.506,209.992 191.640,209.890 191.640 C 209.789 191.640,209.482 192.436,209.208 193.408 C 208.934 194.381,208.641 195.225,208.556 195.284 C 208.472 195.343,208.235 195.970,208.029 196.677 C 207.824 197.385,207.538 198.156,207.394 198.392 C 207.250 198.628,207.005 199.303,206.851 199.893 C 206.696 200.482,206.501 201.013,206.417 201.072 C 206.333 201.131,206.050 201.902,205.788 202.787 C 205.526 203.671,205.244 204.443,205.161 204.502 C 205.079 204.561,204.908 204.946,204.781 205.359 L 204.552 206.109 204.393 205.413 C 204.305 205.029,204.157 204.716,204.064 204.716 C 203.971 204.716,203.686 204.042,203.430 203.217 C 203.175 202.393,202.895 201.674,202.807 201.620 C 202.718 201.566,202.470 200.938,202.254 200.225 C 202.038 199.512,201.793 198.928,201.709 198.928 C 201.626 198.928,201.397 198.356,201.201 197.658 C 201.004 196.959,200.774 196.356,200.689 196.318 C 200.604 196.280,200.301 195.573,200.015 194.748 C 199.730 193.923,199.435 193.199,199.360 193.140 C 199.285 193.081,199.051 192.479,198.841 191.801 C 198.631 191.123,198.393 190.568,198.313 190.568 C 198.232 190.568,197.994 189.989,197.784 189.282 C 197.574 188.574,197.331 187.996,197.245 187.996 C 197.158 187.996,196.986 187.615,196.861 187.149 C 196.609 186.204,196.737 186.066,197.874 186.066 C 198.426 186.066,198.499 185.991,198.499 185.423 L 198.499 184.780 194.534 184.780 L 190.568 184.780 190.568 185.409 M253.201 185.370 C 253.251 185.805,253.404 185.978,253.786 186.032 C 254.437 186.124,255.043 186.688,254.712 186.894 C 254.582 186.973,254.316 187.511,254.120 188.089 C 253.924 188.667,253.628 189.275,253.463 189.440 C 253.297 189.606,253.162 189.877,253.162 190.043 C 253.162 190.209,252.824 191.065,252.412 191.947 C 251.999 192.828,251.661 193.627,251.661 193.722 C 251.661 193.817,251.432 194.327,251.152 194.857 C 250.871 195.387,250.574 196.133,250.492 196.517 C 250.409 196.900,250.260 197.213,250.161 197.213 C 250.062 197.213,249.816 197.720,249.615 198.339 C 249.413 198.958,249.133 199.609,248.993 199.786 C 248.852 199.962,248.556 200.662,248.333 201.340 C 248.110 202.018,247.871 202.572,247.801 202.572 C 247.731 202.572,247.494 203.079,247.275 203.698 C 247.056 204.317,246.752 205.008,246.599 205.233 C 246.445 205.459,246.158 206.158,245.960 206.787 C 245.762 207.417,245.524 207.931,245.431 207.931 C 245.337 207.931,245.109 208.454,244.923 209.093 C 244.738 209.732,244.514 210.286,244.426 210.325 C 244.338 210.365,244.118 210.686,243.938 211.040 C 243.716 211.474,243.420 211.705,243.026 211.751 C 242.540 211.807,242.444 211.923,242.444 212.447 L 242.444 213.076 246.195 213.076 L 249.946 213.076 249.946 212.433 C 249.946 211.860,249.876 211.790,249.297 211.790 C 248.335 211.790,248.260 211.263,249.025 209.874 C 249.386 209.218,249.748 208.368,249.831 207.985 C 249.913 207.602,250.064 207.288,250.167 207.288 C 250.269 207.288,250.520 206.758,250.725 206.109 L 251.097 204.930 258.774 204.930 C 264.531 204.930,266.452 204.994,266.452 205.183 C 266.452 205.322,266.977 206.504,267.618 207.809 C 269.495 211.631,269.507 211.790,267.910 211.790 C 267.148 211.790,267.095 211.831,267.095 212.433 L 267.095 213.076 271.490 213.076 L 275.884 213.076 275.884 212.460 C 275.884 211.913,275.794 211.830,275.068 211.714 C 274.282 211.588,273.526 210.659,273.526 209.817 C 273.526 209.683,273.395 209.421,273.234 209.234 C 273.073 209.048,272.771 208.438,272.562 207.878 C 272.353 207.318,272.107 206.860,272.017 206.860 C 271.926 206.860,271.684 206.329,271.480 205.681 C 271.276 205.032,271.038 204.502,270.951 204.502 C 270.863 204.502,270.575 203.923,270.311 203.215 C 270.046 202.508,269.766 201.929,269.688 201.929 C 269.611 201.929,269.417 201.490,269.259 200.953 C 269.100 200.416,268.855 199.861,268.714 199.720 C 268.573 199.579,268.283 199.006,268.069 198.446 C 267.855 197.886,267.597 197.428,267.495 197.428 C 267.393 197.428,267.310 197.296,267.310 197.135 C 267.310 196.708,266.407 194.582,266.085 194.250 C 265.933 194.095,265.809 193.880,265.809 193.773 C 265.809 193.666,265.483 192.877,265.085 192.020 C 264.687 191.162,264.295 190.244,264.213 189.979 C 264.132 189.713,263.989 189.496,263.895 189.496 C 263.801 189.496,263.557 188.966,263.353 188.317 C 263.149 187.669,262.895 187.138,262.788 187.138 C 262.681 187.138,262.594 186.956,262.594 186.732 C 262.594 186.308,262.988 186.066,263.683 186.066 C 263.997 186.066,264.094 185.914,264.094 185.423 L 264.094 184.780 258.614 184.780 L 253.133 184.780 253.201 185.370 M285.102 185.413 C 285.102 185.952,285.188 186.066,285.595 186.066 C 286.620 186.066,286.602 185.843,286.602 198.928 C 286.602 212.013,286.620 211.790,285.595 211.790 C 285.190 211.790,285.102 211.905,285.102 212.433 L 285.102 213.076 288.853 213.076 L 292.605 213.076 292.605 212.433 C 292.605 211.892,292.520 211.790,292.076 211.790 C 291.187 211.790,291.104 211.279,291.104 205.802 L 291.104 200.643 295.937 200.643 L 300.770 200.643 301.135 201.320 C 301.336 201.692,301.645 202.152,301.822 202.343 C 301.999 202.534,302.337 203.073,302.572 203.542 C 302.808 204.011,303.122 204.472,303.269 204.566 C 303.416 204.660,303.537 204.844,303.537 204.974 C 303.537 205.105,303.764 205.510,304.041 205.875 C 304.318 206.240,304.717 206.876,304.928 207.288 C 305.138 207.701,305.442 208.116,305.602 208.210 C 305.763 208.304,305.895 208.480,305.895 208.600 C 305.895 208.720,306.179 209.231,306.526 209.736 C 307.333 210.909,307.578 211.790,307.097 211.790 C 306.857 211.790,306.752 211.985,306.752 212.433 L 306.752 213.076 310.397 213.076 L 314.041 213.076 314.041 212.433 C 314.041 211.942,313.943 211.790,313.630 211.790 C 313.201 211.790,312.112 210.567,311.662 209.579 C 311.518 209.262,311.316 209.003,311.214 209.003 C 311.112 209.003,310.943 208.786,310.838 208.521 C 310.734 208.256,310.398 207.706,310.094 207.300 C 309.789 206.894,309.539 206.454,309.539 206.322 C 309.539 206.191,309.370 205.896,309.164 205.667 C 308.958 205.439,308.386 204.625,307.893 203.859 C 307.400 203.092,306.869 202.312,306.714 202.126 C 306.381 201.726,305.895 200.911,305.895 200.753 C 305.895 200.693,306.233 200.643,306.645 200.643 C 307.058 200.643,307.395 200.569,307.395 200.479 C 307.395 200.389,307.902 200.196,308.521 200.050 C 309.140 199.904,309.753 199.640,309.884 199.464 C 310.015 199.287,310.208 199.139,310.313 199.135 C 310.418 199.131,310.712 198.954,310.966 198.742 C 314.183 196.055,313.650 187.997,310.119 185.927 C 308.255 184.833,308.973 184.892,296.624 184.824 L 285.102 184.760 285.102 185.413 M99.115 189.153 C 99.786 189.460,100.425 189.711,100.536 189.711 C 101.068 189.711,104.180 192.251,104.180 192.685 C 104.180 192.804,104.358 193.028,104.575 193.182 C 104.993 193.478,105.895 195.653,105.895 196.364 C 105.895 196.595,105.991 196.785,106.109 196.785 C 106.238 196.785,106.324 197.642,106.324 198.928 C 106.324 200.214,106.238 201.072,106.109 201.072 C 105.991 201.072,105.895 201.178,105.895 201.307 C 105.895 201.981,105.168 203.889,104.708 204.424 C 104.418 204.762,104.180 205.115,104.180 205.209 C 104.180 205.471,102.775 206.860,102.509 206.860 C 102.380 206.860,102.149 207.036,101.995 207.253 C 101.841 207.469,101.257 207.820,100.697 208.032 C 100.137 208.245,99.678 208.482,99.678 208.559 C 99.678 209.153,94.521 209.623,92.282 209.233 C 91.022 209.014,88.226 207.914,87.889 207.505 C 87.830 207.433,87.444 207.142,87.031 206.858 C 86.241 206.314,86.000 206.042,85.052 204.626 C 84.730 204.145,84.392 203.655,84.302 203.537 C 83.111 201.987,83.145 195.495,84.351 194.289 C 84.528 194.112,84.673 193.832,84.673 193.666 C 84.673 193.310,87.296 190.568,87.637 190.568 C 87.766 190.568,88.044 190.385,88.255 190.161 C 88.466 189.938,89.073 189.629,89.603 189.475 C 90.134 189.321,90.618 189.124,90.680 189.038 C 91.243 188.241,97.303 188.324,99.115 189.153 M304.973 188.638 C 307.645 188.985,308.818 190.802,308.262 193.733 C 307.768 196.342,306.985 196.558,298.017 196.565 L 291.104 196.570 291.104 192.497 L 291.104 188.424 297.267 188.431 C 300.656 188.435,304.124 188.528,304.973 188.638 M258.950 189.711 C 259.105 190.182,259.304 190.568,259.391 190.568 C 259.478 190.568,259.723 191.050,259.935 191.640 C 260.147 192.229,260.387 192.712,260.468 192.712 C 260.549 192.712,260.780 193.218,260.981 193.837 C 261.182 194.456,261.464 195.107,261.608 195.284 C 261.752 195.461,262.055 196.040,262.280 196.570 C 262.505 197.101,262.755 197.583,262.836 197.643 C 262.917 197.702,263.156 198.184,263.367 198.714 C 263.578 199.245,263.876 199.806,264.029 199.962 C 264.862 200.807,264.557 200.857,258.633 200.857 L 252.958 200.857 253.144 200.375 C 253.355 199.827,253.695 199.115,254.547 197.437 C 254.873 196.793,255.278 195.805,255.446 195.240 C 255.614 194.675,255.826 194.212,255.918 194.212 C 256.010 194.212,256.252 193.682,256.456 193.033 C 256.661 192.385,256.898 191.854,256.983 191.854 C 257.068 191.854,257.367 191.179,257.648 190.354 C 258.231 188.642,258.546 188.487,258.950 189.711 " stroke="none" fill="#fbfbfb" fill-rule="evenodd"></path><path id="path3" d="M155.801 21.527 C 155.030 22.164,154.153 22.910,153.854 23.186 C 153.555 23.461,153.180 23.793,153.021 23.923 C 152.383 24.445,149.035 28.089,147.803 29.603 C 146.129 31.660,145.766 32.140,145.764 32.298 C 145.763 32.396,145.425 32.899,145.014 33.417 C 144.602 33.935,144.266 34.489,144.266 34.650 C 144.266 34.810,144.176 34.941,144.067 34.941 C 143.958 34.941,143.732 35.206,143.566 35.531 C 142.698 37.223,141.835 38.707,141.650 38.824 C 141.536 38.896,141.436 39.040,141.427 39.145 C 141.404 39.438,140.805 40.822,140.649 40.943 C 140.573 41.002,140.329 41.581,140.106 42.229 C 139.883 42.878,139.619 43.514,139.520 43.642 C 139.421 43.771,139.143 44.495,138.904 45.250 C 138.664 46.006,138.335 46.913,138.173 47.267 C 138.010 47.621,137.761 48.489,137.619 49.196 C 137.476 49.904,137.287 50.579,137.198 50.697 C 136.945 51.033,136.026 56.293,135.662 59.486 C 135.398 61.803,135.564 71.430,135.884 72.347 C 136.008 72.701,136.312 74.292,136.562 75.883 C 136.811 77.474,137.085 78.825,137.169 78.884 C 137.254 78.944,137.503 79.788,137.722 80.761 C 137.940 81.734,138.182 82.529,138.258 82.529 C 138.335 82.529,138.525 83.036,138.683 83.655 C 138.959 84.743,139.322 85.638,140.642 88.479 C 140.985 89.216,141.265 89.908,141.265 90.017 C 141.265 90.127,141.388 90.343,141.538 90.499 C 141.688 90.655,142.048 91.289,142.339 91.908 C 142.629 92.527,142.919 93.033,142.982 93.033 C 143.046 93.033,143.288 93.466,143.521 93.996 C 143.754 94.525,144.014 94.959,144.100 94.960 C 144.185 94.962,144.415 95.276,144.611 95.659 C 144.807 96.042,145.099 96.433,145.259 96.527 C 145.420 96.622,145.552 96.798,145.552 96.920 C 145.552 97.042,145.890 97.553,146.302 98.057 C 146.715 98.560,147.053 99.044,147.053 99.132 C 147.053 99.220,147.318 99.556,147.642 99.879 C 147.966 100.202,148.617 100.940,149.089 101.519 C 150.342 103.059,154.303 106.906,156.242 108.467 C 156.608 108.762,157.164 109.220,157.478 109.486 C 158.658 110.484,158.633 110.698,158.598 99.929 C 158.581 94.780,158.509 90.939,158.437 91.392 L 158.307 92.215 157.840 91.713 C 156.949 90.754,154.344 87.137,154.343 86.856 C 154.341 86.637,154.816 86.589,156.465 86.642 C 157.633 86.679,158.545 86.640,158.492 86.555 C 158.440 86.470,155.256 86.462,151.419 86.536 C 145.535 86.651,144.411 86.625,144.250 86.369 C 144.038 86.035,143.973 70.120,144.182 69.578 C 144.276 69.333,144.602 69.239,145.361 69.239 C 145.937 69.239,146.409 69.162,146.409 69.068 C 146.409 68.974,146.224 68.034,145.998 66.978 C 142.697 51.564,146.529 35.349,156.749 21.493 C 157.710 20.190,157.409 20.201,155.801 21.527 M240.086 30.225 L 230.118 30.339 240.139 30.389 C 246.711 30.422,250.161 30.366,250.161 30.225 C 250.161 30.107,250.137 30.033,250.107 30.061 C 250.078 30.089,245.568 30.163,240.086 30.225 M158.768 30.386 C 158.678 30.532,167.097 30.529,177.278 30.380 C 179.459 30.348,176.209 30.300,170.056 30.274 C 163.902 30.247,158.823 30.297,158.768 30.386 M181.239 49.946 C 181.239 60.616,181.265 64.981,181.297 59.646 C 181.329 54.311,181.329 45.581,181.297 40.247 C 181.265 34.912,181.239 39.277,181.239 49.946 M225.926 34.244 L 225.188 35.048 225.991 34.310 C 226.740 33.622,226.894 33.441,226.730 33.441 C 226.694 33.441,226.333 33.802,225.926 34.244 M221.539 38.424 L 219.400 40.622 221.597 38.482 C 223.638 36.495,223.892 36.227,223.737 36.227 C 223.705 36.227,222.716 37.216,221.539 38.424 M249.935 38.103 L 249.196 38.907 250.000 38.168 C 250.748 37.480,250.902 37.299,250.739 37.299 C 250.703 37.299,250.341 37.661,249.935 38.103 M247.363 40.461 L 246.624 41.265 247.428 40.526 C 248.176 39.838,248.330 39.657,248.166 39.657 C 248.131 39.657,247.769 40.019,247.363 40.461 M216.819 42.926 L 215.756 44.051 216.881 42.988 C 217.927 41.999,218.105 41.801,217.945 41.801 C 217.911 41.801,217.404 42.307,216.819 42.926 M241.683 45.713 L 240.836 46.624 241.747 45.776 C 242.248 45.310,242.658 44.900,242.658 44.865 C 242.658 44.703,242.471 44.865,241.683 45.713 M211.784 47.749 L 210.397 49.196 211.844 47.809 C 213.187 46.521,213.388 46.302,213.231 46.302 C 213.198 46.302,212.547 46.953,211.784 47.749 M238.899 48.285 L 237.835 49.411 238.960 48.347 C 239.579 47.762,240.086 47.255,240.086 47.221 C 240.086 47.061,239.887 47.239,238.899 48.285 M236.964 50.000 L 236.334 50.697 237.031 50.067 C 237.680 49.480,237.826 49.303,237.661 49.303 C 237.624 49.303,237.310 49.617,236.964 50.000 M233.968 52.787 L 232.905 53.912 234.030 52.848 C 234.649 52.263,235.155 51.757,235.155 51.723 C 235.155 51.563,234.957 51.741,233.968 52.787 M206.634 52.680 L 205.895 53.483 206.699 52.745 C 207.447 52.057,207.601 51.876,207.438 51.876 C 207.402 51.876,207.040 52.237,206.634 52.680 M256.217 53.055 C 256.219 53.526,256.263 53.694,256.315 53.427 C 256.366 53.161,256.364 52.775,256.310 52.570 C 256.257 52.365,256.215 52.583,256.217 53.055 M231.180 55.359 L 230.332 56.270 231.243 55.423 C 231.744 54.957,232.154 54.547,232.154 54.512 C 232.154 54.350,231.968 54.512,231.180 55.359 M202.244 56.860 L 200.965 58.199 202.304 56.920 C 203.041 56.216,203.644 55.613,203.644 55.580 C 203.644 55.422,203.433 55.615,202.244 56.860 M256.217 58.842 C 256.219 59.314,256.263 59.482,256.315 59.215 C 256.366 58.948,256.364 58.563,256.310 58.358 C 256.257 58.153,256.215 58.371,256.217 58.842 M226.152 59.914 C 225.632 60.445,225.254 60.879,225.313 60.879 C 225.372 60.879,225.846 60.445,226.367 59.914 C 226.887 59.384,227.265 58.950,227.206 58.950 C 227.147 58.950,226.673 59.384,226.152 59.914 M197.101 61.790 L 195.391 63.558 197.160 61.849 C 198.132 60.908,198.928 60.112,198.928 60.080 C 198.928 59.924,198.689 60.147,197.101 61.790 M223.354 62.540 L 222.615 63.344 223.419 62.605 C 223.861 62.199,224.223 61.837,224.223 61.801 C 224.223 61.638,224.042 61.792,223.354 62.540 M192.384 66.292 L 190.890 67.846 192.444 66.351 C 193.887 64.963,194.096 64.737,193.939 64.737 C 193.906 64.737,193.207 65.437,192.384 66.292 M217.889 67.578 L 217.042 68.489 217.953 67.641 C 218.800 66.853,218.962 66.667,218.800 66.667 C 218.765 66.667,218.355 67.077,217.889 67.578 M215.317 69.936 L 214.469 70.847 215.380 69.999 C 216.228 69.211,216.390 69.025,216.228 69.025 C 216.193 69.025,215.783 69.435,215.317 69.936 M212.640 72.401 L 211.468 73.633 212.701 72.462 C 213.379 71.817,213.934 71.263,213.934 71.229 C 213.934 71.070,213.729 71.256,212.640 72.401 M215.434 77.881 C 215.434 77.917,215.748 78.231,216.131 78.577 L 216.827 79.207 216.198 78.510 C 215.611 77.861,215.434 77.715,215.434 77.881 M220.579 83.668 C 220.579 83.705,220.892 84.019,221.275 84.365 L 221.972 84.995 221.343 84.298 C 220.756 83.649,220.579 83.503,220.579 83.668 M181.279 86.531 C 181.105 86.705,181.091 118.890,181.265 119.537 C 181.586 120.734,199.180 121.168,200.571 120.014 C 200.717 119.893,202.071 119.509,203.580 119.160 C 208.878 117.935,217.861 114.501,218.509 113.451 C 218.584 113.330,217.949 112.414,217.097 111.417 L 215.548 109.603 214.892 109.877 C 208.354 112.609,192.591 112.140,183.173 108.934 L 181.458 108.350 181.402 97.479 L 181.347 86.608 188.583 86.549 L 195.820 86.489 188.621 86.439 C 184.661 86.411,181.358 86.452,181.279 86.531 M224.223 87.741 C 224.223 87.778,224.536 88.092,224.920 88.438 L 225.616 89.068 224.987 88.371 C 224.400 87.721,224.223 87.576,224.223 87.741 M225.723 89.456 C 225.723 89.493,226.037 89.807,226.420 90.153 L 227.117 90.782 226.487 90.086 C 225.900 89.436,225.723 89.291,225.723 89.456 M239.965 95.445 L 239.335 96.141 240.032 95.512 C 240.415 95.166,240.729 94.852,240.729 94.815 C 240.729 94.650,240.552 94.795,239.965 95.445 M209.003 102.104 C 209.003 102.140,209.317 102.454,209.700 102.800 L 210.397 103.430 209.767 102.733 C 209.180 102.084,209.003 101.938,209.003 102.104 " stroke="none" fill="#abcae2" fill-rule="evenodd"></path><path id="path4" d="M244.568 21.615 C 244.684 21.831,244.947 22.144,245.153 22.311 C 245.384 22.499,245.332 22.350,245.017 21.919 C 244.454 21.149,244.243 21.006,244.568 21.615 M245.873 23.312 C 246.153 23.695,246.416 24.009,246.457 24.009 C 246.620 24.009,246.089 23.205,245.737 22.919 C 245.506 22.731,245.557 22.881,245.873 23.312 M247.990 26.474 C 248.105 26.710,248.357 27.095,248.549 27.331 L 248.898 27.760 248.688 27.331 C 248.572 27.095,248.320 26.710,248.128 26.474 L 247.779 26.045 247.990 26.474 M158.731 49.946 C 158.731 60.616,158.757 64.981,158.789 59.646 C 158.821 54.311,158.821 45.581,158.789 40.247 C 158.757 34.912,158.731 39.277,158.731 49.946 M228.818 31.565 L 228.189 32.262 228.885 31.632 C 229.535 31.045,229.681 30.868,229.515 30.868 C 229.478 30.868,229.165 31.182,228.818 31.565 M252.692 35.906 C 252.801 36.141,252.943 36.479,253.009 36.656 C 253.112 36.934,253.130 36.932,253.145 36.643 C 253.154 36.460,253.012 36.122,252.828 35.893 C 252.500 35.484,252.498 35.484,252.692 35.906 M223.365 36.763 C 222.845 37.294,222.467 37.728,222.526 37.728 C 222.585 37.728,223.059 37.294,223.580 36.763 C 224.101 36.233,224.478 35.798,224.419 35.798 C 224.360 35.798,223.886 36.233,223.365 36.763 M253.624 38.478 C 253.624 38.596,253.753 39.030,253.912 39.443 C 254.071 39.855,254.204 40.048,254.208 39.871 C 254.211 39.695,254.082 39.260,253.920 38.907 C 253.758 38.553,253.625 38.360,253.624 38.478 M218.638 41.318 L 217.899 42.122 218.703 41.383 C 219.451 40.696,219.606 40.514,219.442 40.514 C 219.406 40.514,219.044 40.876,218.638 41.318 M245.862 41.747 L 245.123 42.551 245.927 41.812 C 246.675 41.125,246.830 40.943,246.666 40.943 C 246.630 40.943,246.268 41.305,245.862 41.747 M254.900 42.872 C 254.892 43.049,255.019 43.676,255.183 44.266 C 255.347 44.855,255.488 45.193,255.497 45.016 C 255.505 44.839,255.377 44.212,255.213 43.623 C 255.049 43.033,254.908 42.696,254.900 42.872 M243.181 44.212 L 242.551 44.909 243.248 44.279 C 243.897 43.692,244.043 43.516,243.877 43.516 C 243.840 43.516,243.527 43.829,243.181 44.212 M214.136 45.606 L 213.398 46.409 214.202 45.671 C 214.950 44.983,215.104 44.802,214.940 44.802 C 214.904 44.802,214.543 45.163,214.136 45.606 M256.128 49.946 C 256.206 50.831,256.270 53.532,256.270 55.949 C 256.270 58.365,256.206 61.066,256.128 61.951 C 256.006 63.326,256.019 63.435,256.218 62.701 C 256.358 62.183,256.450 59.512,256.450 55.949 C 256.450 52.386,256.358 49.714,256.218 49.196 C 256.019 48.462,256.006 48.571,256.128 49.946 M209.635 49.893 L 208.896 50.697 209.700 49.958 C 210.448 49.270,210.602 49.089,210.439 49.089 C 210.403 49.089,210.041 49.451,209.635 49.893 M232.677 53.859 L 232.047 54.555 232.744 53.926 C 233.393 53.339,233.539 53.162,233.373 53.162 C 233.337 53.162,233.023 53.475,232.677 53.859 M204.930 54.341 C 204.410 54.871,204.032 55.305,204.091 55.305 C 204.150 55.305,204.624 54.871,205.145 54.341 C 205.665 53.810,206.043 53.376,205.984 53.376 C 205.925 53.376,205.451 53.810,204.930 54.341 M199.345 59.753 L 198.607 60.557 199.411 59.819 C 200.159 59.131,200.313 58.950,200.149 58.950 C 200.113 58.950,199.752 59.311,199.345 59.753 M194.629 64.255 L 193.891 65.059 194.695 64.320 C 195.443 63.633,195.597 63.451,195.433 63.451 C 195.397 63.451,195.036 63.813,194.629 64.255 M255.105 67.968 C 254.963 68.691,254.798 69.441,254.738 69.636 C 254.647 69.935,254.662 69.940,254.837 69.668 C 255.086 69.281,255.598 66.888,255.461 66.750 C 255.407 66.697,255.247 67.245,255.105 67.968 M190.233 68.435 L 189.603 69.132 190.300 68.502 C 190.683 68.156,190.997 67.842,190.997 67.806 C 190.997 67.640,190.820 67.786,190.233 68.435 M144.149 77.921 C 144.149 82.519,144.177 84.369,144.212 82.033 C 144.247 79.697,144.247 75.935,144.212 73.673 C 144.177 71.411,144.149 73.323,144.149 77.921 M253.848 72.605 C 253.531 73.638,253.684 73.792,254.019 72.776 C 254.161 72.348,254.235 71.955,254.184 71.904 C 254.133 71.853,253.982 72.168,253.848 72.605 M252.947 75.286 C 252.947 75.351,252.801 75.753,252.623 76.180 C 252.445 76.607,252.347 76.956,252.406 76.956 C 252.576 76.956,253.180 75.402,253.057 75.280 C 252.997 75.219,252.947 75.222,252.947 75.286 M251.696 78.359 C 251.337 79.147,251.405 79.315,251.794 78.598 C 251.975 78.264,252.083 77.950,252.034 77.901 C 251.985 77.852,251.833 78.058,251.696 78.359 M250.524 80.924 C 250.328 81.336,250.212 81.672,250.266 81.672 C 250.413 81.672,251.063 80.360,250.965 80.261 C 250.919 80.215,250.720 80.513,250.524 80.924 M249.196 83.387 C 249.013 83.741,248.912 84.030,248.971 84.030 C 249.030 84.030,249.228 83.741,249.411 83.387 C 249.593 83.033,249.695 82.744,249.636 82.744 C 249.577 82.744,249.379 83.033,249.196 83.387 M248.291 84.941 C 247.872 85.483,247.729 85.816,247.983 85.659 C 248.237 85.502,248.745 84.673,248.587 84.673 C 248.538 84.673,248.405 84.794,248.291 84.941 M146.677 86.548 C 148.063 86.585,150.330 86.585,151.715 86.548 C 153.100 86.511,151.967 86.480,149.196 86.480 C 146.426 86.480,145.292 86.511,146.677 86.548 M158.627 88.595 L 158.732 90.782 158.796 88.765 C 158.831 87.656,158.783 86.671,158.690 86.578 C 158.597 86.484,158.569 87.392,158.627 88.595 M246.945 87.031 C 246.693 87.385,246.536 87.674,246.595 87.674 C 246.654 87.674,246.908 87.385,247.160 87.031 C 247.412 86.677,247.569 86.388,247.510 86.388 C 247.451 86.388,247.197 86.677,246.945 87.031 M245.873 88.585 C 245.557 89.016,245.506 89.166,245.737 88.978 C 246.089 88.693,246.620 87.889,246.457 87.889 C 246.416 87.889,246.153 88.202,245.873 88.585 M244.681 90.176 C 244.351 90.609,244.190 90.895,244.324 90.813 C 244.599 90.643,245.527 89.389,245.378 89.389 C 245.325 89.389,245.011 89.743,244.681 90.176 M242.342 92.980 C 241.410 94.011,240.965 94.566,241.352 94.212 C 242.100 93.528,244.258 91.104,244.118 91.104 C 244.073 91.104,243.273 91.948,242.342 92.980 M238.362 97.053 L 237.406 98.071 238.474 97.106 C 239.061 96.576,239.584 96.117,239.635 96.088 C 239.686 96.058,239.636 96.034,239.523 96.034 C 239.410 96.034,238.888 96.492,238.362 97.053 M236.155 98.957 C 235.139 99.748,234.850 100.087,235.531 99.688 C 236.011 99.406,237.428 98.178,237.273 98.178 C 237.208 98.178,236.705 98.528,236.155 98.957 M213.934 115.756 C 213.521 115.982,213.280 116.166,213.398 116.166 C 213.516 116.166,213.950 115.982,214.362 115.756 C 214.775 115.530,215.016 115.345,214.898 115.345 C 214.780 115.345,214.346 115.530,213.934 115.756 M211.361 116.827 C 210.831 117.050,210.541 117.230,210.718 117.228 C 211.078 117.224,212.877 116.433,212.540 116.427 C 212.422 116.424,211.892 116.605,211.361 116.827 M207.931 118.006 C 207.519 118.165,207.326 118.295,207.503 118.295 C 207.680 118.295,208.162 118.165,208.574 118.006 C 208.987 117.848,209.180 117.718,209.003 117.718 C 208.826 117.718,208.344 117.848,207.931 118.006 M203.537 119.192 C 202.427 119.488,202.285 119.561,202.991 119.470 C 204.010 119.339,205.897 118.802,205.359 118.795 C 205.182 118.793,204.362 118.972,203.537 119.192 " stroke="none" fill="#a4b798" fill-rule="evenodd"></path></g></svg>