<svg id="svg" version="1.1" xmlns="http://www.w3.org/2000/svg" xmlns:xlink="http://www.w3.org/1999/xlink" width="400" height="370.22471910112364" viewBox="0, 0, 400,370.22471910112364"><g id="svgg"><path id="path0" d="M349.323 98.973 C 348.950 99.346,341.788 99.471,315.074 99.571 L 281.296 99.698 278.148 102.723 C 276.417 104.387,271.839 108.746,267.976 112.411 C 264.113 116.076,258.863 121.080,256.310 123.532 C 253.756 125.983,250.351 129.233,248.743 130.754 C 247.135 132.274,245.043 134.269,244.094 135.185 C 242.175 137.039,229.385 149.210,225.413 152.962 C 224.010 154.287,221.909 156.287,220.743 157.407 C 219.577 158.528,216.808 161.181,214.589 163.303 C 212.371 165.425,208.803 168.842,206.661 170.895 C 204.519 172.949,199.771 177.463,196.110 180.926 C 192.449 184.389,187.403 189.216,184.898 191.654 C 182.392 194.091,180.198 196.174,180.023 196.283 C 179.848 196.392,176.517 199.551,172.622 203.304 C 168.728 207.056,165.221 210.350,164.830 210.624 C 164.263 211.021,161.728 211.102,152.337 211.024 L 140.556 210.926 140.462 155.278 L 140.368 99.630 108.519 99.630 L 76.669 99.630 76.575 155.278 L 76.481 210.926 55.648 210.916 L 34.815 210.907 34.815 235.326 L 34.815 259.745 55.648 259.595 L 76.481 259.444 76.344 292.778 C 76.268 311.219,76.061 326.268,75.881 326.463 C 74.286 328.186,75.864 332.131,78.842 333.864 C 79.168 334.054,79.604 334.349,79.810 334.519 C 80.017 334.689,80.586 335.159,81.075 335.562 C 81.565 335.966,82.118 336.296,82.305 336.296 C 82.492 336.296,82.878 336.505,83.162 336.759 C 84.328 337.806,84.724 338.069,85.491 338.313 C 85.934 338.453,86.296 338.711,86.296 338.884 C 86.296 339.058,86.796 339.310,87.407 339.444 C 88.019 339.579,88.519 339.812,88.519 339.964 C 88.519 340.285,91.549 341.852,92.170 341.852 C 92.403 341.852,92.593 341.979,92.593 342.134 C 92.593 342.290,92.923 342.581,93.326 342.783 C 93.730 342.984,94.938 343.593,96.011 344.136 C 97.085 344.680,98.505 345.346,99.167 345.616 C 99.829 345.886,100.370 346.233,100.370 346.387 C 100.370 346.541,100.560 346.667,100.793 346.667 C 101.025 346.667,101.983 347.023,102.922 347.458 C 103.861 347.893,104.963 348.384,105.370 348.549 C 105.778 348.714,106.894 349.191,107.850 349.609 C 108.806 350.028,109.746 350.370,109.937 350.370 C 110.129 350.370,110.763 350.619,111.347 350.924 C 111.930 351.228,112.689 351.478,113.034 351.479 C 113.378 351.480,113.754 351.634,113.869 351.820 C 113.984 352.006,114.743 352.270,115.556 352.407 C 116.368 352.545,117.124 352.804,117.236 352.984 C 117.347 353.165,118.264 353.421,119.274 353.555 C 120.285 353.689,121.111 353.932,121.111 354.095 C 121.111 354.258,122.028 354.506,123.148 354.646 C 124.269 354.786,125.185 355.034,125.185 355.198 C 125.185 355.362,126.269 355.613,127.593 355.754 C 128.917 355.896,130.000 356.145,130.000 356.306 C 130.000 356.468,131.417 356.718,133.148 356.862 C 134.880 357.007,136.296 357.272,136.296 357.451 C 136.296 357.631,137.387 357.778,138.721 357.778 L 141.145 357.778 140.914 354.167 C 140.787 352.181,140.655 330.056,140.620 305.000 L 140.556 259.444 161.852 259.362 C 178.189 259.298,183.279 259.385,183.708 259.732 C 184.016 259.981,185.099 261.180,186.115 262.397 C 188.036 264.696,189.549 266.475,190.185 267.181 C 190.389 267.407,191.472 268.673,192.593 269.994 C 194.905 272.719,196.312 274.359,196.852 274.959 C 197.284 275.440,200.957 279.761,202.037 281.059 C 202.444 281.549,202.944 282.138,203.148 282.368 C 204.357 283.731,206.329 286.028,207.778 287.760 C 208.694 288.856,209.613 289.933,209.820 290.154 C 210.027 290.375,211.110 291.635,212.227 292.954 C 213.345 294.273,214.478 295.587,214.746 295.874 C 215.013 296.161,216.430 297.826,217.894 299.573 C 219.358 301.321,220.806 303.020,221.111 303.349 C 221.417 303.678,222.072 304.434,222.567 305.029 C 224.321 307.139,227.225 310.558,227.417 310.741 C 227.644 310.956,231.581 315.548,234.259 318.721 C 235.278 319.928,236.705 321.584,237.430 322.402 C 238.156 323.220,239.557 324.972,240.545 326.296 C 242.467 328.874,245.710 332.655,249.617 336.873 C 250.948 338.310,253.204 340.869,254.630 342.559 C 256.056 344.250,257.525 345.990,257.895 346.427 C 258.265 346.865,259.432 348.206,260.488 349.408 C 261.543 350.610,262.679 352.001,263.012 352.499 C 263.344 352.997,263.716 353.243,263.837 353.047 C 263.958 352.851,265.228 352.575,266.658 352.434 C 268.089 352.293,269.259 352.042,269.259 351.877 C 269.259 351.712,270.086 351.467,271.096 351.333 C 272.106 351.199,273.021 350.947,273.129 350.772 C 273.237 350.597,273.903 350.346,274.610 350.213 C 275.317 350.081,276.360 349.730,276.929 349.433 C 277.498 349.136,278.245 348.892,278.589 348.891 C 278.934 348.890,279.307 348.741,279.418 348.561 C 279.530 348.380,280.207 348.122,280.922 347.988 C 281.637 347.854,282.222 347.585,282.222 347.391 C 282.222 347.196,282.489 347.037,282.814 347.037 C 283.455 347.037,285.994 345.937,286.296 345.529 C 286.398 345.391,287.023 345.161,287.685 345.017 C 288.347 344.873,288.889 344.616,288.889 344.444 C 288.889 344.273,289.389 344.023,290.000 343.889 C 290.611 343.755,291.111 343.510,291.111 343.345 C 291.111 343.180,291.694 342.936,292.407 342.802 C 293.120 342.668,293.704 342.413,293.704 342.235 C 293.704 342.057,294.204 341.801,294.815 341.667 C 295.426 341.532,295.926 341.282,295.926 341.111 C 295.926 340.940,296.426 340.690,297.037 340.556 C 297.648 340.421,298.148 340.171,298.148 340.000 C 298.148 339.829,298.648 339.579,299.259 339.444 C 299.870 339.310,300.370 339.084,300.370 338.941 C 300.370 338.798,300.829 338.484,301.389 338.243 C 302.378 337.817,303.698 337.042,304.074 336.667 C 304.176 336.565,305.093 336.065,306.111 335.556 C 307.130 335.046,308.046 334.537,308.148 334.425 C 308.250 334.312,309.000 333.821,309.815 333.333 C 310.630 332.846,311.380 332.354,311.481 332.242 C 311.583 332.129,312.500 331.460,313.519 330.756 C 314.537 330.051,315.426 329.342,315.494 329.182 C 315.562 329.021,315.845 328.889,316.124 328.889 C 316.402 328.889,316.763 328.668,316.926 328.399 C 317.156 328.019,319.192 326.432,319.938 326.051 C 320.006 326.016,319.756 325.675,319.383 325.294 C 319.009 324.912,317.537 323.282,316.111 321.672 C 314.685 320.061,311.870 316.902,309.854 314.650 C 304.571 308.747,304.333 308.480,299.258 302.778 C 296.719 299.926,294.544 297.509,294.424 297.407 C 294.200 297.218,292.549 295.374,287.963 290.192 C 286.537 288.581,283.787 285.496,281.852 283.337 C 276.132 276.956,273.436 273.938,272.715 273.111 C 271.687 271.932,266.928 266.606,266.296 265.929 C 265.991 265.601,264.574 264.008,263.148 262.390 C 261.722 260.771,259.972 258.798,259.259 258.005 C 258.546 257.212,257.796 256.377,257.593 256.149 C 257.389 255.921,255.806 254.155,254.074 252.225 C 252.343 250.294,250.410 248.129,249.779 247.413 C 249.149 246.697,247.732 245.105,246.631 243.876 C 245.530 242.647,243.463 240.330,242.037 238.729 C 240.611 237.127,239.278 235.633,239.074 235.409 C 238.870 235.184,237.538 233.667,236.113 232.037 C 234.688 230.407,233.188 228.737,232.780 228.325 C 232.371 227.913,230.996 226.392,229.724 224.944 L 227.411 222.312 229.168 220.648 C 230.986 218.926,234.626 215.566,238.119 212.384 C 239.224 211.379,240.569 210.139,241.110 209.630 C 242.929 207.914,249.801 201.623,251.457 200.157 C 252.360 199.358,253.619 198.204,254.253 197.593 C 254.888 196.981,256.399 195.583,257.611 194.484 C 258.823 193.385,260.817 191.552,262.042 190.410 C 263.268 189.268,265.921 186.833,267.939 185.000 C 269.957 183.167,272.665 180.684,273.957 179.483 C 275.250 178.282,276.616 177.032,276.993 176.705 C 277.901 175.917,284.642 169.738,288.147 166.481 C 290.592 164.208,297.903 157.507,299.054 156.481 C 299.483 156.100,300.716 154.967,308.325 147.963 C 314.985 141.833,317.613 139.420,321.844 135.556 C 323.962 133.620,326.789 131.026,328.126 129.789 C 329.462 128.553,331.462 126.720,332.570 125.715 C 333.677 124.711,334.854 123.639,335.184 123.333 C 339.405 119.425,343.880 115.332,345.354 114.029 C 346.364 113.137,348.197 111.472,349.428 110.330 C 353.234 106.797,354.334 105.926,354.989 105.926 C 355.337 105.926,356.332 105.218,357.201 104.352 C 358.070 103.486,359.264 102.415,359.853 101.971 C 361.713 100.573,362.637 99.578,362.489 99.134 C 362.275 98.488,349.959 98.337,349.323 98.973 " stroke="none" fill="#fbfbfb" fill-rule="evenodd"></path><path id="path1" d="M72.220 70.278 C 72.218 70.431,71.601 70.972,70.848 71.481 C 70.095 71.991,69.021 72.824,68.462 73.333 C 67.326 74.368,64.914 76.433,62.984 78.023 C 61.138 79.544,51.102 89.630,49.939 91.133 C 49.397 91.834,48.480 92.922,47.902 93.550 C 46.269 95.327,43.904 98.213,43.750 98.617 C 43.674 98.818,43.340 99.271,43.009 99.624 C 42.093 100.602,40.189 103.124,40.209 103.333 C 40.219 103.435,39.915 103.852,39.533 104.259 C 39.152 104.667,38.485 105.583,38.051 106.296 C 37.618 107.009,37.045 107.726,36.780 107.889 C 36.514 108.052,36.296 108.427,36.296 108.722 C 36.296 109.018,36.133 109.259,35.933 109.259 C 35.733 109.259,35.465 109.676,35.337 110.185 C 35.209 110.694,34.973 111.111,34.812 111.111 C 34.651 111.111,34.189 111.736,33.786 112.500 C 32.152 115.598,31.646 116.471,31.204 116.954 C 30.949 117.232,30.741 117.698,30.741 117.989 C 30.741 118.280,30.587 118.519,30.400 118.519 C 30.212 118.519,29.949 119.019,29.815 119.630 C 29.681 120.241,29.456 120.741,29.315 120.741 C 29.174 120.741,28.645 121.532,28.140 122.500 C 27.635 123.468,27.097 124.315,26.944 124.383 C 26.792 124.451,26.667 124.657,26.667 124.842 C 26.667 125.437,25.056 128.889,24.778 128.889 C 24.630 128.889,24.397 129.556,24.259 130.370 C 24.122 131.185,23.876 131.852,23.714 131.852 C 23.422 131.852,22.846 133.265,22.923 133.796 C 22.945 133.949,22.796 134.074,22.593 134.074 C 22.389 134.074,22.222 134.312,22.222 134.604 C 22.222 134.895,21.722 136.214,21.111 137.534 C 20.500 138.854,20.000 140.283,20.000 140.708 C 20.000 141.133,19.848 141.481,19.662 141.481 C 19.476 141.481,19.212 142.148,19.074 142.963 C 18.936 143.778,18.686 144.444,18.519 144.444 C 18.351 144.444,18.098 145.125,17.958 145.956 C 17.817 146.788,17.470 147.913,17.187 148.456 C 16.903 149.000,16.670 149.903,16.669 150.463 C 16.668 151.023,16.519 151.481,16.338 151.481 C 16.158 151.481,15.894 152.256,15.752 153.203 C 15.610 154.149,15.348 155.191,15.169 155.517 C 14.799 156.195,14.188 158.755,13.591 162.130 C 13.365 163.403,13.064 164.444,12.920 164.444 C 12.777 164.444,12.541 165.861,12.397 167.593 C 12.253 169.324,12.003 170.741,11.843 170.741 C 11.682 170.741,11.432 172.366,11.287 174.352 C 11.142 176.338,10.835 178.197,10.604 178.483 C 10.010 179.220,10.010 215.965,10.604 216.702 C 10.835 216.988,11.142 218.847,11.287 220.833 C 11.432 222.819,11.684 224.526,11.848 224.627 C 12.011 224.728,12.263 226.145,12.407 227.776 C 12.552 229.406,12.800 230.741,12.958 230.741 C 13.117 230.741,13.363 231.824,13.505 233.148 C 13.647 234.472,13.897 235.556,14.061 235.556 C 14.225 235.556,14.473 236.470,14.613 237.587 C 14.752 238.704,15.006 239.704,15.176 239.809 C 15.347 239.915,15.601 240.834,15.741 241.852 C 15.881 242.870,16.127 243.784,16.288 243.884 C 16.449 243.983,16.694 244.817,16.832 245.736 C 16.970 246.655,17.239 247.407,17.430 247.407 C 17.621 247.407,17.778 247.705,17.778 248.068 C 17.778 248.695,18.911 252.295,19.610 253.889 C 19.789 254.296,20.323 255.630,20.797 256.852 C 21.272 258.074,21.745 259.157,21.848 259.259 C 21.952 259.361,22.095 259.778,22.167 260.185 C 22.238 260.593,22.468 261.032,22.677 261.162 C 22.887 261.292,22.943 261.584,22.803 261.810 C 22.663 262.037,22.685 262.222,22.851 262.222 C 23.017 262.222,23.379 262.764,23.656 263.426 C 23.932 264.088,24.473 265.260,24.857 266.030 C 25.241 266.800,25.556 267.685,25.556 267.996 C 25.556 268.308,25.722 268.459,25.926 268.333 C 26.130 268.207,26.296 268.373,26.296 268.701 C 26.296 269.365,27.805 272.337,28.241 272.531 C 28.394 272.599,28.519 272.906,28.519 273.213 C 28.519 273.521,28.852 274.196,29.259 274.714 C 29.667 275.232,30.000 275.883,30.000 276.161 C 30.000 276.439,30.153 276.667,30.341 276.667 C 30.528 276.667,30.792 277.167,30.926 277.778 C 31.060 278.389,31.320 278.889,31.504 278.889 C 31.687 278.889,31.939 279.293,32.063 279.788 C 32.188 280.283,32.524 280.777,32.811 280.888 C 33.098 280.998,33.333 281.343,33.333 281.655 C 33.333 281.967,33.500 282.222,33.704 282.222 C 33.907 282.222,34.074 282.460,34.074 282.751 C 34.074 283.042,34.282 283.508,34.537 283.785 C 35.163 284.468,35.852 285.566,36.288 286.574 C 36.486 287.032,36.819 287.407,37.028 287.407 C 37.237 287.407,37.407 287.592,37.407 287.817 C 37.407 288.250,39.611 291.209,40.090 291.420 C 40.244 291.488,40.370 291.785,40.370 292.080 C 40.370 292.374,40.620 292.712,40.926 292.829 C 41.231 292.946,41.481 293.190,41.481 293.370 C 41.481 293.656,43.154 296.001,44.398 297.459 C 45.007 298.173,46.150 299.551,47.720 301.466 C 49.547 303.693,51.425 305.760,54.089 308.474 C 55.313 309.721,56.227 310.741,56.120 310.741 C 56.013 310.741,56.218 311.048,56.574 311.423 C 56.931 311.798,57.322 312.054,57.444 311.991 C 57.566 311.928,58.483 312.721,59.481 313.752 C 60.479 314.784,61.784 316.070,62.380 316.610 C 62.977 317.150,63.768 317.884,64.140 318.241 C 64.511 318.597,64.906 318.889,65.018 318.889 C 65.129 318.889,65.588 319.266,66.036 319.727 C 66.709 320.418,68.260 321.709,70.926 323.798 C 71.130 323.957,71.697 324.418,72.186 324.822 C 72.676 325.225,73.178 325.556,73.301 325.556 C 73.425 325.556,73.967 325.964,74.505 326.463 L 75.484 327.371 75.697 326.522 C 75.815 326.055,75.921 314.730,75.934 301.356 L 75.957 277.039 75.150 276.205 C 73.473 274.469,67.134 266.300,65.000 263.123 L 62.778 259.815 49.444 259.923 C 42.111 259.982,35.736 259.937,35.278 259.823 L 34.444 259.616 34.444 235.185 L 34.444 210.755 35.376 210.521 C 35.888 210.393,37.453 210.352,38.854 210.431 C 41.384 210.574,41.398 210.570,41.075 209.720 C 40.705 208.746,39.580 203.265,38.738 198.333 C 36.057 182.631,36.058 161.910,38.741 146.111 C 43.129 120.271,53.353 96.416,68.620 76.397 C 72.949 70.722,73.397 70.000,72.593 70.000 C 72.389 70.000,72.221 70.125,72.220 70.278 M76.540 99.165 C 76.445 99.319,90.768 99.401,108.369 99.348 L 140.370 99.251 140.370 154.789 C 140.370 185.335,140.495 210.404,140.648 210.498 C 140.801 210.593,140.843 185.561,140.741 154.872 L 140.556 99.074 108.634 98.979 C 91.078 98.927,76.635 99.011,76.540 99.165 M296.231 99.167 C 304.242 99.222,317.242 99.222,325.120 99.167 C 332.998 99.111,326.444 99.065,310.556 99.065 C 294.667 99.065,288.221 99.111,296.231 99.167 M275.556 104.630 C 274.656 105.546,274.003 106.296,274.105 106.296 C 274.207 106.296,275.026 105.546,275.926 104.630 C 276.826 103.713,277.478 102.963,277.376 102.963 C 277.275 102.963,276.455 103.713,275.556 104.630 M267.407 112.407 C 266.508 113.324,265.855 114.074,265.957 114.074 C 266.059 114.074,266.878 113.324,267.778 112.407 C 268.677 111.491,269.330 110.741,269.228 110.741 C 269.126 110.741,268.307 111.491,267.407 112.407 M260.174 119.352 L 257.963 121.667 260.278 119.456 C 261.551 118.240,262.593 117.199,262.593 117.141 C 262.593 116.868,262.227 117.202,260.174 119.352 M334.977 123.796 L 333.889 125.000 335.093 123.912 C 335.755 123.314,336.296 122.772,336.296 122.708 C 336.296 122.422,335.991 122.674,334.977 123.796 M252.023 127.130 L 250.185 129.074 252.130 127.236 C 253.936 125.528,254.244 125.185,253.968 125.185 C 253.909 125.185,253.034 126.060,252.023 127.130 M243.704 135.000 C 242.804 135.917,242.151 136.667,242.253 136.667 C 242.355 136.667,243.174 135.917,244.074 135.000 C 244.974 134.083,245.626 133.333,245.525 133.333 C 245.423 133.333,244.603 134.083,243.704 135.000 M235.556 142.778 C 234.656 143.694,234.003 144.444,234.105 144.444 C 234.207 144.444,235.026 143.694,235.926 142.778 C 236.826 141.861,237.478 141.111,237.376 141.111 C 237.275 141.111,236.455 141.861,235.556 142.778 M312.384 144.537 L 311.296 145.741 312.500 144.653 C 313.162 144.055,313.704 143.513,313.704 143.449 C 313.704 143.163,313.398 143.415,312.384 144.537 M228.499 149.537 L 227.222 150.926 228.611 149.650 C 229.904 148.462,230.170 148.148,229.887 148.148 C 229.826 148.148,229.201 148.773,228.499 149.537 M219.630 157.963 C 218.730 158.880,218.077 159.630,218.179 159.630 C 218.281 159.630,219.100 158.880,220.000 157.963 C 220.900 157.046,221.552 156.296,221.451 156.296 C 221.349 156.296,220.529 157.046,219.630 157.963 M212.593 164.630 C 211.693 165.546,211.040 166.296,211.142 166.296 C 211.244 166.296,212.063 165.546,212.963 164.630 C 213.863 163.713,214.515 162.963,214.413 162.963 C 214.312 162.963,213.492 163.713,212.593 164.630 M285.347 169.352 L 284.259 170.556 285.463 169.468 C 286.125 168.869,286.667 168.328,286.667 168.264 C 286.667 167.978,286.361 168.230,285.347 169.352 M204.612 172.315 L 203.148 173.889 204.722 172.425 C 206.186 171.063,206.466 170.741,206.186 170.741 C 206.126 170.741,205.417 171.449,204.612 172.315 M281.643 172.685 L 280.556 173.889 281.759 172.801 C 282.421 172.203,282.963 171.661,282.963 171.597 C 282.963 171.311,282.657 171.563,281.643 172.685 M195.556 180.926 C 194.656 181.843,194.003 182.593,194.105 182.593 C 194.207 182.593,195.026 181.843,195.926 180.926 C 196.826 180.009,197.478 179.259,197.376 179.259 C 197.275 179.259,196.455 180.009,195.556 180.926 M272.014 181.574 L 270.926 182.778 272.130 181.690 C 272.792 181.092,273.333 180.550,273.333 180.486 C 273.333 180.200,273.028 180.452,272.014 181.574 M188.310 187.870 L 187.222 189.074 188.426 187.986 C 189.548 186.972,189.800 186.667,189.514 186.667 C 189.450 186.667,188.908 187.208,188.310 187.870 M263.125 189.722 L 262.037 190.926 263.241 189.838 C 263.903 189.240,264.444 188.698,264.444 188.634 C 264.444 188.348,264.139 188.600,263.125 189.722 M180.538 195.278 L 179.074 196.852 180.648 195.388 C 181.514 194.583,182.222 193.874,182.222 193.814 C 182.222 193.534,181.900 193.814,180.538 195.278 M171.481 203.889 C 170.582 204.806,169.929 205.556,170.031 205.556 C 170.133 205.556,170.952 204.806,171.852 203.889 C 172.751 202.972,173.404 202.222,173.302 202.222 C 173.201 202.222,172.381 202.972,171.481 203.889 M244.977 206.389 L 243.889 207.593 245.093 206.505 C 245.755 205.906,246.296 205.365,246.296 205.301 C 246.296 205.015,245.991 205.267,244.977 206.389 M165.347 209.722 L 164.259 210.926 165.463 209.838 C 166.585 208.824,166.837 208.519,166.551 208.519 C 166.487 208.519,165.945 209.060,165.347 209.722 M236.458 214.167 L 235.370 215.370 236.574 214.283 C 237.236 213.684,237.778 213.143,237.778 213.079 C 237.778 212.793,237.472 213.045,236.458 214.167 M232.014 218.241 L 230.926 219.444 232.130 218.357 C 232.792 217.758,233.333 217.217,233.333 217.153 C 233.333 216.867,233.028 217.119,232.014 218.241 M241.111 237.523 C 241.111 237.587,241.653 238.129,242.315 238.727 L 243.519 239.815 242.431 238.611 C 241.417 237.489,241.111 237.237,241.111 237.523 M140.640 291.111 C 140.692 308.120,140.822 329.566,140.930 338.768 L 141.126 355.498 143.619 355.730 C 144.989 355.857,146.386 356.111,146.722 356.294 C 147.058 356.477,149.433 356.743,152.000 356.886 C 154.567 357.029,156.667 357.288,156.667 357.462 C 156.667 357.876,183.970 357.875,184.226 357.461 C 184.334 357.286,186.469 357.025,188.971 356.880 C 191.472 356.736,193.677 356.462,193.870 356.272 C 194.064 356.081,194.691 355.926,195.264 355.926 C 195.837 355.926,196.596 355.765,196.949 355.568 C 197.303 355.371,199.759 354.771,202.407 354.235 C 216.185 351.447,228.499 347.235,241.296 340.933 C 250.232 336.533,249.823 337.674,244.638 331.618 C 242.219 328.793,240.215 326.441,240.184 326.391 C 240.152 326.341,238.807 326.624,237.193 327.020 C 225.945 329.781,220.527 330.677,209.148 331.655 C 190.773 333.236,171.374 331.249,152.037 325.807 C 148.627 324.848,141.672 322.480,141.206 322.120 C 140.846 321.843,140.723 314.999,140.646 290.975 L 140.547 260.185 140.640 291.111 M293.333 296.042 C 293.333 296.106,293.875 296.647,294.537 297.246 L 295.741 298.333 294.653 297.130 C 293.639 296.008,293.333 295.756,293.333 296.042 " stroke="none" fill="#abcbe3" fill-rule="evenodd"></path><path id="path2" d="M180.278 12.476 C 178.699 12.557,177.407 12.763,177.407 12.934 C 177.407 13.105,175.657 13.364,173.518 13.510 C 171.379 13.656,169.545 13.912,169.442 14.078 C 169.339 14.245,168.003 14.499,166.474 14.642 C 164.944 14.786,163.612 15.033,163.514 15.193 C 163.415 15.352,162.334 15.599,161.112 15.741 C 159.889 15.883,158.889 16.127,158.889 16.285 C 158.889 16.442,157.894 16.684,156.678 16.821 C 155.462 16.959,154.382 17.208,154.279 17.376 C 154.175 17.543,153.254 17.791,152.231 17.927 C 151.207 18.063,150.370 18.335,150.370 18.531 C 150.370 18.728,150.065 18.889,149.692 18.889 C 148.895 18.889,144.057 20.346,143.519 20.749 C 143.315 20.901,142.565 21.147,141.852 21.296 C 141.139 21.445,140.389 21.695,140.185 21.852 C 139.981 22.009,139.273 22.253,138.611 22.394 C 137.949 22.536,137.407 22.805,137.407 22.992 C 137.407 23.180,137.155 23.333,136.847 23.333 C 136.539 23.333,135.997 23.494,135.643 23.691 C 134.484 24.335,131.531 25.556,131.131 25.556 C 130.917 25.556,130.741 25.709,130.741 25.896 C 130.741 26.084,130.241 26.347,129.630 26.481 C 129.019 26.616,128.519 26.879,128.519 27.066 C 128.519 27.254,128.185 27.407,127.776 27.407 C 127.368 27.407,126.412 27.741,125.652 28.148 C 124.892 28.556,124.059 28.889,123.802 28.889 C 123.544 28.889,123.333 29.052,123.333 29.252 C 123.333 29.452,122.917 29.720,122.407 29.848 C 121.898 29.976,121.481 30.211,121.481 30.370 C 121.481 30.530,121.025 30.775,120.467 30.915 C 119.909 31.055,119.367 31.282,119.263 31.418 C 119.159 31.555,118.282 32.080,117.315 32.585 C 116.347 33.090,115.556 33.632,115.556 33.789 C 115.556 33.946,115.343 34.074,115.084 34.074 C 114.825 34.074,113.727 34.657,112.644 35.370 C 111.562 36.083,110.524 36.667,110.338 36.667 C 110.152 36.667,110.000 36.815,110.000 36.997 C 110.000 37.179,109.583 37.432,109.074 37.559 C 108.565 37.687,108.148 37.955,108.148 38.155 C 108.148 38.355,107.940 38.521,107.685 38.524 C 107.431 38.528,106.639 39.026,105.926 39.632 C 105.213 40.237,104.428 40.901,104.182 41.107 C 103.936 41.313,103.556 41.481,103.337 41.481 C 103.119 41.481,102.844 41.731,102.727 42.037 C 102.609 42.343,102.280 42.593,101.994 42.593 C 101.708 42.593,101.189 42.926,100.840 43.333 C 100.491 43.741,100.054 44.074,99.868 44.074 C 99.682 44.074,99.143 44.491,98.671 45.000 C 98.199 45.509,97.647 45.926,97.443 45.926 C 97.239 45.926,96.506 46.509,95.814 47.222 C 95.121 47.935,94.424 48.519,94.264 48.519 C 94.105 48.519,93.618 48.894,93.182 49.352 C 92.747 49.810,91.561 50.851,90.547 51.664 C 88.480 53.323,76.788 65.037,75.926 66.313 C 75.620 66.765,74.764 67.706,74.022 68.405 C 73.201 69.177,72.737 69.919,72.836 70.300 C 72.999 70.929,72.402 71.877,70.000 74.806 C 63.413 82.839,54.452 98.063,49.654 109.374 C 46.307 117.266,42.308 129.315,41.088 135.185 C 38.166 149.242,37.687 152.733,37.014 164.877 C 36.226 179.095,37.516 193.203,41.036 208.889 L 41.327 210.185 58.719 210.185 L 76.111 210.185 76.205 154.537 L 76.299 98.889 108.480 98.889 C 137.484 98.889,140.684 98.947,140.886 99.475 C 141.010 99.797,141.111 124.880,141.111 155.215 L 141.111 210.370 152.814 210.370 L 164.517 210.370 168.277 206.774 C 170.345 204.796,174.048 201.254,176.505 198.903 C 178.962 196.553,182.462 193.218,184.283 191.493 C 186.103 189.768,189.509 186.524,191.852 184.283 C 194.194 182.042,197.869 178.537,200.018 176.493 C 202.167 174.450,205.667 171.121,207.796 169.096 C 209.925 167.072,213.500 163.651,215.741 161.494 C 217.981 159.338,223.062 154.494,227.032 150.731 C 231.001 146.968,236.168 142.051,238.513 139.804 C 243.278 135.240,249.128 129.651,250.908 127.963 C 252.190 126.748,264.391 115.128,269.965 109.815 C 271.889 107.981,275.225 104.777,277.379 102.693 L 281.296 98.905 310.312 98.897 L 339.327 98.889 338.048 96.574 C 335.220 91.456,334.616 90.422,332.541 87.152 C 329.826 82.872,326.457 78.043,323.652 74.412 C 322.458 72.866,321.481 71.383,321.481 71.116 C 321.481 70.667,320.045 68.759,317.791 66.214 C 315.797 63.962,304.511 52.593,304.270 52.593 C 304.130 52.593,303.266 51.843,302.349 50.926 C 301.432 50.009,300.570 49.258,300.434 49.257 C 300.297 49.257,299.574 48.715,298.826 48.054 C 296.635 46.115,295.776 45.426,294.331 44.444 C 293.582 43.935,292.967 43.394,292.965 43.241 C 292.964 43.088,292.711 42.963,292.404 42.963 C 292.096 42.963,291.559 42.630,291.210 42.222 C 290.862 41.815,290.363 41.481,290.103 41.481 C 289.843 41.481,289.630 41.326,289.630 41.136 C 289.630 40.946,289.291 40.683,288.877 40.552 C 288.463 40.420,287.729 39.951,287.246 39.508 C 286.025 38.391,285.247 37.778,285.048 37.778 C 284.955 37.778,283.994 37.194,282.911 36.481 C 281.829 35.769,280.745 35.185,280.502 35.185 C 280.260 35.185,280.006 35.051,279.938 34.888 C 279.769 34.480,275.373 31.852,274.859 31.852 C 274.631 31.852,274.444 31.703,274.444 31.522 C 274.444 31.340,273.988 31.077,273.430 30.937 C 272.871 30.797,272.330 30.570,272.226 30.433 C 271.948 30.067,268.692 28.519,268.200 28.519 C 267.968 28.519,267.778 28.365,267.778 28.178 C 267.778 27.990,267.278 27.727,266.667 27.593 C 266.056 27.458,265.556 27.208,265.556 27.037 C 265.556 26.866,265.056 26.616,264.444 26.481 C 263.833 26.347,263.333 26.099,263.333 25.929 C 263.333 25.759,262.667 25.508,261.852 25.370 C 261.037 25.233,260.370 24.976,260.370 24.799 C 260.370 24.622,259.787 24.369,259.074 24.235 C 258.361 24.101,257.778 23.844,257.778 23.662 C 257.778 23.481,257.444 23.333,257.037 23.333 C 256.630 23.333,256.296 23.167,256.296 22.963 C 256.296 22.759,256.005 22.592,255.648 22.590 C 255.292 22.589,254.535 22.345,253.966 22.049 C 253.397 21.752,252.355 21.401,251.651 21.269 C 250.947 21.137,250.370 20.899,250.370 20.742 C 250.370 20.584,249.620 20.342,248.704 20.205 C 247.787 20.067,247.037 19.817,247.037 19.649 C 247.037 19.481,246.291 19.231,245.379 19.095 C 244.467 18.958,243.627 18.694,243.512 18.508 C 243.397 18.322,242.476 18.060,241.466 17.926 C 240.456 17.792,239.630 17.554,239.630 17.396 C 239.630 17.239,238.630 16.994,237.407 16.852 C 236.185 16.710,235.185 16.454,235.185 16.282 C 235.185 16.111,234.019 15.856,232.593 15.715 C 231.167 15.575,230.000 15.332,230.000 15.175 C 230.000 15.018,228.792 14.771,227.315 14.626 C 225.838 14.481,224.463 14.232,224.259 14.074 C 224.056 13.915,222.306 13.665,220.370 13.519 C 218.435 13.372,216.624 13.067,216.346 12.841 C 215.844 12.433,186.797 12.139,180.278 12.476 M344.630 115.398 C 343.483 116.380,338.228 121.192,333.332 125.741 C 331.798 127.167,328.805 129.917,326.682 131.852 C 324.558 133.787,321.811 136.299,320.577 137.434 C 311.873 145.437,307.871 149.106,304.846 151.852 C 302.938 153.583,300.931 155.417,300.385 155.926 C 299.839 156.435,297.571 158.518,295.345 160.554 C 289.815 165.611,288.076 167.211,284.639 170.404 C 281.303 173.503,277.460 177.038,276.824 177.593 C 276.088 178.235,273.239 180.831,270.734 183.143 C 269.406 184.368,266.572 186.972,264.437 188.929 C 262.302 190.886,260.056 192.947,259.444 193.508 C 256.134 196.552,251.643 200.666,250.790 201.436 C 250.254 201.920,248.981 203.090,247.963 204.035 C 244.976 206.805,237.362 213.776,235.573 215.376 C 234.667 216.188,232.619 218.102,231.023 219.630 L 228.121 222.407 228.968 223.339 C 229.714 224.160,233.581 228.463,237.407 232.731 C 238.120 233.527,238.870 234.362,239.074 234.589 C 239.278 234.815,240.611 236.333,242.037 237.963 C 243.463 239.592,244.812 241.092,245.035 241.296 C 245.258 241.500,247.492 244.000,249.998 246.852 C 252.505 249.704,255.325 252.870,256.264 253.889 C 257.203 254.907,259.136 257.074,260.560 258.704 C 261.983 260.333,263.241 261.750,263.354 261.852 C 263.467 261.954,265.712 264.454,268.342 267.407 C 273.482 273.179,274.362 274.165,277.443 277.605 C 278.544 278.835,280.528 281.070,281.852 282.574 C 283.176 284.077,284.426 285.492,284.630 285.718 C 284.833 285.945,285.750 286.966,286.667 287.987 C 287.583 289.009,289.528 291.171,290.988 292.793 C 292.447 294.414,294.001 296.199,294.440 296.759 C 295.538 298.160,295.585 298.143,299.593 294.910 C 350.548 253.808,370.434 180.240,347.518 117.617 C 346.279 114.231,346.127 114.114,344.630 115.398 M63.333 260.213 C 63.333 261.188,75.283 276.729,75.682 276.273 C 75.760 276.184,75.935 272.486,76.071 268.056 L 76.319 260.000 69.826 260.000 C 66.255 260.000,63.333 260.096,63.333 260.213 M141.111 290.904 C 141.111 315.224,141.210 321.871,141.574 322.102 C 143.077 323.054,154.793 326.486,163.519 328.529 C 165.299 328.946,172.374 330.133,176.481 330.703 C 187.165 332.186,206.539 332.186,217.222 330.703 C 221.331 330.133,228.405 328.946,230.185 328.529 C 239.938 326.244,240.015 326.214,239.016 325.091 C 238.609 324.634,235.862 321.426,232.912 317.963 C 229.961 314.500,221.134 304.167,213.297 295.000 C 205.459 285.833,198.636 277.847,198.135 277.254 C 197.633 276.660,196.556 275.403,195.741 274.461 C 194.926 273.519,193.426 271.767,192.407 270.568 C 189.066 266.634,185.759 262.804,184.724 261.670 C 184.165 261.057,183.706 260.431,183.705 260.278 C 183.704 260.125,174.120 260.000,162.407 260.000 L 141.111 260.000 141.111 290.904 M338.519 308.874 C 337.236 310.265,336.993 310.836,338.152 309.734 C 338.842 309.079,339.332 308.481,339.240 308.407 C 339.149 308.333,338.824 308.543,338.519 308.874 " stroke="none" fill="#34547c" fill-rule="evenodd"></path><path id="path3" d="M321.481 71.356 C 321.481 71.491,322.458 72.866,323.652 74.412 C 326.457 78.043,329.826 82.872,332.541 87.152 C 334.616 90.422,335.220 91.456,338.048 96.574 L 339.327 98.889 344.293 98.889 C 349.879 98.889,349.944 98.847,347.943 96.526 C 347.218 95.687,345.927 94.182,345.072 93.182 C 339.908 87.139,330.092 77.407,329.162 77.407 C 328.988 77.407,328.948 77.241,329.074 77.037 C 329.200 76.833,329.138 76.667,328.937 76.667 C 328.736 76.667,327.991 76.125,327.282 75.463 C 326.573 74.801,325.632 74.009,325.191 73.704 C 324.750 73.398,323.872 72.690,323.239 72.130 C 322.120 71.139,321.481 70.858,321.481 71.356 M279.247 101.019 L 277.222 103.148 279.436 101.111 C 280.653 99.991,281.723 99.032,281.812 98.981 C 281.902 98.931,281.817 98.889,281.623 98.889 C 281.429 98.889,280.360 99.847,279.247 101.019 M140.924 155.185 L 140.926 210.556 152.569 210.654 C 158.972 210.707,164.339 210.624,164.495 210.468 C 164.651 210.313,159.454 210.231,152.946 210.288 L 141.114 210.390 141.018 155.103 L 140.922 99.815 140.924 155.185 M271.653 108.241 L 269.815 110.185 271.759 108.347 C 273.566 106.639,273.874 106.296,273.597 106.296 C 273.539 106.296,272.664 107.171,271.653 108.241 M352.407 108.065 C 351.389 109.029,349.222 111.054,347.593 112.566 C 345.963 114.077,344.928 115.092,345.293 114.821 C 346.179 114.163,346.379 114.439,347.700 118.148 C 352.134 130.603,354.701 141.969,356.314 156.296 C 360.643 194.738,348.753 237.005,324.710 268.651 C 317.222 278.507,303.436 292.513,296.314 297.502 L 295.450 298.107 296.939 299.702 C 298.218 301.070,302.134 305.451,306.974 310.926 C 307.694 311.741,309.045 313.241,309.975 314.261 C 310.905 315.280,312.833 317.444,314.259 319.070 C 319.983 325.596,320.096 325.694,320.982 324.933 C 321.709 324.310,323.344 322.968,325.305 321.387 C 327.965 319.241,329.714 317.700,331.819 315.648 C 333.126 314.375,334.344 313.333,334.526 313.333 C 334.709 313.333,334.756 313.167,334.630 312.963 C 334.504 312.759,334.553 312.593,334.738 312.593 C 335.111 312.593,336.698 311.093,338.194 309.326 C 338.729 308.695,339.270 308.283,339.398 308.410 C 339.525 308.538,339.630 308.466,339.630 308.252 C 339.630 308.037,340.671 306.801,341.944 305.504 C 344.215 303.192,347.070 299.894,348.126 298.365 C 348.419 297.940,348.877 297.459,349.144 297.296 C 349.411 297.134,349.630 296.759,349.630 296.463 C 349.630 296.168,349.755 295.925,349.907 295.923 C 350.060 295.922,350.602 295.297,351.111 294.535 C 351.620 293.772,352.412 292.733,352.870 292.226 C 353.329 291.719,353.704 291.203,353.704 291.079 C 353.704 290.882,354.171 290.260,355.549 288.627 C 355.756 288.381,355.926 288.082,355.926 287.964 C 355.926 287.651,357.542 285.393,357.870 285.247 C 358.023 285.179,358.148 284.887,358.148 284.599 C 358.148 284.310,358.277 284.074,358.434 284.074 C 358.592 284.074,359.045 283.449,359.442 282.685 C 359.839 281.921,360.710 280.465,361.378 279.449 C 362.046 278.434,362.593 277.406,362.593 277.165 C 362.593 276.925,362.718 276.673,362.870 276.605 C 363.023 276.537,363.565 275.651,364.074 274.637 C 364.583 273.622,365.458 272.021,366.019 271.077 C 366.579 270.134,367.037 269.089,367.037 268.755 C 367.037 268.421,367.190 268.148,367.378 268.148 C 367.565 268.148,367.829 267.648,367.963 267.037 C 368.097 266.426,368.353 265.926,368.531 265.926 C 368.709 265.926,368.965 265.343,369.099 264.630 C 369.232 263.917,369.490 263.333,369.671 263.333 C 369.852 263.333,370.006 263.125,370.013 262.870 C 370.019 262.616,370.347 261.741,370.741 260.926 C 371.134 260.111,371.462 259.153,371.469 258.796 C 371.476 258.440,371.648 258.148,371.852 258.148 C 372.056 258.148,372.223 257.856,372.225 257.500 C 372.226 257.144,372.476 256.374,372.780 255.791 C 373.084 255.208,373.334 254.541,373.336 254.310 C 373.337 254.078,373.581 253.424,373.877 252.855 C 374.174 252.286,374.525 251.244,374.657 250.540 C 374.789 249.836,375.045 249.259,375.226 249.259 C 375.407 249.259,375.556 248.945,375.556 248.561 C 375.556 248.177,375.805 247.385,376.109 246.802 C 376.413 246.218,376.663 245.376,376.664 244.929 C 376.666 244.483,376.818 244.024,377.002 243.910 C 377.187 243.796,377.453 242.870,377.593 241.852 C 377.733 240.834,377.987 239.915,378.157 239.809 C 378.327 239.704,378.581 238.704,378.720 237.587 C 378.860 236.470,379.100 235.556,379.254 235.556 C 379.408 235.556,379.651 234.522,379.794 233.259 C 379.937 231.996,380.206 230.678,380.391 230.331 C 380.577 229.984,380.839 228.518,380.973 227.072 C 381.108 225.627,381.345 224.444,381.500 224.444 C 381.656 224.444,381.892 222.819,382.025 220.833 C 382.159 218.847,382.466 216.822,382.708 216.333 C 383.316 215.104,383.340 179.613,382.733 178.853 C 382.505 178.567,382.200 176.668,382.056 174.633 C 381.912 172.597,381.661 170.764,381.498 170.559 C 381.220 170.209,380.534 165.332,380.676 164.722 C 380.712 164.569,380.590 164.444,380.407 164.444 C 380.223 164.444,379.957 163.444,379.815 162.222 C 379.673 160.999,379.426 159.918,379.266 159.819 C 379.106 159.720,378.861 158.723,378.721 157.603 C 378.581 156.483,378.312 155.471,378.122 155.354 C 377.933 155.237,377.778 154.824,377.778 154.436 C 377.778 154.047,377.552 153.015,377.277 152.143 C 377.001 151.270,376.459 149.514,376.073 148.241 C 375.687 146.968,375.260 145.926,375.125 145.926 C 374.990 145.926,374.767 145.260,374.630 144.446 C 374.492 143.633,374.228 142.873,374.042 142.758 C 373.856 142.643,373.698 142.267,373.691 141.923 C 373.684 141.578,373.357 140.630,372.963 139.815 C 372.569 139.000,372.242 138.042,372.235 137.685 C 372.228 137.329,372.069 137.037,371.881 137.037 C 371.694 137.037,371.423 136.501,371.279 135.845 C 371.135 135.190,370.882 134.398,370.716 134.086 C 369.636 132.046,367.778 127.744,367.778 127.282 C 367.778 126.978,367.642 126.673,367.476 126.605 C 367.146 126.470,364.815 122.265,364.815 121.805 C 364.815 121.647,364.315 120.778,363.704 119.872 C 363.093 118.967,362.593 118.109,362.593 117.965 C 362.593 117.620,359.945 113.285,359.352 112.659 C 359.098 112.390,358.889 111.945,358.889 111.671 C 358.889 111.397,358.757 111.117,358.596 111.049 C 358.216 110.889,355.926 107.466,355.926 107.058 C 355.926 106.761,355.034 106.287,354.507 106.304 C 354.371 106.309,353.426 107.101,352.407 108.065 M264.815 114.630 C 263.915 115.546,263.262 116.296,263.364 116.296 C 263.466 116.296,264.286 115.546,265.185 114.630 C 266.085 113.713,266.738 112.963,266.636 112.963 C 266.534 112.963,265.714 113.713,264.815 114.630 M337.017 122.130 L 335.741 123.519 337.130 122.242 C 338.422 121.054,338.689 120.741,338.406 120.741 C 338.344 120.741,337.719 121.366,337.017 122.130 M255.556 123.519 C 254.656 124.435,254.003 125.185,254.105 125.185 C 254.207 125.185,255.026 124.435,255.926 123.519 C 256.826 122.602,257.478 121.852,257.376 121.852 C 257.275 121.852,256.455 122.602,255.556 123.519 M332.222 126.481 C 331.323 127.398,330.670 128.148,330.772 128.148 C 330.874 128.148,331.693 127.398,332.593 126.481 C 333.492 125.565,334.145 124.815,334.043 124.815 C 333.941 124.815,333.122 125.565,332.222 126.481 M328.499 129.907 L 327.222 131.296 328.611 130.020 C 329.904 128.832,330.170 128.519,329.887 128.519 C 329.826 128.519,329.201 129.144,328.499 129.907 M247.778 130.926 C 246.878 131.843,246.225 132.593,246.327 132.593 C 246.429 132.593,247.249 131.843,248.148 130.926 C 249.048 130.009,249.701 129.259,249.599 129.259 C 249.497 129.259,248.677 130.009,247.778 130.926 M323.495 134.537 L 322.407 135.741 323.611 134.653 C 324.273 134.055,324.815 133.513,324.815 133.449 C 324.815 133.163,324.509 133.415,323.495 134.537 M40.582 136.138 C 40.446 136.680,40.406 137.196,40.493 137.283 C 40.580 137.370,40.763 136.998,40.899 136.455 C 41.036 135.912,41.076 135.397,40.988 135.309 C 40.901 135.222,40.718 135.595,40.582 136.138 M240.730 137.685 L 238.333 140.185 240.833 137.788 C 242.208 136.470,243.333 135.345,243.333 135.288 C 243.333 135.016,242.956 135.363,240.730 137.685 M319.259 138.333 C 318.360 139.250,317.707 140.000,317.809 140.000 C 317.911 140.000,318.730 139.250,319.630 138.333 C 320.529 137.417,321.182 136.667,321.080 136.667 C 320.978 136.667,320.159 137.417,319.259 138.333 M314.612 142.685 L 313.148 144.259 314.722 142.795 C 316.186 141.434,316.466 141.111,316.186 141.111 C 316.126 141.111,315.417 141.819,314.612 142.685 M232.025 146.019 L 229.815 148.333 232.130 146.123 C 233.403 144.907,234.444 143.865,234.444 143.808 C 234.444 143.534,234.079 143.868,232.025 146.019 M309.797 147.130 L 308.333 148.704 309.907 147.240 C 311.371 145.878,311.652 145.556,311.371 145.556 C 311.311 145.556,310.603 146.264,309.797 147.130 M305.717 150.833 L 304.630 152.037 305.833 150.949 C 306.495 150.351,307.037 149.809,307.037 149.746 C 307.037 149.459,306.731 149.711,305.717 150.833 M224.815 152.778 C 223.915 153.694,223.262 154.444,223.364 154.444 C 223.466 154.444,224.286 153.694,225.185 152.778 C 226.085 151.861,226.738 151.111,226.636 151.111 C 226.534 151.111,225.714 151.861,224.815 152.778 M296.834 158.981 L 295.370 160.556 296.944 159.092 C 298.408 157.730,298.689 157.407,298.408 157.407 C 298.348 157.407,297.640 158.116,296.834 158.981 M217.395 159.907 L 215.370 162.037 217.500 160.013 C 219.478 158.132,219.799 157.778,219.524 157.778 C 219.467 157.778,218.508 158.736,217.395 159.907 M292.384 163.056 L 291.296 164.259 292.500 163.171 C 293.162 162.573,293.704 162.031,293.704 161.968 C 293.704 161.682,293.398 161.934,292.384 163.056 M36.778 165.556 C 36.778 166.676,36.847 167.134,36.932 166.574 C 37.017 166.014,37.017 165.097,36.932 164.537 C 36.847 163.977,36.778 164.435,36.778 165.556 M287.940 167.130 L 286.852 168.333 288.056 167.246 C 288.718 166.647,289.259 166.106,289.259 166.042 C 289.259 165.756,288.954 166.008,287.940 167.130 M207.778 169.074 C 206.878 169.991,206.225 170.741,206.327 170.741 C 206.429 170.741,207.249 169.991,208.148 169.074 C 209.048 168.157,209.701 167.407,209.599 167.407 C 209.497 167.407,208.677 168.157,207.778 169.074 M282.760 171.944 L 281.296 173.519 282.870 172.054 C 284.334 170.693,284.615 170.370,284.334 170.370 C 284.274 170.370,283.566 171.079,282.760 171.944 M200.544 176.019 L 198.333 178.333 200.648 176.123 C 201.921 174.907,202.963 173.865,202.963 173.808 C 202.963 173.534,202.597 173.868,200.544 176.019 M278.499 175.833 L 277.222 177.222 278.611 175.946 C 279.904 174.758,280.170 174.444,279.887 174.444 C 279.826 174.444,279.201 175.069,278.499 175.833 M36.773 179.074 C 36.775 180.093,36.847 180.465,36.932 179.902 C 37.018 179.339,37.015 178.506,36.927 178.050 C 36.839 177.595,36.770 178.056,36.773 179.074 M192.952 183.241 L 190.556 185.741 193.056 183.344 C 194.431 182.026,195.556 180.901,195.556 180.844 C 195.556 180.571,195.178 180.919,192.952 183.241 M269.610 183.981 L 268.333 185.370 269.722 184.094 C 271.015 182.906,271.281 182.593,270.999 182.593 C 270.937 182.593,270.312 183.218,269.610 183.981 M265.347 187.870 L 264.259 189.074 265.463 187.986 C 266.125 187.388,266.667 186.846,266.667 186.783 C 266.667 186.496,266.361 186.748,265.347 187.870 M37.493 188.889 C 37.493 189.602,37.570 189.894,37.663 189.537 C 37.756 189.181,37.756 188.597,37.663 188.241 C 37.570 187.884,37.493 188.176,37.493 188.889 M183.704 192.037 C 182.804 192.954,182.151 193.704,182.253 193.704 C 182.355 193.704,183.174 192.954,184.074 192.037 C 184.974 191.120,185.626 190.370,185.525 190.370 C 185.423 190.370,184.603 191.120,183.704 192.037 M260.903 191.944 L 259.815 193.148 261.019 192.060 C 262.141 191.046,262.392 190.741,262.106 190.741 C 262.043 190.741,261.501 191.282,260.903 191.944 M256.276 196.204 L 255.000 197.593 256.389 196.316 C 257.682 195.128,257.948 194.815,257.665 194.815 C 257.603 194.815,256.978 195.440,256.276 196.204 M177.037 198.333 C 176.137 199.250,175.485 200.000,175.587 200.000 C 175.688 200.000,176.508 199.250,177.407 198.333 C 178.307 197.417,178.960 196.667,178.858 196.667 C 178.756 196.667,177.937 197.417,177.037 198.333 M252.384 199.722 L 251.296 200.926 252.500 199.838 C 253.162 199.240,253.704 198.698,253.704 198.634 C 253.704 198.348,253.398 198.600,252.384 199.722 M247.569 204.167 L 246.481 205.370 247.685 204.283 C 248.347 203.684,248.889 203.143,248.889 203.079 C 248.889 202.793,248.583 203.045,247.569 204.167 M168.878 206.204 L 166.481 208.704 168.981 206.307 C 171.304 204.081,171.651 203.704,171.378 203.704 C 171.321 203.704,170.196 204.829,168.878 206.204 M40.422 207.407 C 40.422 207.713,40.566 208.296,40.741 208.704 C 40.941 209.171,41.059 209.239,41.059 208.889 C 41.059 208.583,40.916 208.000,40.741 207.593 C 40.540 207.126,40.422 207.057,40.422 207.407 M242.573 208.796 L 241.296 210.185 242.685 208.909 C 243.978 207.721,244.244 207.407,243.962 207.407 C 243.900 207.407,243.275 208.032,242.573 208.796 M41.354 210.463 C 41.448 210.616,49.349 210.741,58.911 210.741 C 68.473 210.741,76.296 210.616,76.296 210.463 C 76.296 210.310,68.396 210.185,58.739 210.185 C 49.083 210.185,41.259 210.310,41.354 210.463 M238.310 212.685 L 237.222 213.889 238.426 212.801 C 239.088 212.203,239.630 211.661,239.630 211.597 C 239.630 211.311,239.324 211.563,238.310 212.685 M229.427 220.833 L 227.963 222.407 229.537 220.943 C 230.403 220.138,231.111 219.430,231.111 219.369 C 231.111 219.089,230.789 219.369,229.427 220.833 M240.000 236.042 C 240.000 236.106,240.542 236.647,241.204 237.246 L 242.407 238.333 241.320 237.130 C 240.306 236.008,240.000 235.756,240.000 236.042 M247.037 243.889 C 247.728 244.602,248.377 245.185,248.479 245.185 C 248.580 245.185,248.098 244.602,247.407 243.889 C 246.716 243.176,246.068 242.593,245.966 242.593 C 245.864 242.593,246.346 243.176,247.037 243.889 M250.000 247.222 C 250.691 247.935,251.340 248.519,251.442 248.519 C 251.543 248.519,251.061 247.935,250.370 247.222 C 249.679 246.509,249.031 245.926,248.929 245.926 C 248.827 245.926,249.309 246.509,250.000 247.222 M251.852 249.375 C 251.852 249.439,252.394 249.981,253.056 250.579 L 254.259 251.667 253.171 250.463 C 252.157 249.341,251.852 249.089,251.852 249.375 M255.185 253.079 C 255.185 253.143,255.727 253.684,256.389 254.283 L 257.593 255.370 256.505 254.167 C 255.491 253.045,255.185 252.793,255.185 253.079 M258.519 256.783 C 258.519 256.846,259.060 257.388,259.722 257.986 L 260.926 259.074 259.838 257.870 C 258.824 256.748,258.519 256.496,258.519 256.783 M62.962 259.907 C 62.962 260.060,65.004 260.142,67.499 260.089 C 75.768 259.913,76.567 259.773,69.722 259.701 C 66.005 259.662,62.963 259.755,62.962 259.907 M140.741 290.695 C 140.741 319.848,140.781 321.791,141.389 322.252 C 141.940 322.669,141.968 322.665,141.574 322.223 C 141.212 321.816,141.111 315.010,141.111 290.855 L 141.111 260.006 162.315 259.907 L 183.519 259.809 162.130 259.719 L 140.741 259.630 140.741 290.695 M264.815 263.820 C 264.815 263.883,265.356 264.425,266.019 265.023 L 267.222 266.111 266.134 264.907 C 265.120 263.785,264.815 263.533,264.815 263.820 M75.926 271.080 C 75.926 274.759,75.799 276.277,75.482 276.383 C 75.204 276.475,75.273 276.621,75.667 276.772 C 76.242 276.993,76.296 276.535,76.296 271.470 C 76.296 268.421,76.213 265.926,76.111 265.926 C 76.009 265.926,75.926 268.245,75.926 271.080 M268.519 267.963 C 269.210 268.676,269.858 269.259,269.960 269.259 C 270.062 269.259,269.580 268.676,268.889 267.963 C 268.198 267.250,267.549 266.667,267.447 266.667 C 267.345 266.667,267.827 267.250,268.519 267.963 M270.370 270.116 C 270.370 270.180,270.912 270.721,271.574 271.320 L 272.778 272.407 271.690 271.204 C 270.676 270.082,270.370 269.830,270.370 270.116 M273.704 273.820 C 273.704 273.883,274.245 274.425,274.907 275.023 L 276.111 276.111 275.023 274.907 C 274.009 273.785,273.704 273.533,273.704 273.820 M277.037 277.523 C 277.037 277.587,277.579 278.129,278.241 278.727 L 279.444 279.815 278.357 278.611 C 277.343 277.489,277.037 277.237,277.037 277.523 M285.926 287.523 C 285.926 287.587,286.468 288.129,287.130 288.727 L 288.333 289.815 287.246 288.611 C 286.232 287.489,285.926 287.237,285.926 287.523 M218.519 301.227 C 218.519 301.291,219.060 301.832,219.722 302.431 L 220.926 303.519 219.838 302.315 C 218.824 301.193,218.519 300.941,218.519 301.227 M231.481 316.412 C 231.481 316.476,232.023 317.018,232.685 317.616 L 233.889 318.704 232.801 317.500 C 231.787 316.378,231.481 316.126,231.481 316.412 M238.807 324.839 C 239.799 325.984,239.822 326.192,238.981 326.411 C 238.397 326.564,238.395 326.585,238.960 326.624 C 240.079 326.700,240.116 325.872,239.038 324.869 L 237.984 323.889 238.807 324.839 M185.653 331.747 C 186.216 331.832,187.050 331.830,187.505 331.742 C 187.961 331.654,187.500 331.585,186.481 331.587 C 185.463 331.590,185.090 331.662,185.653 331.747 M206.394 331.747 C 206.957 331.832,207.790 331.830,208.246 331.742 C 208.701 331.654,208.241 331.585,207.222 331.587 C 206.204 331.590,205.831 331.662,206.394 331.747 M193.076 332.128 C 195.277 332.194,198.777 332.194,200.853 332.128 C 202.930 332.062,201.130 332.008,196.852 332.009 C 192.574 332.009,190.875 332.063,193.076 332.128 M242.037 340.506 C 229.155 347.047,215.298 351.771,200.556 354.649 C 196.953 355.352,195.722 355.926,197.815 355.926 C 198.528 355.926,199.269 356.083,199.463 356.275 C 199.656 356.467,201.945 356.741,204.549 356.885 C 207.153 357.029,209.371 357.289,209.478 357.462 C 209.586 357.636,215.654 357.778,222.963 357.778 C 230.272 357.778,236.340 357.636,236.448 357.462 C 236.555 357.289,238.748 357.030,241.321 356.887 C 243.895 356.744,246.275 356.477,246.611 356.293 C 246.947 356.110,248.514 355.855,250.093 355.726 C 251.671 355.598,252.963 355.359,252.963 355.197 C 252.963 355.035,254.212 354.785,255.738 354.642 C 257.265 354.499,258.601 354.241,258.707 354.069 C 258.813 353.896,259.815 353.641,260.932 353.502 C 262.748 353.275,263.466 352.878,262.685 352.531 C 262.532 352.463,261.746 351.574,260.938 350.556 C 260.131 349.537,259.369 348.620,259.247 348.519 C 259.125 348.417,256.896 345.833,254.294 342.778 C 251.692 339.722,249.369 337.199,249.133 337.172 C 248.897 337.144,245.704 338.644,242.037 340.506 " stroke="none" fill="#7c9b6d" fill-rule="evenodd"></path><path id="path4" d="M349.109 98.792 C 348.959 98.942,333.639 99.170,315.066 99.297 L 281.296 99.529 315.074 99.487 C 341.557 99.454,348.952 99.344,349.315 98.981 C 349.569 98.727,349.689 98.519,349.580 98.519 C 349.472 98.519,349.260 98.642,349.109 98.792 M76.543 99.506 C 76.407 99.642,76.296 124.724,76.296 155.243 L 76.296 210.733 58.796 210.835 L 41.296 210.937 58.889 210.931 L 76.481 210.926 76.575 155.280 L 76.669 99.634 108.612 99.537 L 140.556 99.440 108.673 99.350 C 91.137 99.300,76.679 99.370,76.543 99.506 M277.954 102.685 L 275.000 105.741 278.056 102.786 C 280.893 100.043,281.280 99.630,281.010 99.630 C 280.954 99.630,279.579 101.005,277.954 102.685 M351.310 108.612 C 347.389 112.181,344.826 114.678,345.741 114.037 C 346.148 113.752,346.565 113.435,346.667 113.333 C 348.314 111.686,354.403 106.352,354.815 106.196 C 355.309 106.008,355.309 105.981,354.815 105.956 C 354.509 105.941,352.932 107.136,351.310 108.612 M270.730 109.537 L 268.333 112.037 270.833 109.640 C 272.208 108.322,273.333 107.197,273.333 107.140 C 273.333 106.868,272.956 107.215,270.730 109.537 M263.138 116.759 L 260.556 119.444 263.241 116.862 C 264.718 115.441,265.926 114.233,265.926 114.177 C 265.926 113.905,265.537 114.265,263.138 116.759 M342.222 116.852 C 341.323 117.769,340.670 118.519,340.772 118.519 C 340.874 118.519,341.693 117.769,342.593 116.852 C 343.492 115.935,344.145 115.185,344.043 115.185 C 343.941 115.185,343.122 115.935,342.222 116.852 M337.575 121.204 L 336.111 122.778 337.685 121.314 C 338.551 120.508,339.259 119.800,339.259 119.740 C 339.259 119.459,338.937 119.740,337.575 121.204 M253.880 125.648 L 250.926 128.704 253.981 125.749 C 255.662 124.125,257.037 122.750,257.037 122.694 C 257.037 122.424,256.624 122.810,253.880 125.648 M332.760 125.648 L 331.296 127.222 332.870 125.758 C 334.334 124.397,334.615 124.074,334.334 124.074 C 334.274 124.074,333.566 124.782,332.760 125.648 M329.060 128.981 L 327.222 130.926 329.167 129.088 C 330.973 127.380,331.281 127.037,331.005 127.037 C 330.946 127.037,330.071 127.912,329.060 128.981 M247.951 131.204 L 245.741 133.519 248.056 131.308 C 249.329 130.092,250.370 129.050,250.370 128.993 C 250.370 128.719,250.005 129.053,247.951 131.204 M324.242 133.426 L 322.778 135.000 324.352 133.536 C 325.816 132.174,326.096 131.852,325.816 131.852 C 325.755 131.852,325.047 132.560,324.242 133.426 M239.435 139.352 L 236.852 142.037 239.537 139.454 C 241.014 138.034,242.222 136.826,242.222 136.769 C 242.222 136.498,241.833 136.858,239.435 139.352 M319.051 138.241 L 317.963 139.444 319.167 138.357 C 319.829 137.758,320.370 137.217,320.370 137.153 C 320.370 136.867,320.065 137.119,319.051 138.241 M315.543 141.389 L 313.519 143.519 315.648 141.494 C 316.819 140.381,317.778 139.422,317.778 139.365 C 317.778 139.090,317.424 139.410,315.543 141.389 M310.861 145.564 C 309.807 146.578,309.063 147.407,309.208 147.407 C 309.353 147.407,310.293 146.574,311.296 145.556 C 313.651 143.164,313.349 143.170,310.861 145.564 M230.370 147.963 C 228.853 149.491,227.694 150.741,227.796 150.741 C 227.898 150.741,229.223 149.491,230.741 147.963 C 232.258 146.435,233.417 145.185,233.315 145.185 C 233.213 145.185,231.888 146.435,230.370 147.963 M306.088 150.093 L 305.000 151.296 306.204 150.208 C 306.866 149.610,307.407 149.069,307.407 149.005 C 307.407 148.719,307.102 148.971,306.088 150.093 M224.444 153.519 C 223.545 154.435,222.892 155.185,222.994 155.185 C 223.096 155.185,223.915 154.435,224.815 153.519 C 225.714 152.602,226.367 151.852,226.265 151.852 C 226.163 151.852,225.344 152.602,224.444 153.519 M301.852 153.889 C 300.952 154.806,300.299 155.556,300.401 155.556 C 300.503 155.556,301.323 154.806,302.222 153.889 C 303.122 152.972,303.775 152.222,303.673 152.222 C 303.571 152.222,302.751 152.972,301.852 153.889 M297.387 158.056 L 296.111 159.444 297.500 158.168 C 298.793 156.980,299.059 156.667,298.776 156.667 C 298.714 156.667,298.089 157.292,297.387 158.056 M215.360 162.315 L 212.778 165.000 215.463 162.417 C 216.940 160.997,218.148 159.789,218.148 159.732 C 218.148 159.460,217.759 159.821,215.360 162.315 M292.593 162.407 C 291.693 163.324,291.040 164.074,291.142 164.074 C 291.244 164.074,292.063 163.324,292.963 162.407 C 293.863 161.491,294.515 160.741,294.413 160.741 C 294.312 160.741,293.492 161.491,292.593 162.407 M288.889 165.741 C 287.989 166.657,287.337 167.407,287.438 167.407 C 287.540 167.407,288.360 166.657,289.259 165.741 C 290.159 164.824,290.812 164.074,290.710 164.074 C 290.608 164.074,289.789 164.824,288.889 165.741 M206.296 170.926 C 204.779 172.454,203.620 173.704,203.722 173.704 C 203.824 173.704,205.149 172.454,206.667 170.926 C 208.184 169.398,209.343 168.148,209.241 168.148 C 209.139 168.148,207.814 169.398,206.296 170.926 M284.054 170.278 L 282.778 171.667 284.167 170.390 C 285.459 169.202,285.726 168.889,285.443 168.889 C 285.381 168.889,284.756 169.514,284.054 170.278 M279.259 174.630 C 278.360 175.546,277.707 176.296,277.809 176.296 C 277.911 176.296,278.730 175.546,279.630 174.630 C 280.529 173.713,281.182 172.963,281.080 172.963 C 280.978 172.963,280.159 173.713,279.259 174.630 M199.630 177.222 C 198.112 178.750,196.954 180.000,197.056 180.000 C 197.157 180.000,198.482 178.750,200.000 177.222 C 201.518 175.694,202.676 174.444,202.574 174.444 C 202.472 174.444,201.147 175.694,199.630 177.222 M274.815 178.704 C 273.915 179.620,273.262 180.370,273.364 180.370 C 273.466 180.370,274.286 179.620,275.185 178.704 C 276.085 177.787,276.738 177.037,276.636 177.037 C 276.534 177.037,275.714 177.787,274.815 178.704 M270.283 182.788 C 269.522 183.495,269.031 184.074,269.192 184.074 C 269.353 184.074,270.050 183.491,270.741 182.778 C 272.353 181.114,272.077 181.120,270.283 182.788 M191.471 185.093 L 189.074 187.593 191.574 185.196 C 192.949 183.878,194.074 182.753,194.074 182.696 C 194.074 182.423,193.697 182.770,191.471 185.093 M265.536 187.315 L 264.259 188.704 265.648 187.427 C 266.941 186.239,267.207 185.926,266.925 185.926 C 266.863 185.926,266.238 186.551,265.536 187.315 M262.023 190.463 L 260.185 192.407 262.130 190.569 C 263.936 188.862,264.244 188.519,263.968 188.519 C 263.909 188.519,263.034 189.394,262.023 190.463 M182.593 193.519 C 181.075 195.046,179.917 196.296,180.019 196.296 C 180.120 196.296,181.445 195.046,182.963 193.519 C 184.481 191.991,185.639 190.741,185.537 190.741 C 185.435 190.741,184.110 191.991,182.593 193.519 M256.834 195.278 L 255.370 196.852 256.944 195.388 C 258.408 194.026,258.689 193.704,258.408 193.704 C 258.348 193.704,257.640 194.412,256.834 195.278 M176.667 199.074 C 175.767 199.991,175.114 200.741,175.216 200.741 C 175.318 200.741,176.137 199.991,177.037 199.074 C 177.937 198.157,178.589 197.407,178.488 197.407 C 178.386 197.407,177.566 198.157,176.667 199.074 M251.643 200.093 L 250.556 201.296 251.759 200.208 C 252.421 199.610,252.963 199.069,252.963 199.005 C 252.963 198.719,252.657 198.971,251.643 200.093 M248.519 202.778 C 247.619 203.694,246.966 204.444,247.068 204.444 C 247.170 204.444,247.989 203.694,248.889 202.778 C 249.789 201.861,250.441 201.111,250.339 201.111 C 250.238 201.111,249.418 201.861,248.519 202.778 M167.397 208.056 L 165.000 210.556 167.500 208.159 C 169.822 205.933,170.169 205.556,169.897 205.556 C 169.840 205.556,168.715 206.681,167.397 208.056 M243.704 207.222 C 242.804 208.139,242.151 208.889,242.253 208.889 C 242.355 208.889,243.174 208.139,244.074 207.222 C 244.974 206.306,245.626 205.556,245.525 205.556 C 245.423 205.556,244.603 206.306,243.704 207.222 M36.584 210.642 C 37.455 210.720,38.788 210.719,39.547 210.640 C 40.305 210.560,39.593 210.496,37.963 210.497 C 36.333 210.499,35.713 210.564,36.584 210.642 M140.690 210.839 C 140.846 210.994,146.296 211.078,152.802 211.023 L 164.630 210.925 152.518 210.740 C 145.857 210.639,140.534 210.683,140.690 210.839 M34.619 235.185 C 34.619 248.731,34.666 254.273,34.722 247.500 C 34.779 240.727,34.779 229.644,34.722 222.870 C 34.666 216.097,34.619 221.639,34.619 235.185 M238.680 211.944 L 237.593 213.148 238.796 212.060 C 239.458 211.462,240.000 210.920,240.000 210.857 C 240.000 210.570,239.694 210.822,238.680 211.944 M234.815 215.370 C 233.915 216.287,233.262 217.037,233.364 217.037 C 233.466 217.037,234.286 216.287,235.185 215.370 C 236.085 214.454,236.738 213.704,236.636 213.704 C 236.534 213.704,235.714 214.454,234.815 215.370 M229.913 219.825 C 229.152 220.532,228.661 221.111,228.822 221.111 C 228.982 221.111,229.679 220.528,230.370 219.815 C 231.983 218.151,231.706 218.157,229.913 219.825 M227.626 222.168 C 227.518 222.342,227.883 222.884,228.437 223.372 L 229.444 224.259 228.608 223.306 C 228.148 222.781,227.884 222.240,228.021 222.102 C 228.159 221.964,228.170 221.852,228.047 221.852 C 227.923 221.852,227.733 221.994,227.626 222.168 M230.741 226.107 C 231.454 226.920,232.079 227.656,232.130 227.743 C 232.181 227.830,232.302 227.821,232.401 227.723 C 232.499 227.625,231.874 226.889,231.012 226.087 L 229.445 224.630 230.741 226.107 M235.926 231.968 C 235.926 232.031,236.468 232.573,237.130 233.171 L 238.333 234.259 237.246 233.056 C 236.232 231.934,235.926 231.682,235.926 231.968 M242.593 239.375 C 242.593 239.439,243.134 239.981,243.796 240.579 L 245.000 241.667 243.912 240.463 C 242.898 239.341,242.593 239.089,242.593 239.375 M246.111 243.333 C 246.907 244.148,247.641 244.815,247.743 244.815 C 247.845 244.815,247.277 244.148,246.481 243.333 C 245.686 242.519,244.952 241.852,244.850 241.852 C 244.748 241.852,245.315 242.519,246.111 243.333 M249.283 246.880 C 249.983 247.711,250.631 248.330,250.722 248.257 C 250.814 248.183,250.241 247.504,249.449 246.747 L 248.010 245.370 249.283 246.880 M252.222 250.185 C 252.913 250.898,253.562 251.481,253.664 251.481 C 253.766 251.481,253.284 250.898,252.593 250.185 C 251.902 249.472,251.253 248.889,251.151 248.889 C 251.049 248.889,251.531 249.472,252.222 250.185 M254.074 252.088 C 254.074 252.286,254.699 253.022,255.463 253.724 L 256.852 255.000 255.556 253.523 C 254.843 252.710,254.218 251.974,254.167 251.887 C 254.116 251.800,254.074 251.890,254.074 252.088 M69.623 259.532 L 76.283 259.646 76.392 268.527 L 76.502 277.408 76.492 268.426 L 76.481 259.444 69.722 259.432 L 62.962 259.419 69.623 259.532 M140.613 259.537 C 140.457 259.789,156.354 259.785,175.926 259.528 C 180.102 259.473,173.903 259.390,162.151 259.344 C 150.400 259.297,140.707 259.384,140.613 259.537 M41.969 259.907 C 45.801 259.967,51.968 259.967,55.672 259.907 C 59.377 259.846,56.241 259.797,48.704 259.797 C 41.167 259.797,38.136 259.847,41.969 259.907 M260.741 259.746 C 260.741 259.809,261.282 260.351,261.944 260.949 L 263.148 262.037 262.060 260.833 C 261.046 259.711,260.741 259.459,260.741 259.746 M184.074 260.216 C 184.074 260.349,184.574 261.027,185.185 261.723 C 185.796 262.419,186.296 262.880,186.296 262.747 C 186.296 262.614,185.796 261.936,185.185 261.240 C 184.574 260.544,184.074 260.083,184.074 260.216 M264.445 263.885 C 265.158 264.697,265.782 265.433,265.833 265.521 C 265.884 265.608,266.006 265.599,266.104 265.501 C 266.202 265.403,265.578 264.666,264.716 263.865 L 263.149 262.407 264.445 263.885 M266.667 266.412 C 266.667 266.476,267.208 267.018,267.870 267.616 L 269.074 268.704 267.986 267.500 C 266.972 266.378,266.667 266.126,266.667 266.412 M192.177 269.943 C 192.798 270.727,193.599 271.602,193.957 271.887 C 194.316 272.173,193.879 271.532,192.987 270.463 C 191.117 268.220,190.498 267.823,192.177 269.943 M269.630 269.746 C 269.630 269.809,270.171 270.351,270.833 270.949 L 272.037 272.037 270.949 270.833 C 269.935 269.711,269.630 269.459,269.630 269.746 M272.963 273.449 C 272.963 273.513,273.505 274.055,274.167 274.653 L 275.370 275.741 274.283 274.537 C 273.269 273.415,272.963 273.163,272.963 273.449 M198.888 277.777 C 199.740 278.795,200.631 279.746,200.867 279.891 C 201.103 280.036,200.484 279.204,199.492 278.040 C 198.500 276.877,197.609 275.926,197.513 275.926 C 197.417 275.926,198.036 276.759,198.888 277.777 M75.926 302.111 C 75.824 315.596,75.867 326.504,76.021 326.349 C 76.175 326.195,76.259 315.162,76.206 301.831 L 76.111 277.593 75.926 302.111 M279.815 281.111 C 280.610 281.926,281.345 282.593,281.447 282.593 C 281.548 282.593,280.981 281.926,280.185 281.111 C 279.390 280.296,278.655 279.630,278.553 279.630 C 278.452 279.630,279.019 280.296,279.815 281.111 M282.963 284.630 C 283.654 285.343,284.303 285.926,284.405 285.926 C 284.506 285.926,284.024 285.343,283.333 284.630 C 282.642 283.917,281.994 283.333,281.892 283.333 C 281.790 283.333,282.272 283.917,282.963 284.630 M205.556 285.556 C 206.408 286.574,207.189 287.407,207.291 287.407 C 207.393 287.407,206.779 286.574,205.926 285.556 C 205.073 284.537,204.292 283.704,204.190 283.704 C 204.088 283.704,204.703 284.537,205.556 285.556 M285.185 287.153 C 285.185 287.217,285.727 287.758,286.389 288.357 L 287.593 289.444 286.505 288.241 C 285.491 287.119,285.185 286.867,285.185 287.153 M288.148 290.486 C 288.148 290.550,288.690 291.092,289.352 291.690 L 290.556 292.778 289.468 291.574 C 288.454 290.452,288.148 290.200,288.148 290.486 M291.852 294.630 C 292.543 295.343,293.192 295.926,293.293 295.926 C 293.395 295.926,292.913 295.343,292.222 294.630 C 291.531 293.917,290.882 293.333,290.781 293.333 C 290.679 293.333,291.161 293.917,291.852 294.630 M214.815 296.412 C 214.815 296.476,215.356 297.018,216.019 297.616 L 217.222 298.704 216.134 297.500 C 215.120 296.378,214.815 296.126,214.815 296.412 M297.771 301.111 C 299.481 303.046,302.076 305.963,303.538 307.593 C 305.000 309.222,307.843 312.398,309.857 314.650 C 311.871 316.902,314.685 320.049,316.111 321.643 C 317.537 323.237,318.837 324.770,319.000 325.049 C 319.163 325.327,319.477 325.556,319.699 325.556 C 319.920 325.556,319.370 324.759,318.477 323.785 C 317.583 322.812,315.685 320.687,314.259 319.065 C 312.833 317.442,310.905 315.280,309.975 314.261 C 309.045 313.241,307.694 311.741,306.974 310.926 C 306.254 310.111,304.098 307.687,302.184 305.540 C 300.270 303.392,298.193 301.059,297.569 300.355 C 296.945 299.650,296.035 298.741,295.548 298.333 C 295.061 297.926,296.062 299.176,297.771 301.111 M236.667 321.968 C 236.667 322.031,237.208 322.573,237.870 323.171 L 239.074 324.259 237.986 323.056 C 236.972 321.934,236.667 321.682,236.667 321.968 M140.911 338.704 C 140.911 347.667,140.959 351.280,141.018 346.734 C 141.077 342.188,141.077 334.854,141.018 330.438 C 140.959 326.021,140.911 329.741,140.911 338.704 M240.291 326.486 C 240.500 326.895,241.063 327.561,241.540 327.964 C 242.377 328.673,242.375 328.659,241.487 327.590 C 240.012 325.814,239.888 325.699,240.291 326.486 M242.593 329.375 C 242.593 329.439,243.134 329.981,243.796 330.579 L 245.000 331.667 243.912 330.463 C 242.898 329.341,242.593 329.089,242.593 329.375 M244.815 331.968 C 244.815 332.031,245.356 332.573,246.019 333.171 L 247.222 334.259 246.134 333.056 C 245.120 331.934,244.815 331.682,244.815 331.968 M247.985 335.542 C 248.584 336.248,249.263 336.998,249.493 337.209 C 249.798 337.488,258.107 347.207,259.135 348.488 C 259.203 348.573,259.330 348.571,259.417 348.484 C 259.504 348.397,259.046 347.723,258.399 346.986 C 257.752 346.249,256.056 344.259,254.630 342.564 C 253.204 340.869,250.880 338.306,249.466 336.870 C 248.053 335.434,247.386 334.837,247.985 335.542 M260.994 350.648 C 262.898 353.017,263.495 353.633,263.290 353.019 C 263.059 352.325,260.245 348.929,259.883 348.907 C 259.716 348.897,260.216 349.680,260.994 350.648 " stroke="none" fill="#c4ccd8" fill-rule="evenodd"></path></g></svg>